{
	"asset":{
		"generator":"Khronos glTF Blender I/O v5.1.19",
		"version":"2.0"
	},
	"scene":0,
	"scenes":[
		{
			"name":"Scene",
			"nodes":[
				10
			]
		}
	],
	"nodes":[
		{
			"name":"\u30dc\u30fc\u30f3.002.R.001",
			"rotation":[
				0.9033219218254089,
				1.5731771828698775e-14,
				-6.461062866947032e-07,
				0.4289632737636566
			],
			"scale":[
				1,
				0.9999998807907104,
				1.0000001192092896
			],
			"translation":[
				9.513271947980684e-08,
				1.594786286354065,
				0.1327657699584961
			]
		},
		{
			"children":[
				0
			],
			"name":"\u30dc\u30fc\u30f3.002.R",
			"rotation":[
				0.006105365231633186,
				1.7763900430917828e-13,
				-4.366853101345214e-09,
				0.9999813437461853
			],
			"scale":[
				1,
				1.0000001192092896,
				1
			],
			"translation":[
				-5.192646312934812e-11,
				1.6351922750473022,
				2.81769700904988e-07
			]
		},
		{
			"children":[
				1
			],
			"name":"\u30dc\u30fc\u30f3.001.R",
			"rotation":[
				0.9400025606155396,
				-1.2201105903386633e-07,
				-3.3617118333495455e-07,
				0.34116750955581665
			],
			"scale":[
				1,
				1,
				1.0000001192092896
			],
			"translation":[
				0.0018907487392425537,
				0.7536230683326721,
				2.2901644706726074
			]
		},
		{
			"name":"\u30dc\u30fc\u30f3.003.L",
			"rotation":[
				-0.9004551768302917,
				4.7345570660609765e-14,
				-6.440559445763938e-07,
				0.4349488615989685
			],
			"scale":[
				1,
				1.0000001192092896,
				1.000000238418579
			],
			"translation":[
				1.1096142316091573e-07,
				1.5633363723754883,
				-0.15501731634140015
			]
		},
		{
			"children":[
				3
			],
			"name":"\u30dc\u30fc\u30f3.002.L",
			"rotation":[
				-0.006105335429310799,
				-6.395003884079875e-14,
				-4.366896622087779e-09,
				0.9999814033508301
			],
			"translation":[
				-4.177991286269389e-12,
				1.6351922750473022,
				1.3275808896651142e-07
			]
		},
		{
			"children":[
				4
			],
			"name":"\u30dc\u30fc\u30f3.001.L",
			"rotation":[
				-0.9400025010108948,
				1.2201108745557576e-07,
				-3.361711264915357e-07,
				0.3411675691604614
			],
			"scale":[
				1,
				1,
				1.0000004768371582
			],
			"translation":[
				-0.0018907487392425537,
				0.7536233067512512,
				-2.3142623901367188
			]
		},
		{
			"children":[
				2,
				5
			],
			"name":"\u30dc\u30fc\u30f3"
		},
		{
			"name":"\u30dc\u30fc\u30f3.005",
			"rotation":[
				-1,
				-7.812411877356276e-15,
				3.5762786865234375e-07,
				1.0922543758340453e-08
			],
			"translation":[
				0.0018907487392425537,
				-2.13321852684021,
				-0.022938985377550125
			]
		},
		{
			"name":"\u30dc\u30fc\u30f3.001",
			"rotation":[
				-1,
				0,
				0,
				1.0927847071684482e-08
			]
		},
		{
			"mesh":0,
			"name":"\u7acb\u65b9\u4f53.001",
			"skin":0
		},
		{
			"children":[
				9,
				6,
				7,
				8
			],
			"name":"YUMI]",
			"rotation":[
				-0.7071068286895752,
				0,
				0,
				0.7071068286895752
			],
			"translation":[
				0,
				0,
				-0.8189775347709656
			]
		}
	],
	"meshes":[
		{
			"name":"\u7acb\u65b9\u4f53.001",
			"primitives":[
				{
					"attributes":{
						"POSITION":0,
						"NORMAL":1,
						"TEXCOORD_0":2,
						"JOINTS_0":3,
						"WEIGHTS_0":4
					},
					"indices":5
				}
			]
		}
	],
	"skins":[
		{
			"inverseBindMatrices":6,
			"joints":[
				6,
				2,
				1,
				0,
				5,
				4,
				3,
				7,
				8
			],
			"name":"YUMI]"
		}
	],
	"accessors":[
		{
			"bufferView":0,
			"componentType":5126,
			"count":288,
			"max":[
				0.0452156625688076,
				4.799200534820557,
				1.32621431350708
			],
			"min":[
				-0.04521552100777626,
				-4.799200534820557,
				-1.7199313640594482
			],
			"type":"VEC3"
		},
		{
			"bufferView":1,
			"componentType":5126,
			"count":288,
			"type":"VEC3"
		},
		{
			"bufferView":2,
			"componentType":5126,
			"count":288,
			"type":"VEC2"
		},
		{
			"bufferView":3,
			"componentType":5121,
			"count":288,
			"type":"VEC4"
		},
		{
			"bufferView":4,
			"componentType":5126,
			"count":288,
			"type":"VEC4"
		},
		{
			"bufferView":5,
			"componentType":5123,
			"count":528,
			"type":"SCALAR"
		},
		{
			"bufferView":6,
			"componentType":5126,
			"count":9,
			"type":"MAT4"
		}
	],
	"bufferViews":[
		{
			"buffer":0,
			"byteLength":3456,
			"byteOffset":0,
			"target":34962
		},
		{
			"buffer":0,
			"byteLength":3456,
			"byteOffset":3456,
			"target":34962
		},
		{
			"buffer":0,
			"byteLength":2304,
			"byteOffset":6912,
			"target":34962
		},
		{
			"buffer":0,
			"byteLength":1152,
			"byteOffset":9216,
			"target":34962
		},
		{
			"buffer":0,
			"byteLength":4608,
			"byteOffset":10368,
			"target":34962
		},
		{
			"buffer":0,
			"byteLength":1056,
			"byteOffset":14976,
			"target":34963
		},
		{
			"buffer":0,
			"byteLength":576,
			"byteOffset":16032
		}
	],
	"buffers":[
		{
			"byteLength":16608,
			"uri":"Bow.bin"
		}
	]
}
