{
	"asset":{
		"generator":"Khronos glTF Blender I/O v5.1.19",
		"version":"2.0"
	},
	"scene":0,
	"scenes":[
		{
			"name":"Scene",
			"nodes":[
				2
			]
		}
	],
	"nodes":[
		{
			"name":"\u30dc\u30fc\u30f3"
		},
		{
			"mesh":0,
			"name":"\u5186\u67f1",
			"skin":0
		},
		{
			"children":[
				1,
				0
			],
			"name":"\u30a2\u30fc\u30de\u30c1\u30e5\u30a2.002",
			"rotation":[
				-0.7071068286895752,
				0,
				0,
				0.7071068286895752
			],
			"translation":[
				0,
				0,
				1.271925926208496
			]
		}
	],
	"meshes":[
		{
			"name":"\u5186\u67f1",
			"primitives":[
				{
					"attributes":{
						"POSITION":0,
						"NORMAL":1,
						"TEXCOORD_0":2,
						"JOINTS_0":3,
						"WEIGHTS_0":4
					},
					"indices":5
				}
			]
		}
	],
	"skins":[
		{
			"inverseBindMatrices":6,
			"joints":[
				0
			],
			"name":"\u30a2\u30fc\u30de\u30c1\u30e5\u30a2.002"
		}
	],
	"accessors":[
		{
			"bufferView":0,
			"componentType":5126,
			"count":160,
			"max":[
				0.29714688658714294,
				0.2929297685623169,
				1.3573551177978516
			],
			"min":[
				-0.2971478998661041,
				-0.3013654947280884,
				-5.004709243774414
			],
			"type":"VEC3"
		},
		{
			"bufferView":1,
			"componentType":5126,
			"count":160,
			"type":"VEC3"
		},
		{
			"bufferView":2,
			"componentType":5126,
			"count":160,
			"type":"VEC2"
		},
		{
			"bufferView":3,
			"componentType":5121,
			"count":160,
			"type":"VEC4"
		},
		{
			"bufferView":4,
			"componentType":5126,
			"count":160,
			"type":"VEC4"
		},
		{
			"bufferView":5,
			"componentType":5123,
			"count":270,
			"type":"SCALAR"
		},
		{
			"bufferView":6,
			"componentType":5126,
			"count":1,
			"type":"MAT4"
		}
	],
	"bufferViews":[
		{
			"buffer":0,
			"byteLength":1920,
			"byteOffset":0,
			"target":34962
		},
		{
			"buffer":0,
			"byteLength":1920,
			"byteOffset":1920,
			"target":34962
		},
		{
			"buffer":0,
			"byteLength":1280,
			"byteOffset":3840,
			"target":34962
		},
		{
			"buffer":0,
			"byteLength":640,
			"byteOffset":5120,
			"target":34962
		},
		{
			"buffer":0,
			"byteLength":2560,
			"byteOffset":5760,
			"target":34962
		},
		{
			"buffer":0,
			"byteLength":540,
			"byteOffset":8320,
			"target":34963
		},
		{
			"buffer":0,
			"byteLength":64,
			"byteOffset":8860
		}
	],
	"buffers":[
		{
			"byteLength":8924,
			"uri":"Bow_Arrow.bin"
		}
	]
}
