{
	"asset":{
		"generator":"Khronos glTF Blender I/O v5.1.19",
		"version":"2.0"
	},
	"scene":0,
	"scenes":[
		{
			"name":"Scene",
			"nodes":[
				0
			]
		}
	],
	"nodes":[
		{
			"mesh":0,
			"name":"wood_box",
			"rotation":[
				0.7071068286895752,
				0,
				0,
				0.7071068286895752
			],
			"scale":[
				0.009999999776482582,
				0.009999999776482582,
				0.009999999776482582
			]
		}
	],
	"materials":[
		{
			"doubleSided":true,
			"name":"standardSurface2",
			"pbrMetallicRoughness":{
				"metallicFactor":0,
				"roughnessFactor":0.5527864098548889
			}
		}
	],
	"meshes":[
		{
			"name":"\u30e1\u30c3\u30b7\u30e5",
			"primitives":[
				{
					"attributes":{
						"POSITION":0,
						"NORMAL":1,
						"TEXCOORD_0":2
					},
					"indices":3,
					"material":0
				}
			]
		}
	],
	"accessors":[
		{
			"bufferView":0,
			"componentType":5126,
			"count":6600,
			"max":[
				30.340179443359375,
				30.340181350708008,
				-3.0517578125e-05
			],
			"min":[
				-30.340179443359375,
				-30.340179443359375,
				-60.680389404296875
			],
			"type":"VEC3"
		},
		{
			"bufferView":1,
			"componentType":5126,
			"count":6600,
			"type":"VEC3"
		},
		{
			"bufferView":2,
			"componentType":5126,
			"count":6600,
			"type":"VEC2"
		},
		{
			"bufferView":3,
			"componentType":5123,
			"count":20496,
			"type":"SCALAR"
		}
	],
	"bufferViews":[
		{
			"buffer":0,
			"byteLength":79200,
			"byteOffset":0,
			"target":34962
		},
		{
			"buffer":0,
			"byteLength":79200,
			"byteOffset":79200,
			"target":34962
		},
		{
			"buffer":0,
			"byteLength":52800,
			"byteOffset":158400,
			"target":34962
		},
		{
			"buffer":0,
			"byteLength":40992,
			"byteOffset":211200,
			"target":34963
		}
	],
	"buffers":[
		{
			"byteLength":252192,
			"uri":"box.bin"
		}
	]
}
