{
	"asset":{
		"generator":"Khronos glTF Blender I/O v5.1.19",
		"version":"2.0"
	},
	"scene":0,
	"scenes":[
		{
			"name":"Scene",
			"nodes":[
				0,
				1,
				2
			]
		}
	],
	"nodes":[
		{
			"mesh":0,
			"name":"\u5186\u67f1",
			"rotation":[
				0.7071068286895752,
				0,
				0,
				0.7071068286895752
			]
		},
		{
			"mesh":1,
			"name":"\u30c6\u30ad\u30b9\u30c8",
			"rotation":[
				0,
				-0.7071068286895752,
				0.7071068286895752,
				3.090862321641907e-08
			],
			"scale":[
				1.868349313735962,
				1,
				1.868349313735962
			],
			"translation":[
				0.035690177232027054,
				0,
				-0.05183049291372299
			]
		},
		{
			"mesh":2,
			"name":"\u30c6\u30ad\u30b9\u30c8.001",
			"rotation":[
				0.7071068286895752,
				0,
				0,
				0.7071068286895752
			],
			"scale":[
				1.868349313735962,
				1,
				1.868349313735962
			],
			"translation":[
				-0.06232510879635811,
				0,
				0.05190640315413475
			]
		}
	],
	"materials":[
		{
			"doubleSided":true,
			"name":"\u30de\u30c6\u30ea\u30a2\u30eb.001",
			"pbrMetallicRoughness":{
				"baseColorFactor":[
					0.8000156879425049,
					0.4053586721420288,
					0.00021765599376522005,
					1
				],
				"roughnessFactor":0
			}
		}
	],
	"meshes":[
		{
			"name":"\u5186\u67f1",
			"primitives":[
				{
					"attributes":{
						"POSITION":0,
						"NORMAL":1,
						"TEXCOORD_0":2
					},
					"indices":3,
					"material":0
				}
			]
		},
		{
			"name":"\u30c6\u30ad\u30b9\u30c8",
			"primitives":[
				{
					"attributes":{
						"POSITION":4,
						"NORMAL":5,
						"TEXCOORD_0":6
					},
					"indices":7,
					"material":0
				}
			]
		},
		{
			"name":"\u30c6\u30ad\u30b9\u30c8.001",
			"primitives":[
				{
					"attributes":{
						"POSITION":8,
						"NORMAL":9,
						"TEXCOORD_0":10
					},
					"indices":7,
					"material":0
				}
			]
		}
	],
	"accessors":[
		{
			"bufferView":0,
			"componentType":5126,
			"count":576,
			"max":[
				1,
				0.09828095138072968,
				1
			],
			"min":[
				-1,
				-0.09828095138072968,
				-1.0000001192092896
			],
			"type":"VEC3"
		},
		{
			"bufferView":1,
			"componentType":5126,
			"count":576,
			"type":"VEC3"
		},
		{
			"bufferView":2,
			"componentType":5126,
			"count":576,
			"type":"VEC2"
		},
		{
			"bufferView":3,
			"componentType":5123,
			"count":1332,
			"type":"SCALAR"
		},
		{
			"bufferView":4,
			"componentType":5126,
			"count":274,
			"max":[
				0.08063414692878723,
				0.03999999910593033,
				0.24207299947738647
			],
			"min":[
				-0.13893625140190125,
				-0.03999999910593033,
				-0.2598022222518921
			],
			"type":"VEC3"
		},
		{
			"bufferView":5,
			"componentType":5126,
			"count":274,
			"type":"VEC3"
		},
		{
			"bufferView":6,
			"componentType":5126,
			"count":274,
			"type":"VEC2"
		},
		{
			"bufferView":7,
			"componentType":5123,
			"count":804,
			"type":"SCALAR"
		},
		{
			"bufferView":8,
			"componentType":5126,
			"count":274,
			"max":[
				0.08063414692878723,
				0.03999999910593033,
				0.24207299947738647
			],
			"min":[
				-0.13893625140190125,
				-0.03999999910593033,
				-0.2598022222518921
			],
			"type":"VEC3"
		},
		{
			"bufferView":9,
			"componentType":5126,
			"count":274,
			"type":"VEC3"
		},
		{
			"bufferView":10,
			"componentType":5126,
			"count":274,
			"type":"VEC2"
		}
	],
	"bufferViews":[
		{
			"buffer":0,
			"byteLength":6912,
			"byteOffset":0,
			"target":34962
		},
		{
			"buffer":0,
			"byteLength":6912,
			"byteOffset":6912,
			"target":34962
		},
		{
			"buffer":0,
			"byteLength":4608,
			"byteOffset":13824,
			"target":34962
		},
		{
			"buffer":0,
			"byteLength":2664,
			"byteOffset":18432,
			"target":34963
		},
		{
			"buffer":0,
			"byteLength":3288,
			"byteOffset":21096,
			"target":34962
		},
		{
			"buffer":0,
			"byteLength":3288,
			"byteOffset":24384,
			"target":34962
		},
		{
			"buffer":0,
			"byteLength":2192,
			"byteOffset":27672,
			"target":34962
		},
		{
			"buffer":0,
			"byteLength":1608,
			"byteOffset":29864,
			"target":34963
		},
		{
			"buffer":0,
			"byteLength":3288,
			"byteOffset":31472,
			"target":34962
		},
		{
			"buffer":0,
			"byteLength":3288,
			"byteOffset":34760,
			"target":34962
		},
		{
			"buffer":0,
			"byteLength":2192,
			"byteOffset":38048,
			"target":34962
		}
	],
	"buffers":[
		{
			"byteLength":40240,
			"uri":"coin.bin"
		}
	]
}
