{
	"asset":{
		"generator":"Khronos glTF Blender I/O v5.1.19",
		"version":"2.0"
	},
	"scene":0,
	"scenes":[
		{
			"name":"Scene",
			"nodes":[
				0,
				1,
				2
			]
		}
	],
	"nodes":[
		{
			"mesh":0,
			"name":"\u7acb\u65b9\u4f53",
			"rotation":[
				0,
				-1,
				0,
				7.549790836947068e-08
			],
			"scale":[
				4.392269134521484,
				4.392269134521484,
				4.392269134521484
			],
			"translation":[
				0,
				4.644313335418701,
				0
			]
		},
		{
			"mesh":1,
			"name":"COL_Attack",
			"rotation":[
				0,
				-1,
				0,
				7.549790126404332e-08
			],
			"scale":[
				3.719879150390625,
				0.5645356774330139,
				3.719879150390625
			],
			"translation":[
				0,
				-0.03482532501220703,
				0
			]
		},
		{
			"mesh":2,
			"name":"COL",
			"rotation":[
				0,
				-1,
				0,
				7.549790836947068e-08
			],
			"scale":[
				4.392269134521484,
				4.122258186340332,
				4.392269134521484
			],
			"translation":[
				0,
				5.742408752441406,
				0
			]
		}
	],
	"materials":[
		{
			"doubleSided":true,
			"name":"\u30de\u30c6\u30ea\u30a2\u30eb",
			"pbrMetallicRoughness":{
				"baseColorFactor":[
					1,
					0.956107497215271,
					0.8312951922416687,
					1
				],
				"metallicFactor":0,
				"roughnessFactor":0.5
			}
		},
		{
			"doubleSided":true,
			"name":"\u30de\u30c6\u30ea\u30a2\u30eb.001",
			"pbrMetallicRoughness":{
				"baseColorFactor":[
					1,
					0.7550917863845825,
					0.7832670211791992,
					1
				],
				"metallicFactor":0.3977900445461273,
				"roughnessFactor":0.5
			}
		},
		{
			"doubleSided":true,
			"name":"\u30de\u30c6\u30ea\u30a2\u30eb.003",
			"pbrMetallicRoughness":{
				"baseColorFactor":[
					1,
					0.5638102293014526,
					0,
					1
				],
				"metallicFactor":0,
				"roughnessFactor":0.5
			}
		},
		{
			"doubleSided":true,
			"name":"\u30de\u30c6\u30ea\u30a2\u30eb.004",
			"pbrMetallicRoughness":{
				"baseColorFactor":[
					0.8000074625015259,
					0.5897819995880127,
					0.6118882894515991,
					1
				],
				"roughnessFactor":0.05801106244325638
			}
		},
		{
			"doubleSided":true,
			"name":"\u30de\u30c6\u30ea\u30a2\u30eb.005",
			"pbrMetallicRoughness":{
				"baseColorFactor":[
					1,
					0.8573830127716064,
					0.867401123046875,
					1
				],
				"metallicFactor":0,
				"roughnessFactor":0.5
			}
		},
		{
			"doubleSided":true,
			"name":"\u30de\u30c6\u30ea\u30a2\u30eb.006",
			"pbrMetallicRoughness":{
				"baseColorFactor":[
					0.013522950932383537,
					0.013522950932383537,
					0.013522950932383537,
					1
				],
				"metallicFactor":0,
				"roughnessFactor":0.5
			}
		},
		{
			"doubleSided":true,
			"name":"\u30de\u30c6\u30ea\u30a2\u30eb.007",
			"pbrMetallicRoughness":{
				"baseColorFactor":[
					0.4974108338356018,
					0.47427141666412354,
					0.4361425042152405,
					1
				],
				"metallicFactor":0,
				"roughnessFactor":0.5
			}
		},
		{
			"alphaMode":"BLEND",
			"doubleSided":true,
			"name":"\u30de\u30c6\u30ea\u30a2\u30eb.008",
			"pbrMetallicRoughness":{
				"baseColorFactor":[
					0.800000011920929,
					0.800000011920929,
					0.800000011920929,
					0.20441991090774536
				],
				"metallicFactor":0,
				"roughnessFactor":0.5
			}
		}
	],
	"meshes":[
		{
			"name":"\u7acb\u65b9\u4f53",
			"primitives":[
				{
					"attributes":{
						"POSITION":0,
						"NORMAL":1,
						"TEXCOORD_0":2
					},
					"indices":3,
					"material":0
				},
				{
					"attributes":{
						"POSITION":4,
						"NORMAL":5,
						"TEXCOORD_0":6
					},
					"indices":7,
					"material":1
				},
				{
					"attributes":{
						"POSITION":8,
						"NORMAL":9,
						"TEXCOORD_0":10
					},
					"indices":11,
					"material":2
				},
				{
					"attributes":{
						"POSITION":12,
						"NORMAL":13,
						"TEXCOORD_0":14
					},
					"indices":15,
					"material":3
				},
				{
					"attributes":{
						"POSITION":16,
						"NORMAL":17,
						"TEXCOORD_0":18
					},
					"indices":19,
					"material":4
				},
				{
					"attributes":{
						"POSITION":20,
						"NORMAL":21,
						"TEXCOORD_0":22
					},
					"indices":23,
					"material":5
				},
				{
					"attributes":{
						"POSITION":24,
						"NORMAL":25,
						"TEXCOORD_0":26
					},
					"indices":27,
					"material":6
				}
			]
		},
		{
			"name":"\u7acb\u65b9\u4f53.001",
			"primitives":[
				{
					"attributes":{
						"POSITION":28,
						"NORMAL":29,
						"TEXCOORD_0":30
					},
					"indices":31,
					"material":7
				}
			]
		},
		{
			"name":"\u7acb\u65b9\u4f53.002",
			"primitives":[
				{
					"attributes":{
						"POSITION":32,
						"NORMAL":33,
						"TEXCOORD_0":34
					},
					"indices":31
				}
			]
		}
	],
	"accessors":[
		{
			"bufferView":0,
			"componentType":5126,
			"count":195,
			"max":[
				1,
				0.790273129940033,
				1
			],
			"min":[
				-1,
				-0.3951365649700165,
				-1
			],
			"type":"VEC3"
		},
		{
			"bufferView":1,
			"componentType":5126,
			"count":195,
			"type":"VEC3"
		},
		{
			"bufferView":2,
			"componentType":5126,
			"count":195,
			"type":"VEC2"
		},
		{
			"bufferView":3,
			"componentType":5123,
			"count":588,
			"type":"SCALAR"
		},
		{
			"bufferView":4,
			"componentType":5126,
			"count":336,
			"max":[
				1.0236034393310547,
				0.8168966174125671,
				1.033962368965149
			],
			"min":[
				-1.0236034393310547,
				-0.8176944851875305,
				-1.0242092609405518
			],
			"type":"VEC3"
		},
		{
			"bufferView":5,
			"componentType":5126,
			"count":336,
			"type":"VEC3"
		},
		{
			"bufferView":6,
			"componentType":5126,
			"count":336,
			"type":"VEC2"
		},
		{
			"bufferView":7,
			"componentType":5123,
			"count":528,
			"type":"SCALAR"
		},
		{
			"bufferView":8,
			"componentType":5126,
			"count":76,
			"max":[
				0.709068775177002,
				0.3006908595561981,
				0.9869414567947388
			],
			"min":[
				-0.709068775177002,
				-0.24388599395751953,
				0.935195803642273
			],
			"type":"VEC3"
		},
		{
			"bufferView":9,
			"componentType":5126,
			"count":76,
			"type":"VEC3"
		},
		{
			"bufferView":10,
			"componentType":5126,
			"count":76,
			"type":"VEC2"
		},
		{
			"bufferView":11,
			"componentType":5123,
			"count":120,
			"type":"SCALAR"
		},
		{
			"bufferView":12,
			"componentType":5126,
			"count":80,
			"max":[
				0.7020518779754639,
				-0.7825537919998169,
				0.7860380411148071
			],
			"min":[
				-0.7020518779754639,
				-1.3180851936340332,
				-0.8212685585021973
			],
			"type":"VEC3"
		},
		{
			"bufferView":13,
			"componentType":5126,
			"count":80,
			"type":"VEC3"
		},
		{
			"bufferView":14,
			"componentType":5126,
			"count":80,
			"type":"VEC2"
		},
		{
			"bufferView":15,
			"componentType":5123,
			"count":96,
			"type":"SCALAR"
		},
		{
			"bufferView":16,
			"componentType":5126,
			"count":79,
			"max":[
				1,
				-0.3951365649700165,
				1
			],
			"min":[
				-1,
				-0.790273129940033,
				-1
			],
			"type":"VEC3"
		},
		{
			"bufferView":17,
			"componentType":5126,
			"count":79,
			"type":"VEC3"
		},
		{
			"bufferView":18,
			"componentType":5126,
			"count":79,
			"type":"VEC2"
		},
		{
			"bufferView":19,
			"componentType":5123,
			"count":264,
			"type":"SCALAR"
		},
		{
			"bufferView":20,
			"componentType":5126,
			"count":33,
			"max":[
				0.9375138282775879,
				0.3951365649700165,
				0.931858479976654
			],
			"min":[
				-0.9375138282775879,
				-0.3951365649700165,
				-0.6340718269348145
			],
			"type":"VEC3"
		},
		{
			"bufferView":21,
			"componentType":5126,
			"count":33,
			"type":"VEC3"
		},
		{
			"bufferView":22,
			"componentType":5126,
			"count":33,
			"type":"VEC2"
		},
		{
			"bufferView":23,
			"componentType":5123,
			"count":96,
			"type":"SCALAR"
		},
		{
			"bufferView":24,
			"componentType":5126,
			"count":104,
			"max":[
				1,
				0.790273129940033,
				1
			],
			"min":[
				-1,
				-0.790273129940033,
				-1
			],
			"type":"VEC3"
		},
		{
			"bufferView":25,
			"componentType":5126,
			"count":104,
			"type":"VEC3"
		},
		{
			"bufferView":26,
			"componentType":5126,
			"count":104,
			"type":"VEC2"
		},
		{
			"bufferView":27,
			"componentType":5123,
			"count":228,
			"type":"SCALAR"
		},
		{
			"bufferView":28,
			"componentType":5126,
			"count":24,
			"max":[
				1,
				1,
				1
			],
			"min":[
				-1,
				-1,
				-1
			],
			"type":"VEC3"
		},
		{
			"bufferView":29,
			"componentType":5126,
			"count":24,
			"type":"VEC3"
		},
		{
			"bufferView":30,
			"componentType":5126,
			"count":24,
			"type":"VEC2"
		},
		{
			"bufferView":31,
			"componentType":5123,
			"count":36,
			"type":"SCALAR"
		},
		{
			"bufferView":32,
			"componentType":5126,
			"count":24,
			"max":[
				1,
				0.6163455843925476,
				1
			],
			"min":[
				-1,
				-1,
				-1
			],
			"type":"VEC3"
		},
		{
			"bufferView":33,
			"componentType":5126,
			"count":24,
			"type":"VEC3"
		},
		{
			"bufferView":34,
			"componentType":5126,
			"count":24,
			"type":"VEC2"
		}
	],
	"bufferViews":[
		{
			"buffer":0,
			"byteLength":2340,
			"byteOffset":0,
			"target":34962
		},
		{
			"buffer":0,
			"byteLength":2340,
			"byteOffset":2340,
			"target":34962
		},
		{
			"buffer":0,
			"byteLength":1560,
			"byteOffset":4680,
			"target":34962
		},
		{
			"buffer":0,
			"byteLength":1176,
			"byteOffset":6240,
			"target":34963
		},
		{
			"buffer":0,
			"byteLength":4032,
			"byteOffset":7416,
			"target":34962
		},
		{
			"buffer":0,
			"byteLength":4032,
			"byteOffset":11448,
			"target":34962
		},
		{
			"buffer":0,
			"byteLength":2688,
			"byteOffset":15480,
			"target":34962
		},
		{
			"buffer":0,
			"byteLength":1056,
			"byteOffset":18168,
			"target":34963
		},
		{
			"buffer":0,
			"byteLength":912,
			"byteOffset":19224,
			"target":34962
		},
		{
			"buffer":0,
			"byteLength":912,
			"byteOffset":20136,
			"target":34962
		},
		{
			"buffer":0,
			"byteLength":608,
			"byteOffset":21048,
			"target":34962
		},
		{
			"buffer":0,
			"byteLength":240,
			"byteOffset":21656,
			"target":34963
		},
		{
			"buffer":0,
			"byteLength":960,
			"byteOffset":21896,
			"target":34962
		},
		{
			"buffer":0,
			"byteLength":960,
			"byteOffset":22856,
			"target":34962
		},
		{
			"buffer":0,
			"byteLength":640,
			"byteOffset":23816,
			"target":34962
		},
		{
			"buffer":0,
			"byteLength":192,
			"byteOffset":24456,
			"target":34963
		},
		{
			"buffer":0,
			"byteLength":948,
			"byteOffset":24648,
			"target":34962
		},
		{
			"buffer":0,
			"byteLength":948,
			"byteOffset":25596,
			"target":34962
		},
		{
			"buffer":0,
			"byteLength":632,
			"byteOffset":26544,
			"target":34962
		},
		{
			"buffer":0,
			"byteLength":528,
			"byteOffset":27176,
			"target":34963
		},
		{
			"buffer":0,
			"byteLength":396,
			"byteOffset":27704,
			"target":34962
		},
		{
			"buffer":0,
			"byteLength":396,
			"byteOffset":28100,
			"target":34962
		},
		{
			"buffer":0,
			"byteLength":264,
			"byteOffset":28496,
			"target":34962
		},
		{
			"buffer":0,
			"byteLength":192,
			"byteOffset":28760,
			"target":34963
		},
		{
			"buffer":0,
			"byteLength":1248,
			"byteOffset":28952,
			"target":34962
		},
		{
			"buffer":0,
			"byteLength":1248,
			"byteOffset":30200,
			"target":34962
		},
		{
			"buffer":0,
			"byteLength":832,
			"byteOffset":31448,
			"target":34962
		},
		{
			"buffer":0,
			"byteLength":456,
			"byteOffset":32280,
			"target":34963
		},
		{
			"buffer":0,
			"byteLength":288,
			"byteOffset":32736,
			"target":34962
		},
		{
			"buffer":0,
			"byteLength":288,
			"byteOffset":33024,
			"target":34962
		},
		{
			"buffer":0,
			"byteLength":192,
			"byteOffset":33312,
			"target":34962
		},
		{
			"buffer":0,
			"byteLength":72,
			"byteOffset":33504,
			"target":34963
		},
		{
			"buffer":0,
			"byteLength":288,
			"byteOffset":33576,
			"target":34962
		},
		{
			"buffer":0,
			"byteLength":288,
			"byteOffset":33864,
			"target":34962
		},
		{
			"buffer":0,
			"byteLength":192,
			"byteOffset":34152,
			"target":34962
		}
	],
	"buffers":[
		{
			"byteLength":34344,
			"uri":"Cubunglb.bin"
		}
	]
}
