{
	"asset":{
		"generator":"Khronos glTF Blender I/O v5.1.19",
		"version":"2.0"
	},
	"scene":0,
	"scenes":[
		{
			"name":"Scene",
			"nodes":[
				0,
				1,
				2,
				3,
				4,
				5,
				6,
				7,
				8,
				9,
				10
			]
		}
	],
	"nodes":[
		{
			"mesh":0,
			"name":"\u62dd\u5553",
			"rotation":[
				0,
				0,
				-0.7071068286895752,
				0.7071068286895752
			],
			"scale":[
				9.79226016998291,
				1,
				19.74801254272461
			],
			"translation":[
				-1.7954916954040527,
				9.70560073852539,
				0
			]
		},
		{
			"mesh":1,
			"name":"\u5c4b\u6839",
			"scale":[
				2.659996747970581,
				1,
				1.3358064889907837
			],
			"translation":[
				-0.7983774542808533,
				0,
				18.644418716430664
			]
		},
		{
			"mesh":2,
			"name":"\u5e8a",
			"scale":[
				1.8808931112289429,
				1,
				4.072722434997559
			],
			"translation":[
				0,
				-0.3570054769515991,
				0
			]
		},
		{
			"mesh":3,
			"name":"\u7acb\u65b9\u4f53",
			"translation":[
				-3.4379944801330566,
				-0.3572789430618286,
				-94.81998443603516
			]
		},
		{
			"mesh":4,
			"name":"\u5e8a.001",
			"scale":[
				1.8808931112289429,
				1,
				4.072722434997559
			],
			"translation":[
				0,
				-0.35339730978012085,
				-134.43646240234375
			]
		},
		{
			"mesh":5,
			"name":"\u7acb\u65b9\u4f53.001",
			"translation":[
				0,
				3.4895575046539307,
				-194.02487182617188
			]
		},
		{
			"mesh":6,
			"name":"\u7acb\u65b9\u4f53.002",
			"translation":[
				-19.357131958007812,
				3.1066017150878906,
				-183.25640869140625
			]
		},
		{
			"mesh":7,
			"name":"\u7acb\u65b9\u4f53.003",
			"translation":[
				-4.770328998565674,
				12.081255912780762,
				-200.0970001220703
			]
		},
		{
			"mesh":8,
			"name":"COL_Floor",
			"translation":[
				0,
				0.6653268933296204,
				16.32452392578125
			]
		},
		{
			"mesh":9,
			"name":"COL_Front",
			"rotation":[
				0,
				0,
				0.7071068286895752,
				0.7071068286895752
			],
			"translation":[
				1.8105111122131348,
				2.3187031745910645,
				0
			]
		},
		{
			"mesh":10,
			"name":"COL_Wall",
			"rotation":[
				0,
				0,
				-0.7071068286895752,
				0.7071068286895752
			],
			"translation":[
				-1.7719368934631348,
				1.604828119277954,
				16.388343811035156
			]
		}
	],
	"materials":[
		{
			"doubleSided":true,
			"name":"\u30de\u30c6\u30ea\u30a2\u30eb.001",
			"pbrMetallicRoughness":{
				"baseColorFactor":[
					0,
					0.00016115540347527713,
					0.8000074625015259,
					1
				],
				"metallicFactor":0,
				"roughnessFactor":0.5
			}
		},
		{
			"doubleSided":true,
			"name":"\u30de\u30c6\u30ea\u30a2\u30eb.002",
			"pbrMetallicRoughness":{
				"baseColorFactor":[
					0.04278349503874779,
					0.8000074625015259,
					0,
					1
				],
				"metallicFactor":0,
				"roughnessFactor":0.5
			}
		},
		{
			"doubleSided":true,
			"name":"\u30de\u30c6\u30ea\u30a2\u30eb.006",
			"pbrMetallicRoughness":{
				"baseColorFactor":[
					0.035172682255506516,
					0,
					0.8000074625015259,
					1
				],
				"metallicFactor":0,
				"roughnessFactor":0.5
			}
		},
		{
			"doubleSided":true,
			"name":"\u30de\u30c6\u30ea\u30a2\u30eb",
			"pbrMetallicRoughness":{
				"baseColorFactor":[
					0.8000074625015259,
					0.004625061061233282,
					0,
					1
				],
				"metallicFactor":0,
				"roughnessFactor":0.5
			}
		},
		{
			"doubleSided":true,
			"name":"\u30de\u30c6\u30ea\u30a2\u30eb.005"
		}
	],
	"meshes":[
		{
			"name":"\u5e73\u9762.001",
			"primitives":[
				{
					"attributes":{
						"POSITION":0,
						"NORMAL":1,
						"TEXCOORD_0":2
					},
					"indices":3,
					"material":0
				}
			]
		},
		{
			"name":"\u7acb\u65b9\u4f53",
			"primitives":[
				{
					"attributes":{
						"POSITION":4,
						"NORMAL":5,
						"TEXCOORD_0":6
					},
					"indices":7
				}
			]
		},
		{
			"name":"\u7acb\u65b9\u4f53.001",
			"primitives":[
				{
					"attributes":{
						"POSITION":8,
						"NORMAL":9,
						"TEXCOORD_0":10
					},
					"indices":11,
					"material":1
				}
			]
		},
		{
			"name":"\u7acb\u65b9\u4f53.002",
			"primitives":[
				{
					"attributes":{
						"POSITION":12,
						"NORMAL":13,
						"TEXCOORD_0":14
					},
					"indices":15
				}
			]
		},
		{
			"name":"\u7acb\u65b9\u4f53.003",
			"primitives":[
				{
					"attributes":{
						"POSITION":16,
						"NORMAL":17,
						"TEXCOORD_0":18
					},
					"indices":19
				}
			]
		},
		{
			"name":"\u7acb\u65b9\u4f53.005",
			"primitives":[
				{
					"attributes":{
						"POSITION":20,
						"NORMAL":21,
						"TEXCOORD_0":22
					},
					"indices":23
				}
			]
		},
		{
			"name":"\u7acb\u65b9\u4f53.006",
			"primitives":[
				{
					"attributes":{
						"POSITION":24,
						"NORMAL":25,
						"TEXCOORD_0":26
					},
					"indices":27,
					"material":2
				}
			]
		},
		{
			"name":"\u7acb\u65b9\u4f53.007",
			"primitives":[
				{
					"attributes":{
						"POSITION":28,
						"NORMAL":29,
						"TEXCOORD_0":30
					},
					"indices":31
				}
			]
		},
		{
			"name":"\u5e73\u9762",
			"primitives":[
				{
					"attributes":{
						"POSITION":32,
						"NORMAL":33,
						"TEXCOORD_0":34
					},
					"indices":35,
					"material":3
				}
			]
		},
		{
			"name":"\u5e73\u9762.003",
			"primitives":[
				{
					"attributes":{
						"POSITION":36,
						"NORMAL":37,
						"TEXCOORD_0":38
					},
					"indices":39,
					"material":4
				}
			]
		},
		{
			"name":"\u5e73\u9762.005",
			"primitives":[
				{
					"attributes":{
						"POSITION":40,
						"NORMAL":41,
						"TEXCOORD_0":42
					},
					"indices":43
				}
			]
		}
	],
	"accessors":[
		{
			"bufferView":0,
			"componentType":5126,
			"count":230,
			"max":[
				3.8115947246551514,
				0,
				1
			],
			"min":[
				-1.6027175188064575,
				-20.346546173095703,
				-9.19095230102539
			],
			"type":"VEC3"
		},
		{
			"bufferView":1,
			"componentType":5126,
			"count":230,
			"type":"VEC3"
		},
		{
			"bufferView":2,
			"componentType":5126,
			"count":230,
			"type":"VEC2"
		},
		{
			"bufferView":3,
			"componentType":5123,
			"count":450,
			"type":"SCALAR"
		},
		{
			"bufferView":4,
			"componentType":5126,
			"count":2837,
			"max":[
				1,
				103.88272094726562,
				1
			],
			"min":[
				-8.47482681274414,
				-3.458981513977051,
				-209.36846923828125
			],
			"type":"VEC3"
		},
		{
			"bufferView":5,
			"componentType":5126,
			"count":2837,
			"type":"VEC3"
		},
		{
			"bufferView":6,
			"componentType":5126,
			"count":2837,
			"type":"VEC2"
		},
		{
			"bufferView":7,
			"componentType":5123,
			"count":7842,
			"type":"SCALAR"
		},
		{
			"bufferView":8,
			"componentType":5126,
			"count":125,
			"max":[
				1,
				2.3847076892852783,
				4.773071765899658
			],
			"min":[
				-10.891039848327637,
				-37.67777633666992,
				-23.05419158935547
			],
			"type":"VEC3"
		},
		{
			"bufferView":9,
			"componentType":5126,
			"count":125,
			"type":"VEC3"
		},
		{
			"bufferView":10,
			"componentType":5126,
			"count":125,
			"type":"VEC2"
		},
		{
			"bufferView":11,
			"componentType":5123,
			"count":228,
			"type":"SCALAR"
		},
		{
			"bufferView":12,
			"componentType":5126,
			"count":96,
			"max":[
				3.0327277183532715,
				21.89828109741211,
				1
			],
			"min":[
				-8.533873558044434,
				-25.261688232421875,
				-28.068397521972656
			],
			"type":"VEC3"
		},
		{
			"bufferView":13,
			"componentType":5126,
			"count":96,
			"type":"VEC3"
		},
		{
			"bufferView":14,
			"componentType":5126,
			"count":96,
			"type":"VEC2"
		},
		{
			"bufferView":15,
			"componentType":5123,
			"count":168,
			"type":"SCALAR"
		},
		{
			"bufferView":16,
			"componentType":5126,
			"count":128,
			"max":[
				0.9995023608207703,
				3.3188719749450684,
				2.839738130569458
			],
			"min":[
				-9.776192665100098,
				-39.86868667602539,
				-17.409698486328125
			],
			"type":"VEC3"
		},
		{
			"bufferView":17,
			"componentType":5126,
			"count":128,
			"type":"VEC3"
		},
		{
			"bufferView":18,
			"componentType":5126,
			"count":128,
			"type":"VEC2"
		},
		{
			"bufferView":19,
			"componentType":5123,
			"count":312,
			"type":"SCALAR"
		},
		{
			"bufferView":20,
			"componentType":5126,
			"count":982,
			"max":[
				2.4334428310394287,
				16.127521514892578,
				9.801490783691406
			],
			"min":[
				-21.652252197265625,
				-41.30325698852539,
				-327.92041015625
			],
			"type":"VEC3"
		},
		{
			"bufferView":21,
			"componentType":5126,
			"count":982,
			"type":"VEC3"
		},
		{
			"bufferView":22,
			"componentType":5126,
			"count":982,
			"type":"VEC2"
		},
		{
			"bufferView":23,
			"componentType":5123,
			"count":1920,
			"type":"SCALAR"
		},
		{
			"bufferView":24,
			"componentType":5126,
			"count":170,
			"max":[
				15.599992752075195,
				99.85629272460938,
				1
			],
			"min":[
				-113.50309753417969,
				-14.802003860473633,
				-77.76387786865234
			],
			"type":"VEC3"
		},
		{
			"bufferView":25,
			"componentType":5126,
			"count":170,
			"type":"VEC3"
		},
		{
			"bufferView":26,
			"componentType":5126,
			"count":170,
			"type":"VEC2"
		},
		{
			"bufferView":27,
			"componentType":5123,
			"count":360,
			"type":"SCALAR"
		},
		{
			"bufferView":28,
			"componentType":5126,
			"count":34,
			"max":[
				2.975797176361084,
				7.368162631988525,
				1
			],
			"min":[
				-14.389289855957031,
				-1,
				-1
			],
			"type":"VEC3"
		},
		{
			"bufferView":29,
			"componentType":5126,
			"count":34,
			"type":"VEC3"
		},
		{
			"bufferView":30,
			"componentType":5126,
			"count":34,
			"type":"VEC2"
		},
		{
			"bufferView":31,
			"componentType":5123,
			"count":60,
			"type":"SCALAR"
		},
		{
			"bufferView":32,
			"componentType":5126,
			"count":266,
			"max":[
				2.8991217613220215,
				18.21582794189453,
				1
			],
			"min":[
				-45.32550811767578,
				-1.3319880962371826,
				-538.4332275390625
			],
			"type":"VEC3"
		},
		{
			"bufferView":33,
			"componentType":5126,
			"count":266,
			"type":"VEC3"
		},
		{
			"bufferView":34,
			"componentType":5126,
			"count":266,
			"type":"VEC2"
		},
		{
			"bufferView":35,
			"componentType":5123,
			"count":558,
			"type":"SCALAR"
		},
		{
			"bufferView":36,
			"componentType":5126,
			"count":6,
			"max":[
				43.08518600463867,
				3.1773431601322955e-06,
				19.7457332611084
			],
			"min":[
				-38.483089447021484,
				-2.8298943561821943e-06,
				-261.0292053222656
			],
			"type":"VEC3"
		},
		{
			"bufferView":37,
			"componentType":5126,
			"count":6,
			"type":"VEC3"
		},
		{
			"bufferView":38,
			"componentType":5126,
			"count":6,
			"type":"VEC2"
		},
		{
			"bufferView":39,
			"componentType":5123,
			"count":12,
			"type":"SCALAR"
		},
		{
			"bufferView":40,
			"componentType":5126,
			"count":421,
			"max":[
				44.678863525390625,
				3.845977783203125,
				0.8301966786384583
			],
			"min":[
				-25.33884048461914,
				-37.9072380065918,
				-277.41705322265625
			],
			"type":"VEC3"
		},
		{
			"bufferView":41,
			"componentType":5126,
			"count":421,
			"type":"VEC3"
		},
		{
			"bufferView":42,
			"componentType":5126,
			"count":421,
			"type":"VEC2"
		},
		{
			"bufferView":43,
			"componentType":5123,
			"count":906,
			"type":"SCALAR"
		}
	],
	"bufferViews":[
		{
			"buffer":0,
			"byteLength":2760,
			"byteOffset":0,
			"target":34962
		},
		{
			"buffer":0,
			"byteLength":2760,
			"byteOffset":2760,
			"target":34962
		},
		{
			"buffer":0,
			"byteLength":1840,
			"byteOffset":5520,
			"target":34962
		},
		{
			"buffer":0,
			"byteLength":900,
			"byteOffset":7360,
			"target":34963
		},
		{
			"buffer":0,
			"byteLength":34044,
			"byteOffset":8260,
			"target":34962
		},
		{
			"buffer":0,
			"byteLength":34044,
			"byteOffset":42304,
			"target":34962
		},
		{
			"buffer":0,
			"byteLength":22696,
			"byteOffset":76348,
			"target":34962
		},
		{
			"buffer":0,
			"byteLength":15684,
			"byteOffset":99044,
			"target":34963
		},
		{
			"buffer":0,
			"byteLength":1500,
			"byteOffset":114728,
			"target":34962
		},
		{
			"buffer":0,
			"byteLength":1500,
			"byteOffset":116228,
			"target":34962
		},
		{
			"buffer":0,
			"byteLength":1000,
			"byteOffset":117728,
			"target":34962
		},
		{
			"buffer":0,
			"byteLength":456,
			"byteOffset":118728,
			"target":34963
		},
		{
			"buffer":0,
			"byteLength":1152,
			"byteOffset":119184,
			"target":34962
		},
		{
			"buffer":0,
			"byteLength":1152,
			"byteOffset":120336,
			"target":34962
		},
		{
			"buffer":0,
			"byteLength":768,
			"byteOffset":121488,
			"target":34962
		},
		{
			"buffer":0,
			"byteLength":336,
			"byteOffset":122256,
			"target":34963
		},
		{
			"buffer":0,
			"byteLength":1536,
			"byteOffset":122592,
			"target":34962
		},
		{
			"buffer":0,
			"byteLength":1536,
			"byteOffset":124128,
			"target":34962
		},
		{
			"buffer":0,
			"byteLength":1024,
			"byteOffset":125664,
			"target":34962
		},
		{
			"buffer":0,
			"byteLength":624,
			"byteOffset":126688,
			"target":34963
		},
		{
			"buffer":0,
			"byteLength":11784,
			"byteOffset":127312,
			"target":34962
		},
		{
			"buffer":0,
			"byteLength":11784,
			"byteOffset":139096,
			"target":34962
		},
		{
			"buffer":0,
			"byteLength":7856,
			"byteOffset":150880,
			"target":34962
		},
		{
			"buffer":0,
			"byteLength":3840,
			"byteOffset":158736,
			"target":34963
		},
		{
			"buffer":0,
			"byteLength":2040,
			"byteOffset":162576,
			"target":34962
		},
		{
			"buffer":0,
			"byteLength":2040,
			"byteOffset":164616,
			"target":34962
		},
		{
			"buffer":0,
			"byteLength":1360,
			"byteOffset":166656,
			"target":34962
		},
		{
			"buffer":0,
			"byteLength":720,
			"byteOffset":168016,
			"target":34963
		},
		{
			"buffer":0,
			"byteLength":408,
			"byteOffset":168736,
			"target":34962
		},
		{
			"buffer":0,
			"byteLength":408,
			"byteOffset":169144,
			"target":34962
		},
		{
			"buffer":0,
			"byteLength":272,
			"byteOffset":169552,
			"target":34962
		},
		{
			"buffer":0,
			"byteLength":120,
			"byteOffset":169824,
			"target":34963
		},
		{
			"buffer":0,
			"byteLength":3192,
			"byteOffset":169944,
			"target":34962
		},
		{
			"buffer":0,
			"byteLength":3192,
			"byteOffset":173136,
			"target":34962
		},
		{
			"buffer":0,
			"byteLength":2128,
			"byteOffset":176328,
			"target":34962
		},
		{
			"buffer":0,
			"byteLength":1116,
			"byteOffset":178456,
			"target":34963
		},
		{
			"buffer":0,
			"byteLength":72,
			"byteOffset":179572,
			"target":34962
		},
		{
			"buffer":0,
			"byteLength":72,
			"byteOffset":179644,
			"target":34962
		},
		{
			"buffer":0,
			"byteLength":48,
			"byteOffset":179716,
			"target":34962
		},
		{
			"buffer":0,
			"byteLength":24,
			"byteOffset":179764,
			"target":34963
		},
		{
			"buffer":0,
			"byteLength":5052,
			"byteOffset":179788,
			"target":34962
		},
		{
			"buffer":0,
			"byteLength":5052,
			"byteOffset":184840,
			"target":34962
		},
		{
			"buffer":0,
			"byteLength":3368,
			"byteOffset":189892,
			"target":34962
		},
		{
			"buffer":0,
			"byteLength":1812,
			"byteOffset":193260,
			"target":34963
		}
	],
	"buffers":[
		{
			"byteLength":195072,
			"uri":"Map.bin"
		}
	]
}
