{
	"asset":{
		"generator":"Khronos glTF Blender I/O v5.1.19",
		"version":"2.0"
	},
	"scene":0,
	"scenes":[
		{
			"name":"Scene",
			"nodes":[
				0,
				1
			]
		}
	],
	"nodes":[
		{
			"mesh":0,
			"name":"\u5186\u67f1"
		},
		{
			"mesh":1,
			"name":"COL_Planet"
		}
	],
	"meshes":[
		{
			"name":"\u5186\u67f1",
			"primitives":[
				{
					"attributes":{
						"POSITION":0,
						"NORMAL":1,
						"TEXCOORD_0":2
					},
					"indices":3
				}
			]
		},
		{
			"name":"\u5186\u67f1.001",
			"primitives":[
				{
					"attributes":{
						"POSITION":4,
						"NORMAL":5,
						"TEXCOORD_0":6
					},
					"indices":3
				}
			]
		}
	],
	"accessors":[
		{
			"bufferView":0,
			"componentType":5126,
			"count":1294,
			"max":[
				0.9999999403953552,
				1.0000017881393433,
				1.4772199392318726
			],
			"min":[
				-0.9999999403953552,
				-1,
				-0.47160452604293823
			],
			"type":"VEC3"
		},
		{
			"bufferView":1,
			"componentType":5126,
			"count":1294,
			"type":"VEC3"
		},
		{
			"bufferView":2,
			"componentType":5126,
			"count":1294,
			"type":"VEC2"
		},
		{
			"bufferView":3,
			"componentType":5123,
			"count":2004,
			"type":"SCALAR"
		},
		{
			"bufferView":4,
			"componentType":5126,
			"count":1294,
			"max":[
				0.9999999403953552,
				1.0000017881393433,
				1.4772199392318726
			],
			"min":[
				-0.9999999403953552,
				-1,
				-0.47160452604293823
			],
			"type":"VEC3"
		},
		{
			"bufferView":5,
			"componentType":5126,
			"count":1294,
			"type":"VEC3"
		},
		{
			"bufferView":6,
			"componentType":5126,
			"count":1294,
			"type":"VEC2"
		}
	],
	"bufferViews":[
		{
			"buffer":0,
			"byteLength":15528,
			"byteOffset":0,
			"target":34962
		},
		{
			"buffer":0,
			"byteLength":15528,
			"byteOffset":15528,
			"target":34962
		},
		{
			"buffer":0,
			"byteLength":10352,
			"byteOffset":31056,
			"target":34962
		},
		{
			"buffer":0,
			"byteLength":4008,
			"byteOffset":41408,
			"target":34963
		},
		{
			"buffer":0,
			"byteLength":15528,
			"byteOffset":45416,
			"target":34962
		},
		{
			"buffer":0,
			"byteLength":15528,
			"byteOffset":60944,
			"target":34962
		},
		{
			"buffer":0,
			"byteLength":10352,
			"byteOffset":76472,
			"target":34962
		}
	],
	"buffers":[
		{
			"byteLength":86824,
			"uri":"Planet.bin"
		}
	]
}
