{
	"asset":{
		"generator":"Khronos glTF Blender I/O v5.1.19",
		"version":"2.0"
	},
	"scene":0,
	"scenes":[
		{
			"name":"Scene",
			"nodes":[
				13
			]
		}
	],
	"nodes":[
		{
			"name":"arm.R",
			"translation":[
				0,
				1.0110567808151245,
				0
			]
		},
		{
			"children":[
				0
			],
			"name":"shoulder.R",
			"rotation":[
				-2.6692537957728746e-08,
				2.6692537957728746e-08,
				0.7071067690849304,
				0.7071067690849304
			],
			"translation":[
				-1.1493085622787476,
				1.1633820533752441,
				0
			]
		},
		{
			"name":"Head",
			"rotation":[
				0,
				1.1920927533992653e-07,
				0,
				1
			],
			"scale":[
				1,
				0.9999999403953552,
				1
			],
			"translation":[
				0,
				1.6084575653076172,
				0
			]
		},
		{
			"name":"arm.L",
			"translation":[
				0,
				1.0110567808151245,
				0
			]
		},
		{
			"children":[
				3
			],
			"name":"shoulder.L",
			"rotation":[
				-2.6692537957728746e-08,
				-2.6692537957728746e-08,
				-0.7071067690849304,
				0.7071067690849304
			],
			"translation":[
				1.1493085622787476,
				1.1633820533752441,
				0
			]
		},
		{
			"name":"Body.001",
			"translation":[
				0,
				-0.29788100719451904,
				1.3188180923461914
			]
		},
		{
			"name":"Body.003",
			"rotation":[
				1.2883624833648355e-08,
				-2.625820449964067e-08,
				0.4404867887496948,
				0.8977590799331665
			],
			"scale":[
				1,
				0.9999999403953552,
				1
			],
			"translation":[
				0.37571319937705994,
				0.6599326133728027,
				1.480991005897522
			]
		},
		{
			"children":[
				1,
				2,
				4,
				5,
				6
			],
			"name":"Body"
		},
		{
			"name":"Leg.R",
			"rotation":[
				1,
				0,
				0,
				0
			],
			"translation":[
				-0.4957800507545471,
				-0.749303936958313,
				0
			]
		},
		{
			"name":"Leg.L",
			"rotation":[
				1,
				0,
				0,
				0
			],
			"translation":[
				0.4957800507545471,
				-0.749303936958313,
				0
			]
		},
		{
			"mesh":0,
			"name":"\u7acb\u65b9\u4f53",
			"skin":0
		},
		{
			"mesh":1,
			"name":"\u7acb\u65b9\u4f53.001",
			"skin":0
		},
		{
			"mesh":2,
			"name":"\u7acb\u65b9\u4f53.002",
			"skin":0
		},
		{
			"children":[
				10,
				11,
				12,
				7,
				8,
				9
			],
			"name":"konnitiha",
			"translation":[
				0,
				2.0631251335144043,
				0
			]
		}
	],
	"animations":[
		{
			"channels":[
				{
					"sampler":0,
					"target":{
						"node":7,
						"path":"translation"
					}
				},
				{
					"sampler":1,
					"target":{
						"node":7,
						"path":"rotation"
					}
				},
				{
					"sampler":2,
					"target":{
						"node":7,
						"path":"scale"
					}
				},
				{
					"sampler":3,
					"target":{
						"node":1,
						"path":"translation"
					}
				},
				{
					"sampler":4,
					"target":{
						"node":1,
						"path":"rotation"
					}
				},
				{
					"sampler":5,
					"target":{
						"node":1,
						"path":"scale"
					}
				},
				{
					"sampler":6,
					"target":{
						"node":0,
						"path":"translation"
					}
				},
				{
					"sampler":7,
					"target":{
						"node":0,
						"path":"rotation"
					}
				},
				{
					"sampler":8,
					"target":{
						"node":0,
						"path":"scale"
					}
				},
				{
					"sampler":9,
					"target":{
						"node":2,
						"path":"translation"
					}
				},
				{
					"sampler":10,
					"target":{
						"node":2,
						"path":"rotation"
					}
				},
				{
					"sampler":11,
					"target":{
						"node":2,
						"path":"scale"
					}
				},
				{
					"sampler":12,
					"target":{
						"node":4,
						"path":"translation"
					}
				},
				{
					"sampler":13,
					"target":{
						"node":4,
						"path":"rotation"
					}
				},
				{
					"sampler":14,
					"target":{
						"node":4,
						"path":"scale"
					}
				},
				{
					"sampler":15,
					"target":{
						"node":3,
						"path":"translation"
					}
				},
				{
					"sampler":16,
					"target":{
						"node":3,
						"path":"rotation"
					}
				},
				{
					"sampler":17,
					"target":{
						"node":3,
						"path":"scale"
					}
				},
				{
					"sampler":18,
					"target":{
						"node":5,
						"path":"translation"
					}
				},
				{
					"sampler":19,
					"target":{
						"node":5,
						"path":"rotation"
					}
				},
				{
					"sampler":20,
					"target":{
						"node":5,
						"path":"scale"
					}
				},
				{
					"sampler":21,
					"target":{
						"node":6,
						"path":"translation"
					}
				},
				{
					"sampler":22,
					"target":{
						"node":6,
						"path":"rotation"
					}
				},
				{
					"sampler":23,
					"target":{
						"node":6,
						"path":"scale"
					}
				},
				{
					"sampler":24,
					"target":{
						"node":8,
						"path":"translation"
					}
				},
				{
					"sampler":25,
					"target":{
						"node":8,
						"path":"rotation"
					}
				},
				{
					"sampler":26,
					"target":{
						"node":8,
						"path":"scale"
					}
				},
				{
					"sampler":27,
					"target":{
						"node":9,
						"path":"translation"
					}
				},
				{
					"sampler":28,
					"target":{
						"node":9,
						"path":"rotation"
					}
				},
				{
					"sampler":29,
					"target":{
						"node":9,
						"path":"scale"
					}
				}
			],
			"name":"Armature|mixamo.com|Layer0",
			"samplers":[
				{
					"input":19,
					"interpolation":"STEP",
					"output":20
				},
				{
					"input":19,
					"interpolation":"STEP",
					"output":21
				},
				{
					"input":19,
					"interpolation":"STEP",
					"output":22
				},
				{
					"input":19,
					"interpolation":"STEP",
					"output":23
				},
				{
					"input":19,
					"interpolation":"STEP",
					"output":24
				},
				{
					"input":19,
					"interpolation":"STEP",
					"output":22
				},
				{
					"input":19,
					"interpolation":"STEP",
					"output":25
				},
				{
					"input":19,
					"interpolation":"STEP",
					"output":21
				},
				{
					"input":19,
					"interpolation":"STEP",
					"output":22
				},
				{
					"input":19,
					"interpolation":"STEP",
					"output":26
				},
				{
					"input":19,
					"interpolation":"STEP",
					"output":27
				},
				{
					"input":19,
					"interpolation":"STEP",
					"output":28
				},
				{
					"input":19,
					"interpolation":"STEP",
					"output":29
				},
				{
					"input":19,
					"interpolation":"STEP",
					"output":30
				},
				{
					"input":19,
					"interpolation":"STEP",
					"output":22
				},
				{
					"input":19,
					"interpolation":"STEP",
					"output":25
				},
				{
					"input":19,
					"interpolation":"STEP",
					"output":21
				},
				{
					"input":19,
					"interpolation":"STEP",
					"output":22
				},
				{
					"input":19,
					"interpolation":"STEP",
					"output":31
				},
				{
					"input":19,
					"interpolation":"STEP",
					"output":21
				},
				{
					"input":19,
					"interpolation":"STEP",
					"output":22
				},
				{
					"input":19,
					"interpolation":"STEP",
					"output":32
				},
				{
					"input":19,
					"interpolation":"STEP",
					"output":33
				},
				{
					"input":19,
					"interpolation":"STEP",
					"output":34
				},
				{
					"input":19,
					"interpolation":"STEP",
					"output":35
				},
				{
					"input":19,
					"interpolation":"STEP",
					"output":36
				},
				{
					"input":19,
					"interpolation":"STEP",
					"output":22
				},
				{
					"input":19,
					"interpolation":"STEP",
					"output":37
				},
				{
					"input":19,
					"interpolation":"STEP",
					"output":36
				},
				{
					"input":19,
					"interpolation":"STEP",
					"output":22
				}
			]
		},
		{
			"channels":[
				{
					"sampler":0,
					"target":{
						"node":7,
						"path":"translation"
					}
				},
				{
					"sampler":1,
					"target":{
						"node":7,
						"path":"rotation"
					}
				},
				{
					"sampler":2,
					"target":{
						"node":7,
						"path":"scale"
					}
				},
				{
					"sampler":3,
					"target":{
						"node":1,
						"path":"translation"
					}
				},
				{
					"sampler":4,
					"target":{
						"node":1,
						"path":"rotation"
					}
				},
				{
					"sampler":5,
					"target":{
						"node":1,
						"path":"scale"
					}
				},
				{
					"sampler":6,
					"target":{
						"node":0,
						"path":"translation"
					}
				},
				{
					"sampler":7,
					"target":{
						"node":0,
						"path":"rotation"
					}
				},
				{
					"sampler":8,
					"target":{
						"node":0,
						"path":"scale"
					}
				},
				{
					"sampler":9,
					"target":{
						"node":2,
						"path":"translation"
					}
				},
				{
					"sampler":10,
					"target":{
						"node":2,
						"path":"rotation"
					}
				},
				{
					"sampler":11,
					"target":{
						"node":2,
						"path":"scale"
					}
				},
				{
					"sampler":12,
					"target":{
						"node":4,
						"path":"translation"
					}
				},
				{
					"sampler":13,
					"target":{
						"node":4,
						"path":"rotation"
					}
				},
				{
					"sampler":14,
					"target":{
						"node":4,
						"path":"scale"
					}
				},
				{
					"sampler":15,
					"target":{
						"node":3,
						"path":"translation"
					}
				},
				{
					"sampler":16,
					"target":{
						"node":3,
						"path":"rotation"
					}
				},
				{
					"sampler":17,
					"target":{
						"node":3,
						"path":"scale"
					}
				},
				{
					"sampler":18,
					"target":{
						"node":5,
						"path":"translation"
					}
				},
				{
					"sampler":19,
					"target":{
						"node":5,
						"path":"rotation"
					}
				},
				{
					"sampler":20,
					"target":{
						"node":5,
						"path":"scale"
					}
				},
				{
					"sampler":21,
					"target":{
						"node":6,
						"path":"translation"
					}
				},
				{
					"sampler":22,
					"target":{
						"node":6,
						"path":"rotation"
					}
				},
				{
					"sampler":23,
					"target":{
						"node":6,
						"path":"scale"
					}
				},
				{
					"sampler":24,
					"target":{
						"node":8,
						"path":"translation"
					}
				},
				{
					"sampler":25,
					"target":{
						"node":8,
						"path":"rotation"
					}
				},
				{
					"sampler":26,
					"target":{
						"node":8,
						"path":"scale"
					}
				},
				{
					"sampler":27,
					"target":{
						"node":9,
						"path":"translation"
					}
				},
				{
					"sampler":28,
					"target":{
						"node":9,
						"path":"rotation"
					}
				},
				{
					"sampler":29,
					"target":{
						"node":9,
						"path":"scale"
					}
				}
			],
			"name":"Attack_Sowrd",
			"samplers":[
				{
					"input":38,
					"interpolation":"STEP",
					"output":39
				},
				{
					"input":40,
					"interpolation":"LINEAR",
					"output":41
				},
				{
					"input":38,
					"interpolation":"STEP",
					"output":42
				},
				{
					"input":38,
					"interpolation":"STEP",
					"output":43
				},
				{
					"input":40,
					"interpolation":"LINEAR",
					"output":44
				},
				{
					"input":38,
					"interpolation":"STEP",
					"output":45
				},
				{
					"input":38,
					"interpolation":"STEP",
					"output":46
				},
				{
					"input":38,
					"interpolation":"LINEAR",
					"output":47
				},
				{
					"input":38,
					"interpolation":"STEP",
					"output":48
				},
				{
					"input":38,
					"interpolation":"STEP",
					"output":26
				},
				{
					"input":38,
					"interpolation":"LINEAR",
					"output":49
				},
				{
					"input":38,
					"interpolation":"STEP",
					"output":28
				},
				{
					"input":38,
					"interpolation":"STEP",
					"output":50
				},
				{
					"input":40,
					"interpolation":"LINEAR",
					"output":51
				},
				{
					"input":38,
					"interpolation":"STEP",
					"output":52
				},
				{
					"input":38,
					"interpolation":"STEP",
					"output":53
				},
				{
					"input":38,
					"interpolation":"LINEAR",
					"output":54
				},
				{
					"input":38,
					"interpolation":"STEP",
					"output":55
				},
				{
					"input":38,
					"interpolation":"STEP",
					"output":56
				},
				{
					"input":38,
					"interpolation":"STEP",
					"output":21
				},
				{
					"input":38,
					"interpolation":"STEP",
					"output":22
				},
				{
					"input":38,
					"interpolation":"STEP",
					"output":57
				},
				{
					"input":38,
					"interpolation":"STEP",
					"output":58
				},
				{
					"input":38,
					"interpolation":"STEP",
					"output":59
				},
				{
					"input":38,
					"interpolation":"STEP",
					"output":35
				},
				{
					"input":40,
					"interpolation":"LINEAR",
					"output":60
				},
				{
					"input":38,
					"interpolation":"STEP",
					"output":22
				},
				{
					"input":38,
					"interpolation":"STEP",
					"output":37
				},
				{
					"input":40,
					"interpolation":"LINEAR",
					"output":61
				},
				{
					"input":38,
					"interpolation":"STEP",
					"output":22
				}
			]
		},
		{
			"channels":[
				{
					"sampler":0,
					"target":{
						"node":7,
						"path":"translation"
					}
				},
				{
					"sampler":1,
					"target":{
						"node":7,
						"path":"rotation"
					}
				},
				{
					"sampler":2,
					"target":{
						"node":7,
						"path":"scale"
					}
				},
				{
					"sampler":3,
					"target":{
						"node":1,
						"path":"translation"
					}
				},
				{
					"sampler":4,
					"target":{
						"node":1,
						"path":"rotation"
					}
				},
				{
					"sampler":5,
					"target":{
						"node":1,
						"path":"scale"
					}
				},
				{
					"sampler":6,
					"target":{
						"node":0,
						"path":"translation"
					}
				},
				{
					"sampler":7,
					"target":{
						"node":0,
						"path":"rotation"
					}
				},
				{
					"sampler":8,
					"target":{
						"node":0,
						"path":"scale"
					}
				},
				{
					"sampler":9,
					"target":{
						"node":2,
						"path":"translation"
					}
				},
				{
					"sampler":10,
					"target":{
						"node":2,
						"path":"rotation"
					}
				},
				{
					"sampler":11,
					"target":{
						"node":2,
						"path":"scale"
					}
				},
				{
					"sampler":12,
					"target":{
						"node":4,
						"path":"translation"
					}
				},
				{
					"sampler":13,
					"target":{
						"node":4,
						"path":"rotation"
					}
				},
				{
					"sampler":14,
					"target":{
						"node":4,
						"path":"scale"
					}
				},
				{
					"sampler":15,
					"target":{
						"node":3,
						"path":"translation"
					}
				},
				{
					"sampler":16,
					"target":{
						"node":3,
						"path":"rotation"
					}
				},
				{
					"sampler":17,
					"target":{
						"node":3,
						"path":"scale"
					}
				},
				{
					"sampler":18,
					"target":{
						"node":5,
						"path":"translation"
					}
				},
				{
					"sampler":19,
					"target":{
						"node":5,
						"path":"rotation"
					}
				},
				{
					"sampler":20,
					"target":{
						"node":5,
						"path":"scale"
					}
				},
				{
					"sampler":21,
					"target":{
						"node":6,
						"path":"translation"
					}
				},
				{
					"sampler":22,
					"target":{
						"node":6,
						"path":"rotation"
					}
				},
				{
					"sampler":23,
					"target":{
						"node":6,
						"path":"scale"
					}
				},
				{
					"sampler":24,
					"target":{
						"node":8,
						"path":"translation"
					}
				},
				{
					"sampler":25,
					"target":{
						"node":8,
						"path":"rotation"
					}
				},
				{
					"sampler":26,
					"target":{
						"node":8,
						"path":"scale"
					}
				},
				{
					"sampler":27,
					"target":{
						"node":9,
						"path":"translation"
					}
				},
				{
					"sampler":28,
					"target":{
						"node":9,
						"path":"rotation"
					}
				},
				{
					"sampler":29,
					"target":{
						"node":9,
						"path":"scale"
					}
				}
			],
			"name":"Idle",
			"samplers":[
				{
					"input":62,
					"interpolation":"LINEAR",
					"output":63
				},
				{
					"input":64,
					"interpolation":"STEP",
					"output":21
				},
				{
					"input":64,
					"interpolation":"STEP",
					"output":22
				},
				{
					"input":62,
					"interpolation":"LINEAR",
					"output":65
				},
				{
					"input":64,
					"interpolation":"STEP",
					"output":66
				},
				{
					"input":64,
					"interpolation":"STEP",
					"output":67
				},
				{
					"input":64,
					"interpolation":"STEP",
					"output":68
				},
				{
					"input":64,
					"interpolation":"STEP",
					"output":69
				},
				{
					"input":64,
					"interpolation":"STEP",
					"output":22
				},
				{
					"input":64,
					"interpolation":"STEP",
					"output":26
				},
				{
					"input":64,
					"interpolation":"STEP",
					"output":27
				},
				{
					"input":64,
					"interpolation":"STEP",
					"output":28
				},
				{
					"input":62,
					"interpolation":"LINEAR",
					"output":70
				},
				{
					"input":64,
					"interpolation":"STEP",
					"output":71
				},
				{
					"input":64,
					"interpolation":"STEP",
					"output":67
				},
				{
					"input":64,
					"interpolation":"STEP",
					"output":72
				},
				{
					"input":64,
					"interpolation":"STEP",
					"output":73
				},
				{
					"input":64,
					"interpolation":"STEP",
					"output":22
				},
				{
					"input":64,
					"interpolation":"STEP",
					"output":74
				},
				{
					"input":64,
					"interpolation":"STEP",
					"output":75
				},
				{
					"input":64,
					"interpolation":"STEP",
					"output":22
				},
				{
					"input":64,
					"interpolation":"STEP",
					"output":32
				},
				{
					"input":64,
					"interpolation":"STEP",
					"output":33
				},
				{
					"input":64,
					"interpolation":"STEP",
					"output":34
				},
				{
					"input":64,
					"interpolation":"STEP",
					"output":35
				},
				{
					"input":64,
					"interpolation":"STEP",
					"output":36
				},
				{
					"input":64,
					"interpolation":"STEP",
					"output":22
				},
				{
					"input":64,
					"interpolation":"STEP",
					"output":37
				},
				{
					"input":64,
					"interpolation":"STEP",
					"output":36
				},
				{
					"input":64,
					"interpolation":"STEP",
					"output":22
				}
			]
		},
		{
			"channels":[
				{
					"sampler":0,
					"target":{
						"node":7,
						"path":"translation"
					}
				},
				{
					"sampler":1,
					"target":{
						"node":7,
						"path":"rotation"
					}
				},
				{
					"sampler":2,
					"target":{
						"node":7,
						"path":"scale"
					}
				},
				{
					"sampler":3,
					"target":{
						"node":1,
						"path":"translation"
					}
				},
				{
					"sampler":4,
					"target":{
						"node":1,
						"path":"rotation"
					}
				},
				{
					"sampler":5,
					"target":{
						"node":1,
						"path":"scale"
					}
				},
				{
					"sampler":6,
					"target":{
						"node":0,
						"path":"translation"
					}
				},
				{
					"sampler":7,
					"target":{
						"node":0,
						"path":"rotation"
					}
				},
				{
					"sampler":8,
					"target":{
						"node":0,
						"path":"scale"
					}
				},
				{
					"sampler":9,
					"target":{
						"node":2,
						"path":"translation"
					}
				},
				{
					"sampler":10,
					"target":{
						"node":2,
						"path":"rotation"
					}
				},
				{
					"sampler":11,
					"target":{
						"node":2,
						"path":"scale"
					}
				},
				{
					"sampler":12,
					"target":{
						"node":4,
						"path":"translation"
					}
				},
				{
					"sampler":13,
					"target":{
						"node":4,
						"path":"rotation"
					}
				},
				{
					"sampler":14,
					"target":{
						"node":4,
						"path":"scale"
					}
				},
				{
					"sampler":15,
					"target":{
						"node":3,
						"path":"translation"
					}
				},
				{
					"sampler":16,
					"target":{
						"node":3,
						"path":"rotation"
					}
				},
				{
					"sampler":17,
					"target":{
						"node":3,
						"path":"scale"
					}
				},
				{
					"sampler":18,
					"target":{
						"node":5,
						"path":"translation"
					}
				},
				{
					"sampler":19,
					"target":{
						"node":5,
						"path":"rotation"
					}
				},
				{
					"sampler":20,
					"target":{
						"node":5,
						"path":"scale"
					}
				},
				{
					"sampler":21,
					"target":{
						"node":6,
						"path":"translation"
					}
				},
				{
					"sampler":22,
					"target":{
						"node":6,
						"path":"rotation"
					}
				},
				{
					"sampler":23,
					"target":{
						"node":6,
						"path":"scale"
					}
				},
				{
					"sampler":24,
					"target":{
						"node":8,
						"path":"translation"
					}
				},
				{
					"sampler":25,
					"target":{
						"node":8,
						"path":"rotation"
					}
				},
				{
					"sampler":26,
					"target":{
						"node":8,
						"path":"scale"
					}
				},
				{
					"sampler":27,
					"target":{
						"node":9,
						"path":"translation"
					}
				},
				{
					"sampler":28,
					"target":{
						"node":9,
						"path":"rotation"
					}
				},
				{
					"sampler":29,
					"target":{
						"node":9,
						"path":"scale"
					}
				}
			],
			"name":"Walk",
			"samplers":[
				{
					"input":38,
					"interpolation":"STEP",
					"output":39
				},
				{
					"input":40,
					"interpolation":"LINEAR",
					"output":41
				},
				{
					"input":38,
					"interpolation":"STEP",
					"output":42
				},
				{
					"input":38,
					"interpolation":"STEP",
					"output":43
				},
				{
					"input":40,
					"interpolation":"LINEAR",
					"output":44
				},
				{
					"input":38,
					"interpolation":"STEP",
					"output":45
				},
				{
					"input":38,
					"interpolation":"STEP",
					"output":46
				},
				{
					"input":38,
					"interpolation":"LINEAR",
					"output":47
				},
				{
					"input":38,
					"interpolation":"STEP",
					"output":48
				},
				{
					"input":38,
					"interpolation":"STEP",
					"output":26
				},
				{
					"input":38,
					"interpolation":"LINEAR",
					"output":49
				},
				{
					"input":38,
					"interpolation":"STEP",
					"output":28
				},
				{
					"input":38,
					"interpolation":"STEP",
					"output":50
				},
				{
					"input":40,
					"interpolation":"LINEAR",
					"output":51
				},
				{
					"input":38,
					"interpolation":"STEP",
					"output":52
				},
				{
					"input":38,
					"interpolation":"STEP",
					"output":53
				},
				{
					"input":38,
					"interpolation":"LINEAR",
					"output":54
				},
				{
					"input":38,
					"interpolation":"STEP",
					"output":55
				},
				{
					"input":38,
					"interpolation":"LINEAR",
					"output":76
				},
				{
					"input":38,
					"interpolation":"STEP",
					"output":77
				},
				{
					"input":38,
					"interpolation":"STEP",
					"output":78
				},
				{
					"input":38,
					"interpolation":"STEP",
					"output":57
				},
				{
					"input":38,
					"interpolation":"STEP",
					"output":58
				},
				{
					"input":38,
					"interpolation":"STEP",
					"output":59
				},
				{
					"input":38,
					"interpolation":"STEP",
					"output":35
				},
				{
					"input":40,
					"interpolation":"LINEAR",
					"output":60
				},
				{
					"input":38,
					"interpolation":"STEP",
					"output":22
				},
				{
					"input":38,
					"interpolation":"STEP",
					"output":37
				},
				{
					"input":40,
					"interpolation":"LINEAR",
					"output":61
				},
				{
					"input":38,
					"interpolation":"STEP",
					"output":22
				}
			]
		}
	],
	"materials":[
		{
			"doubleSided":true,
			"name":"\u30de\u30c6\u30ea\u30a2\u30eb",
			"pbrMetallicRoughness":{
				"baseColorTexture":{
					"index":0
				},
				"metallicFactor":0,
				"roughnessFactor":0.5
			}
		}
	],
	"meshes":[
		{
			"name":"\u7acb\u65b9\u4f53",
			"primitives":[
				{
					"attributes":{
						"POSITION":0,
						"NORMAL":1,
						"TEXCOORD_0":2,
						"JOINTS_0":3,
						"WEIGHTS_0":4
					},
					"indices":5,
					"material":0
				}
			]
		},
		{
			"name":"\u7acb\u65b9\u4f53.001",
			"primitives":[
				{
					"attributes":{
						"POSITION":7,
						"NORMAL":8,
						"TEXCOORD_0":9,
						"JOINTS_0":10,
						"WEIGHTS_0":11
					},
					"indices":12
				}
			]
		},
		{
			"name":"\u7acb\u65b9\u4f53.002",
			"primitives":[
				{
					"attributes":{
						"POSITION":13,
						"NORMAL":14,
						"TEXCOORD_0":15,
						"JOINTS_0":16,
						"WEIGHTS_0":17
					},
					"indices":18
				}
			]
		}
	],
	"textures":[
		{
			"sampler":0,
			"source":0
		}
	],
	"images":[
		{
			"mimeType":"image/png",
			"name":"Player",
			"uri":"Player.png"
		}
	],
	"skins":[
		{
			"inverseBindMatrices":6,
			"joints":[
				7,
				1,
				0,
				2,
				4,
				3,
				5,
				6,
				8,
				9
			],
			"name":"konnitiha"
		}
	],
	"accessors":[
		{
			"bufferView":0,
			"componentType":5126,
			"count":662,
			"max":[
				3.4581809043884277,
				6.0894575119018555,
				1.286742091178894
			],
			"min":[
				-3.4581809043884277,
				0.005945086479187012,
				-1.286742091178894
			],
			"type":"VEC3"
		},
		{
			"bufferView":1,
			"componentType":5126,
			"count":662,
			"type":"VEC3"
		},
		{
			"bufferView":2,
			"componentType":5126,
			"count":662,
			"type":"VEC2"
		},
		{
			"bufferView":3,
			"componentType":5121,
			"count":662,
			"type":"VEC4"
		},
		{
			"bufferView":4,
			"componentType":5126,
			"count":662,
			"type":"VEC4"
		},
		{
			"bufferView":5,
			"componentType":5123,
			"count":2340,
			"type":"SCALAR"
		},
		{
			"bufferView":6,
			"componentType":5126,
			"count":10,
			"type":"MAT4"
		},
		{
			"bufferView":7,
			"componentType":5126,
			"count":288,
			"max":[
				1.647841453552246,
				5.665818214416504,
				1.885791301727295
			],
			"min":[
				-2.577129364013672,
				1.4431484937667847,
				1.317663550376892
			],
			"type":"VEC3"
		},
		{
			"bufferView":8,
			"componentType":5126,
			"count":288,
			"type":"VEC3"
		},
		{
			"bufferView":9,
			"componentType":5126,
			"count":288,
			"type":"VEC2"
		},
		{
			"bufferView":10,
			"componentType":5121,
			"count":288,
			"type":"VEC4"
		},
		{
			"bufferView":11,
			"componentType":5126,
			"count":288,
			"type":"VEC4"
		},
		{
			"bufferView":12,
			"componentType":5123,
			"count":528,
			"type":"SCALAR"
		},
		{
			"bufferView":13,
			"componentType":5126,
			"count":188,
			"max":[
				0.900888204574585,
				6.703224182128906,
				1.3932121992111206
			],
			"min":[
				-0.9253706932067871,
				1.6976039409637451,
				1.2637430429458618
			],
			"type":"VEC3"
		},
		{
			"bufferView":14,
			"componentType":5126,
			"count":188,
			"type":"VEC3"
		},
		{
			"bufferView":15,
			"componentType":5126,
			"count":188,
			"type":"VEC2"
		},
		{
			"bufferView":16,
			"componentType":5121,
			"count":188,
			"type":"VEC4"
		},
		{
			"bufferView":17,
			"componentType":5126,
			"count":188,
			"type":"VEC4"
		},
		{
			"bufferView":18,
			"componentType":5123,
			"count":336,
			"type":"SCALAR"
		},
		{
			"bufferView":19,
			"componentType":5126,
			"count":2,
			"max":[
				9.933333333333334
			],
			"min":[
				0.016666666666666666
			],
			"type":"SCALAR"
		},
		{
			"bufferView":20,
			"componentType":5126,
			"count":2,
			"type":"VEC3"
		},
		{
			"bufferView":21,
			"componentType":5126,
			"count":2,
			"type":"VEC4"
		},
		{
			"bufferView":22,
			"componentType":5126,
			"count":2,
			"type":"VEC3"
		},
		{
			"bufferView":23,
			"componentType":5126,
			"count":2,
			"type":"VEC3"
		},
		{
			"bufferView":24,
			"componentType":5126,
			"count":2,
			"type":"VEC4"
		},
		{
			"bufferView":25,
			"componentType":5126,
			"count":2,
			"type":"VEC3"
		},
		{
			"bufferView":26,
			"componentType":5126,
			"count":2,
			"type":"VEC3"
		},
		{
			"bufferView":27,
			"componentType":5126,
			"count":2,
			"type":"VEC4"
		},
		{
			"bufferView":28,
			"componentType":5126,
			"count":2,
			"type":"VEC3"
		},
		{
			"bufferView":29,
			"componentType":5126,
			"count":2,
			"type":"VEC3"
		},
		{
			"bufferView":30,
			"componentType":5126,
			"count":2,
			"type":"VEC4"
		},
		{
			"bufferView":31,
			"componentType":5126,
			"count":2,
			"type":"VEC3"
		},
		{
			"bufferView":32,
			"componentType":5126,
			"count":2,
			"type":"VEC3"
		},
		{
			"bufferView":33,
			"componentType":5126,
			"count":2,
			"type":"VEC4"
		},
		{
			"bufferView":34,
			"componentType":5126,
			"count":2,
			"type":"VEC3"
		},
		{
			"bufferView":35,
			"componentType":5126,
			"count":2,
			"type":"VEC3"
		},
		{
			"bufferView":36,
			"componentType":5126,
			"count":2,
			"type":"VEC4"
		},
		{
			"bufferView":37,
			"componentType":5126,
			"count":2,
			"type":"VEC3"
		},
		{
			"bufferView":38,
			"componentType":5126,
			"count":2,
			"max":[
				1
			],
			"min":[
				0
			],
			"type":"SCALAR"
		},
		{
			"bufferView":39,
			"componentType":5126,
			"count":2,
			"type":"VEC3"
		},
		{
			"bufferView":40,
			"componentType":5126,
			"count":61,
			"max":[
				1
			],
			"min":[
				0
			],
			"type":"SCALAR"
		},
		{
			"bufferView":41,
			"componentType":5126,
			"count":61,
			"type":"VEC4"
		},
		{
			"bufferView":42,
			"componentType":5126,
			"count":2,
			"type":"VEC3"
		},
		{
			"bufferView":43,
			"componentType":5126,
			"count":2,
			"type":"VEC3"
		},
		{
			"bufferView":44,
			"componentType":5126,
			"count":61,
			"type":"VEC4"
		},
		{
			"bufferView":45,
			"componentType":5126,
			"count":2,
			"type":"VEC3"
		},
		{
			"bufferView":46,
			"componentType":5126,
			"count":2,
			"type":"VEC3"
		},
		{
			"bufferView":47,
			"componentType":5126,
			"count":2,
			"type":"VEC4"
		},
		{
			"bufferView":48,
			"componentType":5126,
			"count":2,
			"type":"VEC3"
		},
		{
			"bufferView":49,
			"componentType":5126,
			"count":2,
			"type":"VEC4"
		},
		{
			"bufferView":50,
			"componentType":5126,
			"count":2,
			"type":"VEC3"
		},
		{
			"bufferView":51,
			"componentType":5126,
			"count":61,
			"type":"VEC4"
		},
		{
			"bufferView":52,
			"componentType":5126,
			"count":2,
			"type":"VEC3"
		},
		{
			"bufferView":53,
			"componentType":5126,
			"count":2,
			"type":"VEC3"
		},
		{
			"bufferView":54,
			"componentType":5126,
			"count":2,
			"type":"VEC4"
		},
		{
			"bufferView":55,
			"componentType":5126,
			"count":2,
			"type":"VEC3"
		},
		{
			"bufferView":56,
			"componentType":5126,
			"count":2,
			"type":"VEC3"
		},
		{
			"bufferView":57,
			"componentType":5126,
			"count":2,
			"type":"VEC3"
		},
		{
			"bufferView":58,
			"componentType":5126,
			"count":2,
			"type":"VEC4"
		},
		{
			"bufferView":59,
			"componentType":5126,
			"count":2,
			"type":"VEC3"
		},
		{
			"bufferView":60,
			"componentType":5126,
			"count":61,
			"type":"VEC4"
		},
		{
			"bufferView":61,
			"componentType":5126,
			"count":61,
			"type":"VEC4"
		},
		{
			"bufferView":62,
			"componentType":5126,
			"count":251,
			"max":[
				4.166666666666667
			],
			"min":[
				0
			],
			"type":"SCALAR"
		},
		{
			"bufferView":63,
			"componentType":5126,
			"count":251,
			"type":"VEC3"
		},
		{
			"bufferView":64,
			"componentType":5126,
			"count":2,
			"max":[
				4.166666666666667
			],
			"min":[
				0
			],
			"type":"SCALAR"
		},
		{
			"bufferView":65,
			"componentType":5126,
			"count":251,
			"type":"VEC3"
		},
		{
			"bufferView":66,
			"componentType":5126,
			"count":2,
			"type":"VEC4"
		},
		{
			"bufferView":67,
			"componentType":5126,
			"count":2,
			"type":"VEC3"
		},
		{
			"bufferView":68,
			"componentType":5126,
			"count":2,
			"type":"VEC3"
		},
		{
			"bufferView":69,
			"componentType":5126,
			"count":2,
			"type":"VEC4"
		},
		{
			"bufferView":70,
			"componentType":5126,
			"count":251,
			"type":"VEC3"
		},
		{
			"bufferView":71,
			"componentType":5126,
			"count":2,
			"type":"VEC4"
		},
		{
			"bufferView":72,
			"componentType":5126,
			"count":2,
			"type":"VEC3"
		},
		{
			"bufferView":73,
			"componentType":5126,
			"count":2,
			"type":"VEC4"
		},
		{
			"bufferView":74,
			"componentType":5126,
			"count":2,
			"type":"VEC3"
		},
		{
			"bufferView":75,
			"componentType":5126,
			"count":2,
			"type":"VEC4"
		},
		{
			"bufferView":76,
			"componentType":5126,
			"count":2,
			"type":"VEC3"
		},
		{
			"bufferView":77,
			"componentType":5126,
			"count":2,
			"type":"VEC4"
		},
		{
			"bufferView":78,
			"componentType":5126,
			"count":2,
			"type":"VEC3"
		}
	],
	"bufferViews":[
		{
			"buffer":0,
			"byteLength":7944,
			"byteOffset":0,
			"target":34962
		},
		{
			"buffer":0,
			"byteLength":7944,
			"byteOffset":7944,
			"target":34962
		},
		{
			"buffer":0,
			"byteLength":5296,
			"byteOffset":15888,
			"target":34962
		},
		{
			"buffer":0,
			"byteLength":2648,
			"byteOffset":21184,
			"target":34962
		},
		{
			"buffer":0,
			"byteLength":10592,
			"byteOffset":23832,
			"target":34962
		},
		{
			"buffer":0,
			"byteLength":4680,
			"byteOffset":34424,
			"target":34963
		},
		{
			"buffer":0,
			"byteLength":640,
			"byteOffset":39104
		},
		{
			"buffer":0,
			"byteLength":3456,
			"byteOffset":39744,
			"target":34962
		},
		{
			"buffer":0,
			"byteLength":3456,
			"byteOffset":43200,
			"target":34962
		},
		{
			"buffer":0,
			"byteLength":2304,
			"byteOffset":46656,
			"target":34962
		},
		{
			"buffer":0,
			"byteLength":1152,
			"byteOffset":48960,
			"target":34962
		},
		{
			"buffer":0,
			"byteLength":4608,
			"byteOffset":50112,
			"target":34962
		},
		{
			"buffer":0,
			"byteLength":1056,
			"byteOffset":54720,
			"target":34963
		},
		{
			"buffer":0,
			"byteLength":2256,
			"byteOffset":55776,
			"target":34962
		},
		{
			"buffer":0,
			"byteLength":2256,
			"byteOffset":58032,
			"target":34962
		},
		{
			"buffer":0,
			"byteLength":1504,
			"byteOffset":60288,
			"target":34962
		},
		{
			"buffer":0,
			"byteLength":752,
			"byteOffset":61792,
			"target":34962
		},
		{
			"buffer":0,
			"byteLength":3008,
			"byteOffset":62544,
			"target":34962
		},
		{
			"buffer":0,
			"byteLength":672,
			"byteOffset":65552,
			"target":34963
		},
		{
			"buffer":0,
			"byteLength":8,
			"byteOffset":66224
		},
		{
			"buffer":0,
			"byteLength":24,
			"byteOffset":66232
		},
		{
			"buffer":0,
			"byteLength":32,
			"byteOffset":66256
		},
		{
			"buffer":0,
			"byteLength":24,
			"byteOffset":66288
		},
		{
			"buffer":0,
			"byteLength":24,
			"byteOffset":66312
		},
		{
			"buffer":0,
			"byteLength":32,
			"byteOffset":66336
		},
		{
			"buffer":0,
			"byteLength":24,
			"byteOffset":66368
		},
		{
			"buffer":0,
			"byteLength":24,
			"byteOffset":66392
		},
		{
			"buffer":0,
			"byteLength":32,
			"byteOffset":66416
		},
		{
			"buffer":0,
			"byteLength":24,
			"byteOffset":66448
		},
		{
			"buffer":0,
			"byteLength":24,
			"byteOffset":66472
		},
		{
			"buffer":0,
			"byteLength":32,
			"byteOffset":66496
		},
		{
			"buffer":0,
			"byteLength":24,
			"byteOffset":66528
		},
		{
			"buffer":0,
			"byteLength":24,
			"byteOffset":66552
		},
		{
			"buffer":0,
			"byteLength":32,
			"byteOffset":66576
		},
		{
			"buffer":0,
			"byteLength":24,
			"byteOffset":66608
		},
		{
			"buffer":0,
			"byteLength":24,
			"byteOffset":66632
		},
		{
			"buffer":0,
			"byteLength":32,
			"byteOffset":66656
		},
		{
			"buffer":0,
			"byteLength":24,
			"byteOffset":66688
		},
		{
			"buffer":0,
			"byteLength":8,
			"byteOffset":66712
		},
		{
			"buffer":0,
			"byteLength":24,
			"byteOffset":66720
		},
		{
			"buffer":0,
			"byteLength":244,
			"byteOffset":66744
		},
		{
			"buffer":0,
			"byteLength":976,
			"byteOffset":66988
		},
		{
			"buffer":0,
			"byteLength":24,
			"byteOffset":67964
		},
		{
			"buffer":0,
			"byteLength":24,
			"byteOffset":67988
		},
		{
			"buffer":0,
			"byteLength":976,
			"byteOffset":68012
		},
		{
			"buffer":0,
			"byteLength":24,
			"byteOffset":68988
		},
		{
			"buffer":0,
			"byteLength":24,
			"byteOffset":69012
		},
		{
			"buffer":0,
			"byteLength":32,
			"byteOffset":69036
		},
		{
			"buffer":0,
			"byteLength":24,
			"byteOffset":69068
		},
		{
			"buffer":0,
			"byteLength":32,
			"byteOffset":69092
		},
		{
			"buffer":0,
			"byteLength":24,
			"byteOffset":69124
		},
		{
			"buffer":0,
			"byteLength":976,
			"byteOffset":69148
		},
		{
			"buffer":0,
			"byteLength":24,
			"byteOffset":70124
		},
		{
			"buffer":0,
			"byteLength":24,
			"byteOffset":70148
		},
		{
			"buffer":0,
			"byteLength":32,
			"byteOffset":70172
		},
		{
			"buffer":0,
			"byteLength":24,
			"byteOffset":70204
		},
		{
			"buffer":0,
			"byteLength":24,
			"byteOffset":70228
		},
		{
			"buffer":0,
			"byteLength":24,
			"byteOffset":70252
		},
		{
			"buffer":0,
			"byteLength":32,
			"byteOffset":70276
		},
		{
			"buffer":0,
			"byteLength":24,
			"byteOffset":70308
		},
		{
			"buffer":0,
			"byteLength":976,
			"byteOffset":70332
		},
		{
			"buffer":0,
			"byteLength":976,
			"byteOffset":71308
		},
		{
			"buffer":0,
			"byteLength":1004,
			"byteOffset":72284
		},
		{
			"buffer":0,
			"byteLength":3012,
			"byteOffset":73288
		},
		{
			"buffer":0,
			"byteLength":8,
			"byteOffset":76300
		},
		{
			"buffer":0,
			"byteLength":3012,
			"byteOffset":76308
		},
		{
			"buffer":0,
			"byteLength":32,
			"byteOffset":79320
		},
		{
			"buffer":0,
			"byteLength":24,
			"byteOffset":79352
		},
		{
			"buffer":0,
			"byteLength":24,
			"byteOffset":79376
		},
		{
			"buffer":0,
			"byteLength":32,
			"byteOffset":79400
		},
		{
			"buffer":0,
			"byteLength":3012,
			"byteOffset":79432
		},
		{
			"buffer":0,
			"byteLength":32,
			"byteOffset":82444
		},
		{
			"buffer":0,
			"byteLength":24,
			"byteOffset":82476
		},
		{
			"buffer":0,
			"byteLength":32,
			"byteOffset":82500
		},
		{
			"buffer":0,
			"byteLength":24,
			"byteOffset":82532
		},
		{
			"buffer":0,
			"byteLength":32,
			"byteOffset":82556
		},
		{
			"buffer":0,
			"byteLength":24,
			"byteOffset":82588
		},
		{
			"buffer":0,
			"byteLength":32,
			"byteOffset":82612
		},
		{
			"buffer":0,
			"byteLength":24,
			"byteOffset":82644
		}
	],
	"samplers":[
		{
			"magFilter":9729,
			"minFilter":9987
		}
	],
	"buffers":[
		{
			"byteLength":82668,
			"uri":"Player.bin"
		}
	]
}
