{
	"asset":{
		"generator":"Khronos glTF Blender I/O v5.1.19",
		"version":"2.0"
	},
	"scene":0,
	"scenes":[
		{
			"name":"Scene",
			"nodes":[
				0,
				1,
				2,
				3,
				4,
				5,
				6,
				7,
				8,
				9,
				10,
				11
			]
		}
	],
	"nodes":[
		{
			"mesh":0,
			"name":"Spike\u306e\u571f\u53f0",
			"scale":[
				1,
				0.25,
				1
			]
		},
		{
			"mesh":1,
			"name":"\u5186\u9310",
			"scale":[
				0.3383617103099823,
				0.30658501386642456,
				0.3383617103099823
			],
			"translation":[
				-0.6000000238418579,
				0.5,
				-0.6000000238418579
			]
		},
		{
			"mesh":2,
			"name":"\u5186\u9310.001",
			"scale":[
				0.3383617103099823,
				0.30658501386642456,
				0.3383617103099823
			],
			"translation":[
				0,
				0.5,
				-0.6000000238418579
			]
		},
		{
			"mesh":3,
			"name":"\u5186\u9310.002",
			"scale":[
				0.3383617103099823,
				0.30658501386642456,
				0.3383617103099823
			],
			"translation":[
				0.6000000238418579,
				0.5,
				-0.6000000238418579
			]
		},
		{
			"mesh":4,
			"name":"\u5186\u9310.003",
			"scale":[
				0.3383617103099823,
				0.30658501386642456,
				0.3383617103099823
			],
			"translation":[
				-0.6000000238418579,
				0.5,
				0
			]
		},
		{
			"mesh":5,
			"name":"\u5186\u9310.004",
			"scale":[
				0.3383617103099823,
				0.30658501386642456,
				0.3383617103099823
			],
			"translation":[
				0,
				0.5,
				0
			]
		},
		{
			"mesh":6,
			"name":"\u5186\u9310.005",
			"scale":[
				0.3383617103099823,
				0.30658501386642456,
				0.3383617103099823
			],
			"translation":[
				0.6000000238418579,
				0.5,
				0
			]
		},
		{
			"mesh":7,
			"name":"\u5186\u9310.006",
			"scale":[
				0.3383617103099823,
				0.30658501386642456,
				0.3383617103099823
			],
			"translation":[
				-0.6000000238418579,
				0.5,
				0.6000000238418579
			]
		},
		{
			"mesh":8,
			"name":"\u5186\u9310.007",
			"scale":[
				0.3383617103099823,
				0.30658501386642456,
				0.3383617103099823
			],
			"translation":[
				0,
				0.5,
				0.6000000238418579
			]
		},
		{
			"mesh":9,
			"name":"\u5186\u9310.008",
			"scale":[
				0.3383617103099823,
				0.30658501386642456,
				0.3383617103099823
			],
			"translation":[
				0.6000000238418579,
				0.5,
				0.6000000238418579
			]
		},
		{
			"mesh":10,
			"name":"COL_SpikeAttack",
			"scale":[
				0.7921567559242249,
				0.2562007009983063,
				0.7921567559242249
			],
			"translation":[
				0,
				0.5190724730491638,
				0
			]
		},
		{
			"mesh":11,
			"name":"COL",
			"scale":[
				1,
				0.25,
				1
			]
		}
	],
	"materials":[
		{
			"doubleSided":true,
			"name":"\u30de\u30c6\u30ea\u30a2\u30eb",
			"pbrMetallicRoughness":{
				"baseColorFactor":[
					0.8000074625015259,
					0.03740493208169937,
					0.03318607807159424,
					1
				],
				"metallicFactor":0,
				"roughnessFactor":0.5
			}
		},
		{
			"alphaMode":"BLEND",
			"doubleSided":true,
			"name":"\u30de\u30c6\u30ea\u30a2\u30eb.001",
			"pbrMetallicRoughness":{
				"baseColorFactor":[
					0.05579265579581261,
					0.8000074625015259,
					0.13611072301864624,
					0.27374300360679626
				],
				"metallicFactor":0,
				"roughnessFactor":0.5
			}
		}
	],
	"meshes":[
		{
			"name":"\u7acb\u65b9\u4f53",
			"primitives":[
				{
					"attributes":{
						"POSITION":0,
						"NORMAL":1,
						"TEXCOORD_0":2
					},
					"indices":3
				}
			]
		},
		{
			"name":"\u5186\u9310",
			"primitives":[
				{
					"attributes":{
						"POSITION":4,
						"NORMAL":5,
						"TEXCOORD_0":6
					},
					"indices":7,
					"material":0
				}
			]
		},
		{
			"name":"\u5186\u9310.001",
			"primitives":[
				{
					"attributes":{
						"POSITION":8,
						"NORMAL":9,
						"TEXCOORD_0":10
					},
					"indices":7,
					"material":0
				}
			]
		},
		{
			"name":"\u5186\u9310.002",
			"primitives":[
				{
					"attributes":{
						"POSITION":11,
						"NORMAL":12,
						"TEXCOORD_0":13
					},
					"indices":7,
					"material":0
				}
			]
		},
		{
			"name":"\u5186\u9310.003",
			"primitives":[
				{
					"attributes":{
						"POSITION":14,
						"NORMAL":15,
						"TEXCOORD_0":16
					},
					"indices":7,
					"material":0
				}
			]
		},
		{
			"name":"\u5186\u9310.004",
			"primitives":[
				{
					"attributes":{
						"POSITION":17,
						"NORMAL":18,
						"TEXCOORD_0":19
					},
					"indices":7,
					"material":0
				}
			]
		},
		{
			"name":"\u5186\u9310.005",
			"primitives":[
				{
					"attributes":{
						"POSITION":20,
						"NORMAL":21,
						"TEXCOORD_0":22
					},
					"indices":7,
					"material":0
				}
			]
		},
		{
			"name":"\u5186\u9310.006",
			"primitives":[
				{
					"attributes":{
						"POSITION":23,
						"NORMAL":24,
						"TEXCOORD_0":25
					},
					"indices":7,
					"material":0
				}
			]
		},
		{
			"name":"\u5186\u9310.007",
			"primitives":[
				{
					"attributes":{
						"POSITION":26,
						"NORMAL":27,
						"TEXCOORD_0":28
					},
					"indices":7,
					"material":0
				}
			]
		},
		{
			"name":"\u5186\u9310.008",
			"primitives":[
				{
					"attributes":{
						"POSITION":29,
						"NORMAL":30,
						"TEXCOORD_0":31
					},
					"indices":7,
					"material":0
				}
			]
		},
		{
			"name":"\u7acb\u65b9\u4f53.001",
			"primitives":[
				{
					"attributes":{
						"POSITION":32,
						"NORMAL":33,
						"TEXCOORD_0":34
					},
					"indices":3,
					"material":1
				}
			]
		},
		{
			"name":"\u7acb\u65b9\u4f53.002",
			"primitives":[
				{
					"attributes":{
						"POSITION":35,
						"NORMAL":36,
						"TEXCOORD_0":37
					},
					"indices":3
				}
			]
		}
	],
	"accessors":[
		{
			"bufferView":0,
			"componentType":5126,
			"count":24,
			"max":[
				1,
				1,
				1
			],
			"min":[
				-1,
				-1,
				-1
			],
			"type":"VEC3"
		},
		{
			"bufferView":1,
			"componentType":5126,
			"count":24,
			"type":"VEC3"
		},
		{
			"bufferView":2,
			"componentType":5126,
			"count":24,
			"type":"VEC2"
		},
		{
			"bufferView":3,
			"componentType":5123,
			"count":36,
			"type":"SCALAR"
		},
		{
			"bufferView":4,
			"componentType":5126,
			"count":16,
			"max":[
				1,
				1,
				1
			],
			"min":[
				-1,
				-1,
				-1
			],
			"type":"VEC3"
		},
		{
			"bufferView":5,
			"componentType":5126,
			"count":16,
			"type":"VEC3"
		},
		{
			"bufferView":6,
			"componentType":5126,
			"count":16,
			"type":"VEC2"
		},
		{
			"bufferView":7,
			"componentType":5123,
			"count":18,
			"type":"SCALAR"
		},
		{
			"bufferView":8,
			"componentType":5126,
			"count":16,
			"max":[
				1,
				1,
				1
			],
			"min":[
				-1,
				-1,
				-1
			],
			"type":"VEC3"
		},
		{
			"bufferView":9,
			"componentType":5126,
			"count":16,
			"type":"VEC3"
		},
		{
			"bufferView":10,
			"componentType":5126,
			"count":16,
			"type":"VEC2"
		},
		{
			"bufferView":11,
			"componentType":5126,
			"count":16,
			"max":[
				1,
				1,
				1
			],
			"min":[
				-1,
				-1,
				-1
			],
			"type":"VEC3"
		},
		{
			"bufferView":12,
			"componentType":5126,
			"count":16,
			"type":"VEC3"
		},
		{
			"bufferView":13,
			"componentType":5126,
			"count":16,
			"type":"VEC2"
		},
		{
			"bufferView":14,
			"componentType":5126,
			"count":16,
			"max":[
				1,
				1,
				1
			],
			"min":[
				-1,
				-1,
				-1
			],
			"type":"VEC3"
		},
		{
			"bufferView":15,
			"componentType":5126,
			"count":16,
			"type":"VEC3"
		},
		{
			"bufferView":16,
			"componentType":5126,
			"count":16,
			"type":"VEC2"
		},
		{
			"bufferView":17,
			"componentType":5126,
			"count":16,
			"max":[
				1,
				1,
				1
			],
			"min":[
				-1,
				-1,
				-1
			],
			"type":"VEC3"
		},
		{
			"bufferView":18,
			"componentType":5126,
			"count":16,
			"type":"VEC3"
		},
		{
			"bufferView":19,
			"componentType":5126,
			"count":16,
			"type":"VEC2"
		},
		{
			"bufferView":20,
			"componentType":5126,
			"count":16,
			"max":[
				1,
				1,
				1
			],
			"min":[
				-1,
				-1,
				-1
			],
			"type":"VEC3"
		},
		{
			"bufferView":21,
			"componentType":5126,
			"count":16,
			"type":"VEC3"
		},
		{
			"bufferView":22,
			"componentType":5126,
			"count":16,
			"type":"VEC2"
		},
		{
			"bufferView":23,
			"componentType":5126,
			"count":16,
			"max":[
				1,
				1,
				1
			],
			"min":[
				-1,
				-1,
				-1
			],
			"type":"VEC3"
		},
		{
			"bufferView":24,
			"componentType":5126,
			"count":16,
			"type":"VEC3"
		},
		{
			"bufferView":25,
			"componentType":5126,
			"count":16,
			"type":"VEC2"
		},
		{
			"bufferView":26,
			"componentType":5126,
			"count":16,
			"max":[
				1,
				1,
				1
			],
			"min":[
				-1,
				-1,
				-1
			],
			"type":"VEC3"
		},
		{
			"bufferView":27,
			"componentType":5126,
			"count":16,
			"type":"VEC3"
		},
		{
			"bufferView":28,
			"componentType":5126,
			"count":16,
			"type":"VEC2"
		},
		{
			"bufferView":29,
			"componentType":5126,
			"count":16,
			"max":[
				1,
				1,
				1
			],
			"min":[
				-1,
				-1,
				-1
			],
			"type":"VEC3"
		},
		{
			"bufferView":30,
			"componentType":5126,
			"count":16,
			"type":"VEC3"
		},
		{
			"bufferView":31,
			"componentType":5126,
			"count":16,
			"type":"VEC2"
		},
		{
			"bufferView":32,
			"componentType":5126,
			"count":24,
			"max":[
				1,
				1,
				1
			],
			"min":[
				-1,
				-1,
				-1
			],
			"type":"VEC3"
		},
		{
			"bufferView":33,
			"componentType":5126,
			"count":24,
			"type":"VEC3"
		},
		{
			"bufferView":34,
			"componentType":5126,
			"count":24,
			"type":"VEC2"
		},
		{
			"bufferView":35,
			"componentType":5126,
			"count":24,
			"max":[
				1,
				1,
				1
			],
			"min":[
				-1,
				-1,
				-1
			],
			"type":"VEC3"
		},
		{
			"bufferView":36,
			"componentType":5126,
			"count":24,
			"type":"VEC3"
		},
		{
			"bufferView":37,
			"componentType":5126,
			"count":24,
			"type":"VEC2"
		}
	],
	"bufferViews":[
		{
			"buffer":0,
			"byteLength":288,
			"byteOffset":0,
			"target":34962
		},
		{
			"buffer":0,
			"byteLength":288,
			"byteOffset":288,
			"target":34962
		},
		{
			"buffer":0,
			"byteLength":192,
			"byteOffset":576,
			"target":34962
		},
		{
			"buffer":0,
			"byteLength":72,
			"byteOffset":768,
			"target":34963
		},
		{
			"buffer":0,
			"byteLength":192,
			"byteOffset":840,
			"target":34962
		},
		{
			"buffer":0,
			"byteLength":192,
			"byteOffset":1032,
			"target":34962
		},
		{
			"buffer":0,
			"byteLength":128,
			"byteOffset":1224,
			"target":34962
		},
		{
			"buffer":0,
			"byteLength":36,
			"byteOffset":1352,
			"target":34963
		},
		{
			"buffer":0,
			"byteLength":192,
			"byteOffset":1388,
			"target":34962
		},
		{
			"buffer":0,
			"byteLength":192,
			"byteOffset":1580,
			"target":34962
		},
		{
			"buffer":0,
			"byteLength":128,
			"byteOffset":1772,
			"target":34962
		},
		{
			"buffer":0,
			"byteLength":192,
			"byteOffset":1900,
			"target":34962
		},
		{
			"buffer":0,
			"byteLength":192,
			"byteOffset":2092,
			"target":34962
		},
		{
			"buffer":0,
			"byteLength":128,
			"byteOffset":2284,
			"target":34962
		},
		{
			"buffer":0,
			"byteLength":192,
			"byteOffset":2412,
			"target":34962
		},
		{
			"buffer":0,
			"byteLength":192,
			"byteOffset":2604,
			"target":34962
		},
		{
			"buffer":0,
			"byteLength":128,
			"byteOffset":2796,
			"target":34962
		},
		{
			"buffer":0,
			"byteLength":192,
			"byteOffset":2924,
			"target":34962
		},
		{
			"buffer":0,
			"byteLength":192,
			"byteOffset":3116,
			"target":34962
		},
		{
			"buffer":0,
			"byteLength":128,
			"byteOffset":3308,
			"target":34962
		},
		{
			"buffer":0,
			"byteLength":192,
			"byteOffset":3436,
			"target":34962
		},
		{
			"buffer":0,
			"byteLength":192,
			"byteOffset":3628,
			"target":34962
		},
		{
			"buffer":0,
			"byteLength":128,
			"byteOffset":3820,
			"target":34962
		},
		{
			"buffer":0,
			"byteLength":192,
			"byteOffset":3948,
			"target":34962
		},
		{
			"buffer":0,
			"byteLength":192,
			"byteOffset":4140,
			"target":34962
		},
		{
			"buffer":0,
			"byteLength":128,
			"byteOffset":4332,
			"target":34962
		},
		{
			"buffer":0,
			"byteLength":192,
			"byteOffset":4460,
			"target":34962
		},
		{
			"buffer":0,
			"byteLength":192,
			"byteOffset":4652,
			"target":34962
		},
		{
			"buffer":0,
			"byteLength":128,
			"byteOffset":4844,
			"target":34962
		},
		{
			"buffer":0,
			"byteLength":192,
			"byteOffset":4972,
			"target":34962
		},
		{
			"buffer":0,
			"byteLength":192,
			"byteOffset":5164,
			"target":34962
		},
		{
			"buffer":0,
			"byteLength":128,
			"byteOffset":5356,
			"target":34962
		},
		{
			"buffer":0,
			"byteLength":288,
			"byteOffset":5484,
			"target":34962
		},
		{
			"buffer":0,
			"byteLength":288,
			"byteOffset":5772,
			"target":34962
		},
		{
			"buffer":0,
			"byteLength":192,
			"byteOffset":6060,
			"target":34962
		},
		{
			"buffer":0,
			"byteLength":288,
			"byteOffset":6252,
			"target":34962
		},
		{
			"buffer":0,
			"byteLength":288,
			"byteOffset":6540,
			"target":34962
		},
		{
			"buffer":0,
			"byteLength":192,
			"byteOffset":6828,
			"target":34962
		}
	],
	"buffers":[
		{
			"byteLength":7020,
			"uri":"spikebox.bin"
		}
	]
}
