{
	"asset":{
		"generator":"Khronos glTF Blender I/O v5.1.19",
		"version":"2.0"
	},
	"scene":0,
	"scenes":[
		{
			"name":"Scene",
			"nodes":[
				0,
				1,
				2
			]
		}
	],
	"nodes":[
		{
			"mesh":0,
			"name":"Cube",
			"scale":[
				1,
				0.5,
				1
			]
		},
		{
			"mesh":1,
			"name":"\u7acb\u65b9\u4f53",
			"scale":[
				0.07995641231536865,
				0.07995641231536865,
				0.07995641231536865
			],
			"translation":[
				0,
				0.8040717840194702,
				0
			]
		},
		{
			"mesh":2,
			"name":"COL",
			"scale":[
				1,
				0.5288101434707642,
				1
			]
		}
	],
	"materials":[
		{
			"doubleSided":true,
			"name":"Material",
			"pbrMetallicRoughness":{
				"baseColorFactor":[
					0.800000011920929,
					0.800000011920929,
					0.800000011920929,
					1
				],
				"metallicFactor":0,
				"roughnessFactor":0.5
			}
		}
	],
	"meshes":[
		{
			"name":"Cube",
			"primitives":[
				{
					"attributes":{
						"POSITION":0,
						"NORMAL":1,
						"TEXCOORD_0":2
					},
					"indices":3,
					"material":0
				}
			]
		},
		{
			"name":"\u7acb\u65b9\u4f53",
			"primitives":[
				{
					"attributes":{
						"POSITION":4,
						"NORMAL":5,
						"TEXCOORD_0":6
					},
					"indices":7
				}
			]
		},
		{
			"name":"\u7acb\u65b9\u4f53.001",
			"primitives":[
				{
					"attributes":{
						"POSITION":8,
						"NORMAL":9,
						"TEXCOORD_0":10
					},
					"indices":11
				}
			]
		}
	],
	"accessors":[
		{
			"bufferView":0,
			"componentType":5126,
			"count":6032,
			"max":[
				1.0000112056732178,
				1,
				1.0000224113464355
			],
			"min":[
				-1.0000112056732178,
				-1.000000238418579,
				-1
			],
			"type":"VEC3"
		},
		{
			"bufferView":1,
			"componentType":5126,
			"count":6032,
			"type":"VEC3"
		},
		{
			"bufferView":2,
			"componentType":5126,
			"count":6032,
			"type":"VEC2"
		},
		{
			"bufferView":3,
			"componentType":5123,
			"count":25512,
			"type":"SCALAR"
		},
		{
			"bufferView":4,
			"componentType":5126,
			"count":120,
			"max":[
				10.176162719726562,
				-3.8127024173736572,
				10.00629711151123
			],
			"min":[
				-10.074894905090332,
				-16.2785701751709,
				-10.146209716796875
			],
			"type":"VEC3"
		},
		{
			"bufferView":5,
			"componentType":5126,
			"count":120,
			"type":"VEC3"
		},
		{
			"bufferView":6,
			"componentType":5126,
			"count":120,
			"type":"VEC2"
		},
		{
			"bufferView":7,
			"componentType":5123,
			"count":180,
			"type":"SCALAR"
		},
		{
			"bufferView":8,
			"componentType":5126,
			"count":24,
			"max":[
				1,
				1,
				1
			],
			"min":[
				-1,
				-1,
				-1
			],
			"type":"VEC3"
		},
		{
			"bufferView":9,
			"componentType":5126,
			"count":24,
			"type":"VEC3"
		},
		{
			"bufferView":10,
			"componentType":5126,
			"count":24,
			"type":"VEC2"
		},
		{
			"bufferView":11,
			"componentType":5123,
			"count":36,
			"type":"SCALAR"
		}
	],
	"bufferViews":[
		{
			"buffer":0,
			"byteLength":72384,
			"byteOffset":0,
			"target":34962
		},
		{
			"buffer":0,
			"byteLength":72384,
			"byteOffset":72384,
			"target":34962
		},
		{
			"buffer":0,
			"byteLength":48256,
			"byteOffset":144768,
			"target":34962
		},
		{
			"buffer":0,
			"byteLength":51024,
			"byteOffset":193024,
			"target":34963
		},
		{
			"buffer":0,
			"byteLength":1440,
			"byteOffset":244048,
			"target":34962
		},
		{
			"buffer":0,
			"byteLength":1440,
			"byteOffset":245488,
			"target":34962
		},
		{
			"buffer":0,
			"byteLength":960,
			"byteOffset":246928,
			"target":34962
		},
		{
			"buffer":0,
			"byteLength":360,
			"byteOffset":247888,
			"target":34963
		},
		{
			"buffer":0,
			"byteLength":288,
			"byteOffset":248248,
			"target":34962
		},
		{
			"buffer":0,
			"byteLength":288,
			"byteOffset":248536,
			"target":34962
		},
		{
			"buffer":0,
			"byteLength":192,
			"byteOffset":248824,
			"target":34962
		},
		{
			"buffer":0,
			"byteLength":72,
			"byteOffset":249016,
			"target":34963
		}
	],
	"buffers":[
		{
			"byteLength":249088,
			"uri":"windbox.bin"
		}
	]
}
