{
	"asset":{
		"generator":"Khronos glTF Blender I/O v5.1.19",
		"version":"2.0"
	},
	"scene":0,
	"scenes":[
		{
			"name":"Scene",
			"nodes":[
				0
			]
		}
	],
	"nodes":[
		{
			"mesh":0,
			"name":"barrel",
			"rotation":[
				0.7071068286895752,
				0,
				0,
				0.7071068286895752
			],
			"scale":[
				0.009999999776482582,
				0.009999999776482582,
				0.009999999776482582
			]
		}
	],
	"materials":[
		{
			"doubleSided":true,
			"name":"standardSurface2.001",
			"pbrMetallicRoughness":{
				"metallicFactor":0,
				"roughnessFactor":0.5527864098548889
			}
		}
	],
	"meshes":[
		{
			"name":"\u30e1\u30c3\u30b7\u30e5.001",
			"primitives":[
				{
					"attributes":{
						"POSITION":0,
						"NORMAL":1,
						"TEXCOORD_0":2
					},
					"indices":3,
					"material":0
				}
			]
		}
	],
	"accessors":[
		{
			"bufferView":0,
			"componentType":5126,
			"count":442,
			"max":[
				31.232269287109375,
				31.23227310180664,
				5.7220458984375e-06
			],
			"min":[
				-31.232269287109375,
				-31.23227310180664,
				-61.41423416137695
			],
			"type":"VEC3"
		},
		{
			"bufferView":1,
			"componentType":5126,
			"count":442,
			"type":"VEC3"
		},
		{
			"bufferView":2,
			"componentType":5126,
			"count":442,
			"type":"VEC2"
		},
		{
			"bufferView":3,
			"componentType":5123,
			"count":816,
			"type":"SCALAR"
		}
	],
	"bufferViews":[
		{
			"buffer":0,
			"byteLength":5304,
			"byteOffset":0,
			"target":34962
		},
		{
			"buffer":0,
			"byteLength":5304,
			"byteOffset":5304,
			"target":34962
		},
		{
			"buffer":0,
			"byteLength":3536,
			"byteOffset":10608,
			"target":34962
		},
		{
			"buffer":0,
			"byteLength":1632,
			"byteOffset":14144,
			"target":34963
		}
	],
	"buffers":[
		{
			"byteLength":15776,
			"uri":"barrel.bin"
		}
	]
}
