{
	"asset":{
		"generator":"Khronos glTF Blender I/O v5.1.19",
		"version":"2.0"
	},
	"scene":0,
	"scenes":[
		{
			"name":"Scene",
			"nodes":[
				0
			]
		}
	],
	"nodes":[
		{
			"mesh":0,
			"name":"\u30c6\u30ad\u30b9\u30c8",
			"rotation":[
				0.7071068286895752,
				0,
				0,
				0.7071068286895752
			],
			"translation":[
				0,
				-0.5277934670448303,
				0
			]
		}
	],
	"meshes":[
		{
			"name":"\u30c6\u30ad\u30b9\u30c8",
			"primitives":[
				{
					"attributes":{
						"POSITION":0,
						"NORMAL":1,
						"TEXCOORD_0":2
					},
					"indices":3
				}
			]
		}
	],
	"accessors":[
		{
			"bufferView":0,
			"componentType":5126,
			"count":1558,
			"max":[
				0.5480059385299683,
				0.059999994933605194,
				0.18981614708900452
			],
			"min":[
				-0.5481233596801758,
				-0.059999994933605194,
				-1.053802490234375
			],
			"type":"VEC3"
		},
		{
			"bufferView":1,
			"componentType":5126,
			"count":1558,
			"type":"VEC3"
		},
		{
			"bufferView":2,
			"componentType":5126,
			"count":1558,
			"type":"VEC2"
		},
		{
			"bufferView":3,
			"componentType":5123,
			"count":4644,
			"type":"SCALAR"
		}
	],
	"bufferViews":[
		{
			"buffer":0,
			"byteLength":18696,
			"byteOffset":0,
			"target":34962
		},
		{
			"buffer":0,
			"byteLength":18696,
			"byteOffset":18696,
			"target":34962
		},
		{
			"buffer":0,
			"byteLength":12464,
			"byteOffset":37392,
			"target":34962
		},
		{
			"buffer":0,
			"byteLength":9288,
			"byteOffset":49856,
			"target":34963
		}
	],
	"buffers":[
		{
			"byteLength":59144,
			"uri":"Map_Arrow.bin"
		}
	]
}
