{
	"asset":{
		"generator":"Khronos glTF Blender I/O v5.1.19",
		"version":"2.0"
	},
	"scene":0,
	"scenes":[
		{
			"name":"Scene",
			"nodes":[
				0
			]
		}
	],
	"nodes":[
		{
			"mesh":0,
			"name":"OpenedParasol",
			"rotation":[
				0.25879165530204773,
				0,
				0,
				0.9659332036972046
			],
			"scale":[
				1.0511474609375,
				0.03641073778271675,
				1.0511474609375
			],
			"translation":[
				0,
				0.009131580591201782,
				0
			]
		}
	],
	"meshes":[
		{
			"name":"\u7acb\u65b9\u4f53.005",
			"primitives":[
				{
					"attributes":{
						"POSITION":0,
						"NORMAL":1,
						"TEXCOORD_0":2
					},
					"indices":3
				}
			]
		}
	],
	"accessors":[
		{
			"bufferView":0,
			"componentType":5126,
			"count":88,
			"max":[
				0.6024113297462463,
				19.12700843811035,
				0.6024113297462463
			],
			"min":[
				-0.6024113297462463,
				-18.41353988647461,
				-0.6024113297462463
			],
			"type":"VEC3"
		},
		{
			"bufferView":1,
			"componentType":5126,
			"count":88,
			"type":"VEC3"
		},
		{
			"bufferView":2,
			"componentType":5126,
			"count":88,
			"type":"VEC2"
		},
		{
			"bufferView":3,
			"componentType":5123,
			"count":132,
			"type":"SCALAR"
		}
	],
	"bufferViews":[
		{
			"buffer":0,
			"byteLength":1056,
			"byteOffset":0,
			"target":34962
		},
		{
			"buffer":0,
			"byteLength":1056,
			"byteOffset":1056,
			"target":34962
		},
		{
			"buffer":0,
			"byteLength":704,
			"byteOffset":2112,
			"target":34962
		},
		{
			"buffer":0,
			"byteLength":264,
			"byteOffset":2816,
			"target":34963
		}
	],
	"buffers":[
		{
			"byteLength":3080,
			"uri":"Parasol_Item.bin"
		}
	]
}
