{
	"asset":{
		"generator":"Khronos glTF Blender I/O v5.1.19",
		"version":"2.0"
	},
	"scene":0,
	"scenes":[
		{
			"name":"Scene",
			"nodes":[
				17
			]
		}
	],
	"nodes":[
		{
			"name":"ParasolHand.R",
			"rotation":[
				-0.7071067690849304,
				0,
				-5.338507591545749e-08,
				0.7071067690849304
			],
			"translation":[
				0,
				1.0535330772399902,
				0
			]
		},
		{
			"children":[
				0
			],
			"name":"arm.R",
			"translation":[
				0,
				1.0110567808151245,
				0
			]
		},
		{
			"children":[
				1
			],
			"name":"shoulder.R",
			"rotation":[
				-2.6692537957728746e-08,
				2.6692537957728746e-08,
				0.7071067690849304,
				0.7071067690849304
			],
			"translation":[
				-1.1493085622787476,
				1.1633820533752441,
				0
			]
		},
		{
			"name":"Head",
			"rotation":[
				0,
				1.1920927533992653e-07,
				0,
				1
			],
			"scale":[
				1,
				0.9999999403953552,
				1
			],
			"translation":[
				0,
				1.6084575653076172,
				0
			]
		},
		{
			"name":"SwordHand.L",
			"rotation":[
				-0.6807123422622681,
				0.02744941972196102,
				0.03100402094423771,
				0.731379508972168
			],
			"scale":[
				0.9999999403953552,
				0.9999999403953552,
				0.9999999403953552
			],
			"translation":[
				0,
				1.0535330772399902,
				0
			]
		},
		{
			"children":[
				4
			],
			"name":"arm.L",
			"translation":[
				0,
				1.0110567808151245,
				0
			]
		},
		{
			"children":[
				5
			],
			"name":"shoulder.L",
			"rotation":[
				-2.6692537957728746e-08,
				-2.6692537957728746e-08,
				-0.7071067690849304,
				0.7071067690849304
			],
			"translation":[
				1.1493085622787476,
				1.1633820533752441,
				0
			]
		},
		{
			"name":"GravityCoreBorn",
			"rotation":[
				-0.5000000596046448,
				0.5,
				-0.5,
				0.5
			],
			"translation":[
				3.2138984203338623,
				1.1633820533752441,
				0
			]
		},
		{
			"name":"Body.001",
			"translation":[
				0,
				-0.29788100719451904,
				1.3188180923461914
			]
		},
		{
			"name":"Leg.R",
			"rotation":[
				1,
				0,
				-4.371138828673793e-08,
				0
			],
			"translation":[
				-0.4957800507545471,
				-0.749303936958313,
				0
			]
		},
		{
			"name":"Leg.L",
			"rotation":[
				1,
				0,
				-4.371138828673793e-08,
				0
			],
			"translation":[
				0.4957800507545471,
				-0.749303936958313,
				0
			]
		},
		{
			"children":[
				2,
				3,
				6,
				7,
				8,
				9,
				10
			],
			"name":"Body"
		},
		{
			"mesh":0,
			"name":"BackSword",
			"skin":0
		},
		{
			"mesh":1,
			"name":"ClosedParasol",
			"skin":0
		},
		{
			"mesh":2,
			"name":"HandledSword",
			"skin":0
		},
		{
			"mesh":3,
			"name":"OpenedParasol",
			"skin":0
		},
		{
			"mesh":4,
			"name":"\u7acb\u65b9\u4f53",
			"skin":0
		},
		{
			"children":[
				12,
				13,
				14,
				15,
				16,
				11
			],
			"name":"konnitiha",
			"translation":[
				0,
				2.0631251335144043,
				0
			]
		}
	],
	"animations":[
		{
			"channels":[
				{
					"sampler":0,
					"target":{
						"node":11,
						"path":"translation"
					}
				},
				{
					"sampler":1,
					"target":{
						"node":11,
						"path":"rotation"
					}
				},
				{
					"sampler":2,
					"target":{
						"node":11,
						"path":"scale"
					}
				},
				{
					"sampler":3,
					"target":{
						"node":2,
						"path":"translation"
					}
				},
				{
					"sampler":4,
					"target":{
						"node":2,
						"path":"rotation"
					}
				},
				{
					"sampler":5,
					"target":{
						"node":2,
						"path":"scale"
					}
				},
				{
					"sampler":6,
					"target":{
						"node":1,
						"path":"translation"
					}
				},
				{
					"sampler":7,
					"target":{
						"node":1,
						"path":"rotation"
					}
				},
				{
					"sampler":8,
					"target":{
						"node":1,
						"path":"scale"
					}
				},
				{
					"sampler":9,
					"target":{
						"node":0,
						"path":"translation"
					}
				},
				{
					"sampler":10,
					"target":{
						"node":0,
						"path":"rotation"
					}
				},
				{
					"sampler":11,
					"target":{
						"node":0,
						"path":"scale"
					}
				},
				{
					"sampler":12,
					"target":{
						"node":3,
						"path":"translation"
					}
				},
				{
					"sampler":13,
					"target":{
						"node":3,
						"path":"rotation"
					}
				},
				{
					"sampler":14,
					"target":{
						"node":3,
						"path":"scale"
					}
				},
				{
					"sampler":15,
					"target":{
						"node":6,
						"path":"translation"
					}
				},
				{
					"sampler":16,
					"target":{
						"node":6,
						"path":"rotation"
					}
				},
				{
					"sampler":17,
					"target":{
						"node":6,
						"path":"scale"
					}
				},
				{
					"sampler":18,
					"target":{
						"node":5,
						"path":"translation"
					}
				},
				{
					"sampler":19,
					"target":{
						"node":5,
						"path":"rotation"
					}
				},
				{
					"sampler":20,
					"target":{
						"node":5,
						"path":"scale"
					}
				},
				{
					"sampler":21,
					"target":{
						"node":4,
						"path":"translation"
					}
				},
				{
					"sampler":22,
					"target":{
						"node":4,
						"path":"rotation"
					}
				},
				{
					"sampler":23,
					"target":{
						"node":4,
						"path":"scale"
					}
				},
				{
					"sampler":24,
					"target":{
						"node":7,
						"path":"translation"
					}
				},
				{
					"sampler":25,
					"target":{
						"node":7,
						"path":"rotation"
					}
				},
				{
					"sampler":26,
					"target":{
						"node":7,
						"path":"scale"
					}
				},
				{
					"sampler":27,
					"target":{
						"node":8,
						"path":"translation"
					}
				},
				{
					"sampler":28,
					"target":{
						"node":8,
						"path":"rotation"
					}
				},
				{
					"sampler":29,
					"target":{
						"node":8,
						"path":"scale"
					}
				},
				{
					"sampler":30,
					"target":{
						"node":9,
						"path":"translation"
					}
				},
				{
					"sampler":31,
					"target":{
						"node":9,
						"path":"rotation"
					}
				},
				{
					"sampler":32,
					"target":{
						"node":9,
						"path":"scale"
					}
				},
				{
					"sampler":33,
					"target":{
						"node":10,
						"path":"translation"
					}
				},
				{
					"sampler":34,
					"target":{
						"node":10,
						"path":"rotation"
					}
				},
				{
					"sampler":35,
					"target":{
						"node":10,
						"path":"scale"
					}
				}
			],
			"name":"Attack",
			"samplers":[
				{
					"input":30,
					"interpolation":"STEP",
					"output":31
				},
				{
					"input":32,
					"interpolation":"LINEAR",
					"output":33
				},
				{
					"input":30,
					"interpolation":"STEP",
					"output":34
				},
				{
					"input":30,
					"interpolation":"LINEAR",
					"output":35
				},
				{
					"input":32,
					"interpolation":"LINEAR",
					"output":36
				},
				{
					"input":30,
					"interpolation":"STEP",
					"output":37
				},
				{
					"input":30,
					"interpolation":"STEP",
					"output":38
				},
				{
					"input":32,
					"interpolation":"LINEAR",
					"output":39
				},
				{
					"input":30,
					"interpolation":"STEP",
					"output":40
				},
				{
					"input":30,
					"interpolation":"STEP",
					"output":41
				},
				{
					"input":30,
					"interpolation":"STEP",
					"output":42
				},
				{
					"input":30,
					"interpolation":"STEP",
					"output":43
				},
				{
					"input":30,
					"interpolation":"LINEAR",
					"output":44
				},
				{
					"input":30,
					"interpolation":"LINEAR",
					"output":45
				},
				{
					"input":30,
					"interpolation":"STEP",
					"output":46
				},
				{
					"input":30,
					"interpolation":"LINEAR",
					"output":47
				},
				{
					"input":32,
					"interpolation":"LINEAR",
					"output":48
				},
				{
					"input":30,
					"interpolation":"STEP",
					"output":49
				},
				{
					"input":30,
					"interpolation":"LINEAR",
					"output":50
				},
				{
					"input":32,
					"interpolation":"LINEAR",
					"output":51
				},
				{
					"input":30,
					"interpolation":"STEP",
					"output":52
				},
				{
					"input":30,
					"interpolation":"STEP",
					"output":53
				},
				{
					"input":32,
					"interpolation":"LINEAR",
					"output":54
				},
				{
					"input":30,
					"interpolation":"STEP",
					"output":55
				},
				{
					"input":30,
					"interpolation":"STEP",
					"output":56
				},
				{
					"input":30,
					"interpolation":"STEP",
					"output":57
				},
				{
					"input":30,
					"interpolation":"STEP",
					"output":58
				},
				{
					"input":30,
					"interpolation":"STEP",
					"output":59
				},
				{
					"input":30,
					"interpolation":"STEP",
					"output":60
				},
				{
					"input":30,
					"interpolation":"STEP",
					"output":61
				},
				{
					"input":30,
					"interpolation":"STEP",
					"output":62
				},
				{
					"input":30,
					"interpolation":"STEP",
					"output":63
				},
				{
					"input":30,
					"interpolation":"STEP",
					"output":64
				},
				{
					"input":30,
					"interpolation":"STEP",
					"output":65
				},
				{
					"input":30,
					"interpolation":"STEP",
					"output":63
				},
				{
					"input":30,
					"interpolation":"STEP",
					"output":64
				}
			]
		},
		{
			"channels":[
				{
					"sampler":0,
					"target":{
						"node":11,
						"path":"translation"
					}
				},
				{
					"sampler":1,
					"target":{
						"node":11,
						"path":"rotation"
					}
				},
				{
					"sampler":2,
					"target":{
						"node":11,
						"path":"scale"
					}
				},
				{
					"sampler":3,
					"target":{
						"node":2,
						"path":"translation"
					}
				},
				{
					"sampler":4,
					"target":{
						"node":2,
						"path":"rotation"
					}
				},
				{
					"sampler":5,
					"target":{
						"node":2,
						"path":"scale"
					}
				},
				{
					"sampler":6,
					"target":{
						"node":1,
						"path":"translation"
					}
				},
				{
					"sampler":7,
					"target":{
						"node":1,
						"path":"rotation"
					}
				},
				{
					"sampler":8,
					"target":{
						"node":1,
						"path":"scale"
					}
				},
				{
					"sampler":9,
					"target":{
						"node":0,
						"path":"translation"
					}
				},
				{
					"sampler":10,
					"target":{
						"node":0,
						"path":"rotation"
					}
				},
				{
					"sampler":11,
					"target":{
						"node":0,
						"path":"scale"
					}
				},
				{
					"sampler":12,
					"target":{
						"node":3,
						"path":"translation"
					}
				},
				{
					"sampler":13,
					"target":{
						"node":3,
						"path":"rotation"
					}
				},
				{
					"sampler":14,
					"target":{
						"node":3,
						"path":"scale"
					}
				},
				{
					"sampler":15,
					"target":{
						"node":6,
						"path":"translation"
					}
				},
				{
					"sampler":16,
					"target":{
						"node":6,
						"path":"rotation"
					}
				},
				{
					"sampler":17,
					"target":{
						"node":6,
						"path":"scale"
					}
				},
				{
					"sampler":18,
					"target":{
						"node":5,
						"path":"translation"
					}
				},
				{
					"sampler":19,
					"target":{
						"node":5,
						"path":"rotation"
					}
				},
				{
					"sampler":20,
					"target":{
						"node":5,
						"path":"scale"
					}
				},
				{
					"sampler":21,
					"target":{
						"node":4,
						"path":"translation"
					}
				},
				{
					"sampler":22,
					"target":{
						"node":4,
						"path":"rotation"
					}
				},
				{
					"sampler":23,
					"target":{
						"node":4,
						"path":"scale"
					}
				},
				{
					"sampler":24,
					"target":{
						"node":7,
						"path":"translation"
					}
				},
				{
					"sampler":25,
					"target":{
						"node":7,
						"path":"rotation"
					}
				},
				{
					"sampler":26,
					"target":{
						"node":7,
						"path":"scale"
					}
				},
				{
					"sampler":27,
					"target":{
						"node":8,
						"path":"translation"
					}
				},
				{
					"sampler":28,
					"target":{
						"node":8,
						"path":"rotation"
					}
				},
				{
					"sampler":29,
					"target":{
						"node":8,
						"path":"scale"
					}
				},
				{
					"sampler":30,
					"target":{
						"node":9,
						"path":"translation"
					}
				},
				{
					"sampler":31,
					"target":{
						"node":9,
						"path":"rotation"
					}
				},
				{
					"sampler":32,
					"target":{
						"node":9,
						"path":"scale"
					}
				},
				{
					"sampler":33,
					"target":{
						"node":10,
						"path":"translation"
					}
				},
				{
					"sampler":34,
					"target":{
						"node":10,
						"path":"rotation"
					}
				},
				{
					"sampler":35,
					"target":{
						"node":10,
						"path":"scale"
					}
				}
			],
			"name":"Fall",
			"samplers":[
				{
					"input":66,
					"interpolation":"STEP",
					"output":31
				},
				{
					"input":67,
					"interpolation":"LINEAR",
					"output":68
				},
				{
					"input":66,
					"interpolation":"STEP",
					"output":69
				},
				{
					"input":66,
					"interpolation":"STEP",
					"output":70
				},
				{
					"input":67,
					"interpolation":"LINEAR",
					"output":71
				},
				{
					"input":66,
					"interpolation":"STEP",
					"output":72
				},
				{
					"input":66,
					"interpolation":"STEP",
					"output":73
				},
				{
					"input":66,
					"interpolation":"STEP",
					"output":74
				},
				{
					"input":66,
					"interpolation":"STEP",
					"output":69
				},
				{
					"input":66,
					"interpolation":"LINEAR",
					"output":75
				},
				{
					"input":67,
					"interpolation":"LINEAR",
					"output":76
				},
				{
					"input":66,
					"interpolation":"STEP",
					"output":77
				},
				{
					"input":66,
					"interpolation":"LINEAR",
					"output":78
				},
				{
					"input":67,
					"interpolation":"LINEAR",
					"output":79
				},
				{
					"input":66,
					"interpolation":"STEP",
					"output":80
				},
				{
					"input":66,
					"interpolation":"STEP",
					"output":81
				},
				{
					"input":67,
					"interpolation":"LINEAR",
					"output":82
				},
				{
					"input":66,
					"interpolation":"STEP",
					"output":83
				},
				{
					"input":66,
					"interpolation":"STEP",
					"output":84
				},
				{
					"input":66,
					"interpolation":"STEP",
					"output":85
				},
				{
					"input":66,
					"interpolation":"STEP",
					"output":69
				},
				{
					"input":66,
					"interpolation":"STEP",
					"output":86
				},
				{
					"input":66,
					"interpolation":"STEP",
					"output":87
				},
				{
					"input":66,
					"interpolation":"STEP",
					"output":88
				},
				{
					"input":66,
					"interpolation":"STEP",
					"output":89
				},
				{
					"input":66,
					"interpolation":"STEP",
					"output":90
				},
				{
					"input":66,
					"interpolation":"STEP",
					"output":69
				},
				{
					"input":66,
					"interpolation":"STEP",
					"output":91
				},
				{
					"input":66,
					"interpolation":"STEP",
					"output":92
				},
				{
					"input":66,
					"interpolation":"STEP",
					"output":69
				},
				{
					"input":66,
					"interpolation":"STEP",
					"output":93
				},
				{
					"input":67,
					"interpolation":"LINEAR",
					"output":94
				},
				{
					"input":66,
					"interpolation":"STEP",
					"output":69
				},
				{
					"input":66,
					"interpolation":"STEP",
					"output":95
				},
				{
					"input":67,
					"interpolation":"LINEAR",
					"output":96
				},
				{
					"input":66,
					"interpolation":"STEP",
					"output":69
				}
			]
		},
		{
			"channels":[
				{
					"sampler":0,
					"target":{
						"node":11,
						"path":"translation"
					}
				},
				{
					"sampler":1,
					"target":{
						"node":11,
						"path":"rotation"
					}
				},
				{
					"sampler":2,
					"target":{
						"node":11,
						"path":"scale"
					}
				},
				{
					"sampler":3,
					"target":{
						"node":2,
						"path":"translation"
					}
				},
				{
					"sampler":4,
					"target":{
						"node":2,
						"path":"rotation"
					}
				},
				{
					"sampler":5,
					"target":{
						"node":2,
						"path":"scale"
					}
				},
				{
					"sampler":6,
					"target":{
						"node":1,
						"path":"translation"
					}
				},
				{
					"sampler":7,
					"target":{
						"node":1,
						"path":"rotation"
					}
				},
				{
					"sampler":8,
					"target":{
						"node":1,
						"path":"scale"
					}
				},
				{
					"sampler":9,
					"target":{
						"node":0,
						"path":"translation"
					}
				},
				{
					"sampler":10,
					"target":{
						"node":0,
						"path":"rotation"
					}
				},
				{
					"sampler":11,
					"target":{
						"node":0,
						"path":"scale"
					}
				},
				{
					"sampler":12,
					"target":{
						"node":3,
						"path":"translation"
					}
				},
				{
					"sampler":13,
					"target":{
						"node":3,
						"path":"rotation"
					}
				},
				{
					"sampler":14,
					"target":{
						"node":3,
						"path":"scale"
					}
				},
				{
					"sampler":15,
					"target":{
						"node":6,
						"path":"translation"
					}
				},
				{
					"sampler":16,
					"target":{
						"node":6,
						"path":"rotation"
					}
				},
				{
					"sampler":17,
					"target":{
						"node":6,
						"path":"scale"
					}
				},
				{
					"sampler":18,
					"target":{
						"node":5,
						"path":"translation"
					}
				},
				{
					"sampler":19,
					"target":{
						"node":5,
						"path":"rotation"
					}
				},
				{
					"sampler":20,
					"target":{
						"node":5,
						"path":"scale"
					}
				},
				{
					"sampler":21,
					"target":{
						"node":4,
						"path":"translation"
					}
				},
				{
					"sampler":22,
					"target":{
						"node":4,
						"path":"rotation"
					}
				},
				{
					"sampler":23,
					"target":{
						"node":4,
						"path":"scale"
					}
				},
				{
					"sampler":24,
					"target":{
						"node":7,
						"path":"translation"
					}
				},
				{
					"sampler":25,
					"target":{
						"node":7,
						"path":"rotation"
					}
				},
				{
					"sampler":26,
					"target":{
						"node":7,
						"path":"scale"
					}
				},
				{
					"sampler":27,
					"target":{
						"node":8,
						"path":"translation"
					}
				},
				{
					"sampler":28,
					"target":{
						"node":8,
						"path":"rotation"
					}
				},
				{
					"sampler":29,
					"target":{
						"node":8,
						"path":"scale"
					}
				},
				{
					"sampler":30,
					"target":{
						"node":9,
						"path":"translation"
					}
				},
				{
					"sampler":31,
					"target":{
						"node":9,
						"path":"rotation"
					}
				},
				{
					"sampler":32,
					"target":{
						"node":9,
						"path":"scale"
					}
				},
				{
					"sampler":33,
					"target":{
						"node":10,
						"path":"translation"
					}
				},
				{
					"sampler":34,
					"target":{
						"node":10,
						"path":"rotation"
					}
				},
				{
					"sampler":35,
					"target":{
						"node":10,
						"path":"scale"
					}
				}
			],
			"name":"GetGravityCore",
			"samplers":[
				{
					"input":97,
					"interpolation":"LINEAR",
					"output":98
				},
				{
					"input":97,
					"interpolation":"LINEAR",
					"output":99
				},
				{
					"input":100,
					"interpolation":"STEP",
					"output":69
				},
				{
					"input":100,
					"interpolation":"LINEAR",
					"output":101
				},
				{
					"input":97,
					"interpolation":"LINEAR",
					"output":102
				},
				{
					"input":100,
					"interpolation":"STEP",
					"output":103
				},
				{
					"input":100,
					"interpolation":"STEP",
					"output":104
				},
				{
					"input":100,
					"interpolation":"STEP",
					"output":105
				},
				{
					"input":100,
					"interpolation":"STEP",
					"output":106
				},
				{
					"input":100,
					"interpolation":"STEP",
					"output":107
				},
				{
					"input":100,
					"interpolation":"STEP",
					"output":108
				},
				{
					"input":100,
					"interpolation":"STEP",
					"output":109
				},
				{
					"input":100,
					"interpolation":"LINEAR",
					"output":110
				},
				{
					"input":97,
					"interpolation":"LINEAR",
					"output":111
				},
				{
					"input":100,
					"interpolation":"STEP",
					"output":112
				},
				{
					"input":100,
					"interpolation":"LINEAR",
					"output":113
				},
				{
					"input":97,
					"interpolation":"LINEAR",
					"output":114
				},
				{
					"input":100,
					"interpolation":"STEP",
					"output":115
				},
				{
					"input":100,
					"interpolation":"STEP",
					"output":116
				},
				{
					"input":100,
					"interpolation":"STEP",
					"output":117
				},
				{
					"input":100,
					"interpolation":"STEP",
					"output":118
				},
				{
					"input":100,
					"interpolation":"STEP",
					"output":119
				},
				{
					"input":100,
					"interpolation":"STEP",
					"output":120
				},
				{
					"input":100,
					"interpolation":"STEP",
					"output":121
				},
				{
					"input":97,
					"interpolation":"LINEAR",
					"output":122
				},
				{
					"input":100,
					"interpolation":"LINEAR",
					"output":123
				},
				{
					"input":100,
					"interpolation":"STEP",
					"output":124
				},
				{
					"input":100,
					"interpolation":"STEP",
					"output":125
				},
				{
					"input":100,
					"interpolation":"STEP",
					"output":126
				},
				{
					"input":100,
					"interpolation":"STEP",
					"output":127
				},
				{
					"input":100,
					"interpolation":"LINEAR",
					"output":128
				},
				{
					"input":97,
					"interpolation":"LINEAR",
					"output":129
				},
				{
					"input":100,
					"interpolation":"STEP",
					"output":69
				},
				{
					"input":100,
					"interpolation":"LINEAR",
					"output":130
				},
				{
					"input":97,
					"interpolation":"LINEAR",
					"output":131
				},
				{
					"input":100,
					"interpolation":"STEP",
					"output":132
				}
			]
		},
		{
			"channels":[
				{
					"sampler":0,
					"target":{
						"node":11,
						"path":"translation"
					}
				},
				{
					"sampler":1,
					"target":{
						"node":11,
						"path":"rotation"
					}
				},
				{
					"sampler":2,
					"target":{
						"node":11,
						"path":"scale"
					}
				},
				{
					"sampler":3,
					"target":{
						"node":2,
						"path":"translation"
					}
				},
				{
					"sampler":4,
					"target":{
						"node":2,
						"path":"rotation"
					}
				},
				{
					"sampler":5,
					"target":{
						"node":2,
						"path":"scale"
					}
				},
				{
					"sampler":6,
					"target":{
						"node":1,
						"path":"translation"
					}
				},
				{
					"sampler":7,
					"target":{
						"node":1,
						"path":"rotation"
					}
				},
				{
					"sampler":8,
					"target":{
						"node":1,
						"path":"scale"
					}
				},
				{
					"sampler":9,
					"target":{
						"node":0,
						"path":"translation"
					}
				},
				{
					"sampler":10,
					"target":{
						"node":0,
						"path":"rotation"
					}
				},
				{
					"sampler":11,
					"target":{
						"node":0,
						"path":"scale"
					}
				},
				{
					"sampler":12,
					"target":{
						"node":3,
						"path":"translation"
					}
				},
				{
					"sampler":13,
					"target":{
						"node":3,
						"path":"rotation"
					}
				},
				{
					"sampler":14,
					"target":{
						"node":3,
						"path":"scale"
					}
				},
				{
					"sampler":15,
					"target":{
						"node":6,
						"path":"translation"
					}
				},
				{
					"sampler":16,
					"target":{
						"node":6,
						"path":"rotation"
					}
				},
				{
					"sampler":17,
					"target":{
						"node":6,
						"path":"scale"
					}
				},
				{
					"sampler":18,
					"target":{
						"node":5,
						"path":"translation"
					}
				},
				{
					"sampler":19,
					"target":{
						"node":5,
						"path":"rotation"
					}
				},
				{
					"sampler":20,
					"target":{
						"node":5,
						"path":"scale"
					}
				},
				{
					"sampler":21,
					"target":{
						"node":4,
						"path":"translation"
					}
				},
				{
					"sampler":22,
					"target":{
						"node":4,
						"path":"rotation"
					}
				},
				{
					"sampler":23,
					"target":{
						"node":4,
						"path":"scale"
					}
				},
				{
					"sampler":24,
					"target":{
						"node":7,
						"path":"translation"
					}
				},
				{
					"sampler":25,
					"target":{
						"node":7,
						"path":"rotation"
					}
				},
				{
					"sampler":26,
					"target":{
						"node":7,
						"path":"scale"
					}
				},
				{
					"sampler":27,
					"target":{
						"node":8,
						"path":"translation"
					}
				},
				{
					"sampler":28,
					"target":{
						"node":8,
						"path":"rotation"
					}
				},
				{
					"sampler":29,
					"target":{
						"node":8,
						"path":"scale"
					}
				},
				{
					"sampler":30,
					"target":{
						"node":9,
						"path":"translation"
					}
				},
				{
					"sampler":31,
					"target":{
						"node":9,
						"path":"rotation"
					}
				},
				{
					"sampler":32,
					"target":{
						"node":9,
						"path":"scale"
					}
				},
				{
					"sampler":33,
					"target":{
						"node":10,
						"path":"translation"
					}
				},
				{
					"sampler":34,
					"target":{
						"node":10,
						"path":"rotation"
					}
				},
				{
					"sampler":35,
					"target":{
						"node":10,
						"path":"scale"
					}
				}
			],
			"name":"GetGravityCore.001",
			"samplers":[
				{
					"input":97,
					"interpolation":"LINEAR",
					"output":98
				},
				{
					"input":97,
					"interpolation":"LINEAR",
					"output":99
				},
				{
					"input":100,
					"interpolation":"STEP",
					"output":69
				},
				{
					"input":100,
					"interpolation":"LINEAR",
					"output":101
				},
				{
					"input":97,
					"interpolation":"LINEAR",
					"output":102
				},
				{
					"input":100,
					"interpolation":"STEP",
					"output":103
				},
				{
					"input":100,
					"interpolation":"STEP",
					"output":104
				},
				{
					"input":100,
					"interpolation":"STEP",
					"output":105
				},
				{
					"input":100,
					"interpolation":"STEP",
					"output":106
				},
				{
					"input":100,
					"interpolation":"STEP",
					"output":107
				},
				{
					"input":100,
					"interpolation":"STEP",
					"output":108
				},
				{
					"input":100,
					"interpolation":"STEP",
					"output":109
				},
				{
					"input":100,
					"interpolation":"LINEAR",
					"output":110
				},
				{
					"input":97,
					"interpolation":"LINEAR",
					"output":111
				},
				{
					"input":100,
					"interpolation":"STEP",
					"output":112
				},
				{
					"input":100,
					"interpolation":"LINEAR",
					"output":113
				},
				{
					"input":97,
					"interpolation":"LINEAR",
					"output":114
				},
				{
					"input":100,
					"interpolation":"STEP",
					"output":115
				},
				{
					"input":100,
					"interpolation":"STEP",
					"output":116
				},
				{
					"input":100,
					"interpolation":"STEP",
					"output":117
				},
				{
					"input":100,
					"interpolation":"STEP",
					"output":118
				},
				{
					"input":100,
					"interpolation":"STEP",
					"output":119
				},
				{
					"input":100,
					"interpolation":"STEP",
					"output":120
				},
				{
					"input":100,
					"interpolation":"STEP",
					"output":121
				},
				{
					"input":97,
					"interpolation":"LINEAR",
					"output":122
				},
				{
					"input":100,
					"interpolation":"LINEAR",
					"output":123
				},
				{
					"input":100,
					"interpolation":"STEP",
					"output":124
				},
				{
					"input":100,
					"interpolation":"STEP",
					"output":125
				},
				{
					"input":100,
					"interpolation":"STEP",
					"output":126
				},
				{
					"input":100,
					"interpolation":"STEP",
					"output":127
				},
				{
					"input":100,
					"interpolation":"LINEAR",
					"output":128
				},
				{
					"input":97,
					"interpolation":"LINEAR",
					"output":129
				},
				{
					"input":100,
					"interpolation":"STEP",
					"output":69
				},
				{
					"input":100,
					"interpolation":"LINEAR",
					"output":130
				},
				{
					"input":97,
					"interpolation":"LINEAR",
					"output":131
				},
				{
					"input":100,
					"interpolation":"STEP",
					"output":132
				}
			]
		},
		{
			"channels":[
				{
					"sampler":0,
					"target":{
						"node":11,
						"path":"translation"
					}
				},
				{
					"sampler":1,
					"target":{
						"node":11,
						"path":"rotation"
					}
				},
				{
					"sampler":2,
					"target":{
						"node":11,
						"path":"scale"
					}
				},
				{
					"sampler":3,
					"target":{
						"node":2,
						"path":"translation"
					}
				},
				{
					"sampler":4,
					"target":{
						"node":2,
						"path":"rotation"
					}
				},
				{
					"sampler":5,
					"target":{
						"node":2,
						"path":"scale"
					}
				},
				{
					"sampler":6,
					"target":{
						"node":1,
						"path":"translation"
					}
				},
				{
					"sampler":7,
					"target":{
						"node":1,
						"path":"rotation"
					}
				},
				{
					"sampler":8,
					"target":{
						"node":1,
						"path":"scale"
					}
				},
				{
					"sampler":9,
					"target":{
						"node":0,
						"path":"translation"
					}
				},
				{
					"sampler":10,
					"target":{
						"node":0,
						"path":"rotation"
					}
				},
				{
					"sampler":11,
					"target":{
						"node":0,
						"path":"scale"
					}
				},
				{
					"sampler":12,
					"target":{
						"node":3,
						"path":"translation"
					}
				},
				{
					"sampler":13,
					"target":{
						"node":3,
						"path":"rotation"
					}
				},
				{
					"sampler":14,
					"target":{
						"node":3,
						"path":"scale"
					}
				},
				{
					"sampler":15,
					"target":{
						"node":6,
						"path":"translation"
					}
				},
				{
					"sampler":16,
					"target":{
						"node":6,
						"path":"rotation"
					}
				},
				{
					"sampler":17,
					"target":{
						"node":6,
						"path":"scale"
					}
				},
				{
					"sampler":18,
					"target":{
						"node":5,
						"path":"translation"
					}
				},
				{
					"sampler":19,
					"target":{
						"node":5,
						"path":"rotation"
					}
				},
				{
					"sampler":20,
					"target":{
						"node":5,
						"path":"scale"
					}
				},
				{
					"sampler":21,
					"target":{
						"node":4,
						"path":"translation"
					}
				},
				{
					"sampler":22,
					"target":{
						"node":4,
						"path":"rotation"
					}
				},
				{
					"sampler":23,
					"target":{
						"node":4,
						"path":"scale"
					}
				},
				{
					"sampler":24,
					"target":{
						"node":7,
						"path":"translation"
					}
				},
				{
					"sampler":25,
					"target":{
						"node":7,
						"path":"rotation"
					}
				},
				{
					"sampler":26,
					"target":{
						"node":7,
						"path":"scale"
					}
				},
				{
					"sampler":27,
					"target":{
						"node":8,
						"path":"translation"
					}
				},
				{
					"sampler":28,
					"target":{
						"node":8,
						"path":"rotation"
					}
				},
				{
					"sampler":29,
					"target":{
						"node":8,
						"path":"scale"
					}
				},
				{
					"sampler":30,
					"target":{
						"node":9,
						"path":"translation"
					}
				},
				{
					"sampler":31,
					"target":{
						"node":9,
						"path":"rotation"
					}
				},
				{
					"sampler":32,
					"target":{
						"node":9,
						"path":"scale"
					}
				},
				{
					"sampler":33,
					"target":{
						"node":10,
						"path":"translation"
					}
				},
				{
					"sampler":34,
					"target":{
						"node":10,
						"path":"rotation"
					}
				},
				{
					"sampler":35,
					"target":{
						"node":10,
						"path":"scale"
					}
				}
			],
			"name":"Idle",
			"samplers":[
				{
					"input":133,
					"interpolation":"LINEAR",
					"output":134
				},
				{
					"input":135,
					"interpolation":"STEP",
					"output":92
				},
				{
					"input":135,
					"interpolation":"STEP",
					"output":69
				},
				{
					"input":133,
					"interpolation":"LINEAR",
					"output":136
				},
				{
					"input":135,
					"interpolation":"STEP",
					"output":137
				},
				{
					"input":135,
					"interpolation":"STEP",
					"output":138
				},
				{
					"input":135,
					"interpolation":"STEP",
					"output":139
				},
				{
					"input":135,
					"interpolation":"STEP",
					"output":140
				},
				{
					"input":135,
					"interpolation":"STEP",
					"output":69
				},
				{
					"input":135,
					"interpolation":"STEP",
					"output":141
				},
				{
					"input":135,
					"interpolation":"STEP",
					"output":142
				},
				{
					"input":135,
					"interpolation":"STEP",
					"output":69
				},
				{
					"input":135,
					"interpolation":"STEP",
					"output":143
				},
				{
					"input":135,
					"interpolation":"STEP",
					"output":144
				},
				{
					"input":135,
					"interpolation":"STEP",
					"output":80
				},
				{
					"input":133,
					"interpolation":"LINEAR",
					"output":145
				},
				{
					"input":135,
					"interpolation":"STEP",
					"output":146
				},
				{
					"input":135,
					"interpolation":"STEP",
					"output":138
				},
				{
					"input":135,
					"interpolation":"STEP",
					"output":147
				},
				{
					"input":135,
					"interpolation":"STEP",
					"output":148
				},
				{
					"input":135,
					"interpolation":"STEP",
					"output":149
				},
				{
					"input":135,
					"interpolation":"STEP",
					"output":150
				},
				{
					"input":135,
					"interpolation":"STEP",
					"output":151
				},
				{
					"input":135,
					"interpolation":"STEP",
					"output":152
				},
				{
					"input":135,
					"interpolation":"STEP",
					"output":89
				},
				{
					"input":135,
					"interpolation":"STEP",
					"output":90
				},
				{
					"input":135,
					"interpolation":"STEP",
					"output":69
				},
				{
					"input":135,
					"interpolation":"STEP",
					"output":91
				},
				{
					"input":135,
					"interpolation":"STEP",
					"output":92
				},
				{
					"input":135,
					"interpolation":"STEP",
					"output":69
				},
				{
					"input":135,
					"interpolation":"STEP",
					"output":93
				},
				{
					"input":135,
					"interpolation":"STEP",
					"output":153
				},
				{
					"input":135,
					"interpolation":"STEP",
					"output":69
				},
				{
					"input":135,
					"interpolation":"STEP",
					"output":95
				},
				{
					"input":135,
					"interpolation":"STEP",
					"output":153
				},
				{
					"input":135,
					"interpolation":"STEP",
					"output":69
				}
			]
		},
		{
			"channels":[
				{
					"sampler":0,
					"target":{
						"node":11,
						"path":"translation"
					}
				},
				{
					"sampler":1,
					"target":{
						"node":11,
						"path":"rotation"
					}
				},
				{
					"sampler":2,
					"target":{
						"node":11,
						"path":"scale"
					}
				},
				{
					"sampler":3,
					"target":{
						"node":2,
						"path":"translation"
					}
				},
				{
					"sampler":4,
					"target":{
						"node":2,
						"path":"rotation"
					}
				},
				{
					"sampler":5,
					"target":{
						"node":2,
						"path":"scale"
					}
				},
				{
					"sampler":6,
					"target":{
						"node":1,
						"path":"translation"
					}
				},
				{
					"sampler":7,
					"target":{
						"node":1,
						"path":"rotation"
					}
				},
				{
					"sampler":8,
					"target":{
						"node":1,
						"path":"scale"
					}
				},
				{
					"sampler":9,
					"target":{
						"node":0,
						"path":"translation"
					}
				},
				{
					"sampler":10,
					"target":{
						"node":0,
						"path":"rotation"
					}
				},
				{
					"sampler":11,
					"target":{
						"node":0,
						"path":"scale"
					}
				},
				{
					"sampler":12,
					"target":{
						"node":3,
						"path":"translation"
					}
				},
				{
					"sampler":13,
					"target":{
						"node":3,
						"path":"rotation"
					}
				},
				{
					"sampler":14,
					"target":{
						"node":3,
						"path":"scale"
					}
				},
				{
					"sampler":15,
					"target":{
						"node":6,
						"path":"translation"
					}
				},
				{
					"sampler":16,
					"target":{
						"node":6,
						"path":"rotation"
					}
				},
				{
					"sampler":17,
					"target":{
						"node":6,
						"path":"scale"
					}
				},
				{
					"sampler":18,
					"target":{
						"node":5,
						"path":"translation"
					}
				},
				{
					"sampler":19,
					"target":{
						"node":5,
						"path":"rotation"
					}
				},
				{
					"sampler":20,
					"target":{
						"node":5,
						"path":"scale"
					}
				},
				{
					"sampler":21,
					"target":{
						"node":4,
						"path":"translation"
					}
				},
				{
					"sampler":22,
					"target":{
						"node":4,
						"path":"rotation"
					}
				},
				{
					"sampler":23,
					"target":{
						"node":4,
						"path":"scale"
					}
				},
				{
					"sampler":24,
					"target":{
						"node":7,
						"path":"translation"
					}
				},
				{
					"sampler":25,
					"target":{
						"node":7,
						"path":"rotation"
					}
				},
				{
					"sampler":26,
					"target":{
						"node":7,
						"path":"scale"
					}
				},
				{
					"sampler":27,
					"target":{
						"node":8,
						"path":"translation"
					}
				},
				{
					"sampler":28,
					"target":{
						"node":8,
						"path":"rotation"
					}
				},
				{
					"sampler":29,
					"target":{
						"node":8,
						"path":"scale"
					}
				},
				{
					"sampler":30,
					"target":{
						"node":9,
						"path":"translation"
					}
				},
				{
					"sampler":31,
					"target":{
						"node":9,
						"path":"rotation"
					}
				},
				{
					"sampler":32,
					"target":{
						"node":9,
						"path":"scale"
					}
				},
				{
					"sampler":33,
					"target":{
						"node":10,
						"path":"translation"
					}
				},
				{
					"sampler":34,
					"target":{
						"node":10,
						"path":"rotation"
					}
				},
				{
					"sampler":35,
					"target":{
						"node":10,
						"path":"scale"
					}
				}
			],
			"name":"Jump",
			"samplers":[
				{
					"input":135,
					"interpolation":"STEP",
					"output":154
				},
				{
					"input":133,
					"interpolation":"LINEAR",
					"output":155
				},
				{
					"input":135,
					"interpolation":"STEP",
					"output":69
				},
				{
					"input":135,
					"interpolation":"LINEAR",
					"output":156
				},
				{
					"input":133,
					"interpolation":"LINEAR",
					"output":157
				},
				{
					"input":135,
					"interpolation":"STEP",
					"output":158
				},
				{
					"input":135,
					"interpolation":"STEP",
					"output":159
				},
				{
					"input":135,
					"interpolation":"STEP",
					"output":160
				},
				{
					"input":135,
					"interpolation":"STEP",
					"output":161
				},
				{
					"input":135,
					"interpolation":"STEP",
					"output":162
				},
				{
					"input":135,
					"interpolation":"STEP",
					"output":163
				},
				{
					"input":135,
					"interpolation":"STEP",
					"output":164
				},
				{
					"input":135,
					"interpolation":"LINEAR",
					"output":165
				},
				{
					"input":133,
					"interpolation":"LINEAR",
					"output":166
				},
				{
					"input":135,
					"interpolation":"STEP",
					"output":167
				},
				{
					"input":135,
					"interpolation":"LINEAR",
					"output":168
				},
				{
					"input":133,
					"interpolation":"LINEAR",
					"output":169
				},
				{
					"input":135,
					"interpolation":"STEP",
					"output":170
				},
				{
					"input":135,
					"interpolation":"STEP",
					"output":171
				},
				{
					"input":135,
					"interpolation":"STEP",
					"output":172
				},
				{
					"input":135,
					"interpolation":"STEP",
					"output":69
				},
				{
					"input":135,
					"interpolation":"STEP",
					"output":173
				},
				{
					"input":135,
					"interpolation":"STEP",
					"output":174
				},
				{
					"input":135,
					"interpolation":"STEP",
					"output":175
				},
				{
					"input":135,
					"interpolation":"STEP",
					"output":89
				},
				{
					"input":135,
					"interpolation":"STEP",
					"output":90
				},
				{
					"input":135,
					"interpolation":"STEP",
					"output":69
				},
				{
					"input":135,
					"interpolation":"STEP",
					"output":176
				},
				{
					"input":135,
					"interpolation":"STEP",
					"output":92
				},
				{
					"input":135,
					"interpolation":"STEP",
					"output":69
				},
				{
					"input":135,
					"interpolation":"LINEAR",
					"output":177
				},
				{
					"input":133,
					"interpolation":"LINEAR",
					"output":178
				},
				{
					"input":135,
					"interpolation":"STEP",
					"output":64
				},
				{
					"input":135,
					"interpolation":"LINEAR",
					"output":179
				},
				{
					"input":133,
					"interpolation":"LINEAR",
					"output":180
				},
				{
					"input":135,
					"interpolation":"STEP",
					"output":69
				}
			]
		},
		{
			"channels":[
				{
					"sampler":0,
					"target":{
						"node":11,
						"path":"translation"
					}
				},
				{
					"sampler":1,
					"target":{
						"node":11,
						"path":"rotation"
					}
				},
				{
					"sampler":2,
					"target":{
						"node":11,
						"path":"scale"
					}
				},
				{
					"sampler":3,
					"target":{
						"node":2,
						"path":"translation"
					}
				},
				{
					"sampler":4,
					"target":{
						"node":2,
						"path":"rotation"
					}
				},
				{
					"sampler":5,
					"target":{
						"node":2,
						"path":"scale"
					}
				},
				{
					"sampler":6,
					"target":{
						"node":1,
						"path":"translation"
					}
				},
				{
					"sampler":7,
					"target":{
						"node":1,
						"path":"rotation"
					}
				},
				{
					"sampler":8,
					"target":{
						"node":1,
						"path":"scale"
					}
				},
				{
					"sampler":9,
					"target":{
						"node":0,
						"path":"translation"
					}
				},
				{
					"sampler":10,
					"target":{
						"node":0,
						"path":"rotation"
					}
				},
				{
					"sampler":11,
					"target":{
						"node":0,
						"path":"scale"
					}
				},
				{
					"sampler":12,
					"target":{
						"node":3,
						"path":"translation"
					}
				},
				{
					"sampler":13,
					"target":{
						"node":3,
						"path":"rotation"
					}
				},
				{
					"sampler":14,
					"target":{
						"node":3,
						"path":"scale"
					}
				},
				{
					"sampler":15,
					"target":{
						"node":6,
						"path":"translation"
					}
				},
				{
					"sampler":16,
					"target":{
						"node":6,
						"path":"rotation"
					}
				},
				{
					"sampler":17,
					"target":{
						"node":6,
						"path":"scale"
					}
				},
				{
					"sampler":18,
					"target":{
						"node":5,
						"path":"translation"
					}
				},
				{
					"sampler":19,
					"target":{
						"node":5,
						"path":"rotation"
					}
				},
				{
					"sampler":20,
					"target":{
						"node":5,
						"path":"scale"
					}
				},
				{
					"sampler":21,
					"target":{
						"node":4,
						"path":"translation"
					}
				},
				{
					"sampler":22,
					"target":{
						"node":4,
						"path":"rotation"
					}
				},
				{
					"sampler":23,
					"target":{
						"node":4,
						"path":"scale"
					}
				},
				{
					"sampler":24,
					"target":{
						"node":7,
						"path":"translation"
					}
				},
				{
					"sampler":25,
					"target":{
						"node":7,
						"path":"rotation"
					}
				},
				{
					"sampler":26,
					"target":{
						"node":7,
						"path":"scale"
					}
				},
				{
					"sampler":27,
					"target":{
						"node":8,
						"path":"translation"
					}
				},
				{
					"sampler":28,
					"target":{
						"node":8,
						"path":"rotation"
					}
				},
				{
					"sampler":29,
					"target":{
						"node":8,
						"path":"scale"
					}
				},
				{
					"sampler":30,
					"target":{
						"node":9,
						"path":"translation"
					}
				},
				{
					"sampler":31,
					"target":{
						"node":9,
						"path":"rotation"
					}
				},
				{
					"sampler":32,
					"target":{
						"node":9,
						"path":"scale"
					}
				},
				{
					"sampler":33,
					"target":{
						"node":10,
						"path":"translation"
					}
				},
				{
					"sampler":34,
					"target":{
						"node":10,
						"path":"rotation"
					}
				},
				{
					"sampler":35,
					"target":{
						"node":10,
						"path":"scale"
					}
				},
				{
					"sampler":0,
					"target":{
						"node":11,
						"path":"translation"
					}
				},
				{
					"sampler":1,
					"target":{
						"node":11,
						"path":"rotation"
					}
				},
				{
					"sampler":2,
					"target":{
						"node":11,
						"path":"scale"
					}
				},
				{
					"sampler":3,
					"target":{
						"node":2,
						"path":"translation"
					}
				},
				{
					"sampler":4,
					"target":{
						"node":2,
						"path":"rotation"
					}
				},
				{
					"sampler":5,
					"target":{
						"node":2,
						"path":"scale"
					}
				},
				{
					"sampler":6,
					"target":{
						"node":1,
						"path":"translation"
					}
				},
				{
					"sampler":7,
					"target":{
						"node":1,
						"path":"rotation"
					}
				},
				{
					"sampler":8,
					"target":{
						"node":1,
						"path":"scale"
					}
				},
				{
					"sampler":9,
					"target":{
						"node":0,
						"path":"translation"
					}
				},
				{
					"sampler":10,
					"target":{
						"node":0,
						"path":"rotation"
					}
				},
				{
					"sampler":11,
					"target":{
						"node":0,
						"path":"scale"
					}
				},
				{
					"sampler":12,
					"target":{
						"node":3,
						"path":"translation"
					}
				},
				{
					"sampler":13,
					"target":{
						"node":3,
						"path":"rotation"
					}
				},
				{
					"sampler":14,
					"target":{
						"node":3,
						"path":"scale"
					}
				},
				{
					"sampler":15,
					"target":{
						"node":6,
						"path":"translation"
					}
				},
				{
					"sampler":16,
					"target":{
						"node":6,
						"path":"rotation"
					}
				},
				{
					"sampler":17,
					"target":{
						"node":6,
						"path":"scale"
					}
				},
				{
					"sampler":18,
					"target":{
						"node":5,
						"path":"translation"
					}
				},
				{
					"sampler":19,
					"target":{
						"node":5,
						"path":"rotation"
					}
				},
				{
					"sampler":20,
					"target":{
						"node":5,
						"path":"scale"
					}
				},
				{
					"sampler":21,
					"target":{
						"node":4,
						"path":"translation"
					}
				},
				{
					"sampler":22,
					"target":{
						"node":4,
						"path":"rotation"
					}
				},
				{
					"sampler":23,
					"target":{
						"node":4,
						"path":"scale"
					}
				},
				{
					"sampler":24,
					"target":{
						"node":7,
						"path":"translation"
					}
				},
				{
					"sampler":25,
					"target":{
						"node":7,
						"path":"rotation"
					}
				},
				{
					"sampler":26,
					"target":{
						"node":7,
						"path":"scale"
					}
				},
				{
					"sampler":27,
					"target":{
						"node":8,
						"path":"translation"
					}
				},
				{
					"sampler":28,
					"target":{
						"node":8,
						"path":"rotation"
					}
				},
				{
					"sampler":29,
					"target":{
						"node":8,
						"path":"scale"
					}
				},
				{
					"sampler":30,
					"target":{
						"node":9,
						"path":"translation"
					}
				},
				{
					"sampler":31,
					"target":{
						"node":9,
						"path":"rotation"
					}
				},
				{
					"sampler":32,
					"target":{
						"node":9,
						"path":"scale"
					}
				},
				{
					"sampler":33,
					"target":{
						"node":10,
						"path":"translation"
					}
				},
				{
					"sampler":34,
					"target":{
						"node":10,
						"path":"rotation"
					}
				},
				{
					"sampler":35,
					"target":{
						"node":10,
						"path":"scale"
					}
				}
			],
			"name":"ParasolFall",
			"samplers":[
				{
					"input":181,
					"interpolation":"STEP",
					"output":31
				},
				{
					"input":182,
					"interpolation":"LINEAR",
					"output":183
				},
				{
					"input":181,
					"interpolation":"STEP",
					"output":69
				},
				{
					"input":181,
					"interpolation":"STEP",
					"output":70
				},
				{
					"input":181,
					"interpolation":"STEP",
					"output":184
				},
				{
					"input":181,
					"interpolation":"STEP",
					"output":69
				},
				{
					"input":181,
					"interpolation":"STEP",
					"output":185
				},
				{
					"input":181,
					"interpolation":"STEP",
					"output":186
				},
				{
					"input":181,
					"interpolation":"STEP",
					"output":69
				},
				{
					"input":181,
					"interpolation":"STEP",
					"output":187
				},
				{
					"input":182,
					"interpolation":"LINEAR",
					"output":188
				},
				{
					"input":181,
					"interpolation":"STEP",
					"output":189
				},
				{
					"input":181,
					"interpolation":"LINEAR",
					"output":78
				},
				{
					"input":182,
					"interpolation":"LINEAR",
					"output":190
				},
				{
					"input":181,
					"interpolation":"STEP",
					"output":80
				},
				{
					"input":181,
					"interpolation":"STEP",
					"output":191
				},
				{
					"input":181,
					"interpolation":"STEP",
					"output":192
				},
				{
					"input":181,
					"interpolation":"STEP",
					"output":69
				},
				{
					"input":181,
					"interpolation":"STEP",
					"output":193
				},
				{
					"input":181,
					"interpolation":"STEP",
					"output":92
				},
				{
					"input":181,
					"interpolation":"STEP",
					"output":69
				},
				{
					"input":181,
					"interpolation":"STEP",
					"output":194
				},
				{
					"input":181,
					"interpolation":"STEP",
					"output":195
				},
				{
					"input":181,
					"interpolation":"STEP",
					"output":196
				},
				{
					"input":181,
					"interpolation":"STEP",
					"output":89
				},
				{
					"input":181,
					"interpolation":"STEP",
					"output":90
				},
				{
					"input":181,
					"interpolation":"STEP",
					"output":69
				},
				{
					"input":181,
					"interpolation":"STEP",
					"output":91
				},
				{
					"input":181,
					"interpolation":"STEP",
					"output":92
				},
				{
					"input":181,
					"interpolation":"STEP",
					"output":69
				},
				{
					"input":181,
					"interpolation":"STEP",
					"output":93
				},
				{
					"input":182,
					"interpolation":"LINEAR",
					"output":197
				},
				{
					"input":181,
					"interpolation":"STEP",
					"output":69
				},
				{
					"input":181,
					"interpolation":"STEP",
					"output":95
				},
				{
					"input":182,
					"interpolation":"LINEAR",
					"output":198
				},
				{
					"input":181,
					"interpolation":"STEP",
					"output":69
				}
			]
		},
		{
			"channels":[
				{
					"sampler":0,
					"target":{
						"node":11,
						"path":"translation"
					}
				},
				{
					"sampler":1,
					"target":{
						"node":11,
						"path":"rotation"
					}
				},
				{
					"sampler":2,
					"target":{
						"node":11,
						"path":"scale"
					}
				},
				{
					"sampler":3,
					"target":{
						"node":2,
						"path":"translation"
					}
				},
				{
					"sampler":4,
					"target":{
						"node":2,
						"path":"rotation"
					}
				},
				{
					"sampler":5,
					"target":{
						"node":2,
						"path":"scale"
					}
				},
				{
					"sampler":6,
					"target":{
						"node":1,
						"path":"translation"
					}
				},
				{
					"sampler":7,
					"target":{
						"node":1,
						"path":"rotation"
					}
				},
				{
					"sampler":8,
					"target":{
						"node":1,
						"path":"scale"
					}
				},
				{
					"sampler":9,
					"target":{
						"node":0,
						"path":"translation"
					}
				},
				{
					"sampler":10,
					"target":{
						"node":0,
						"path":"rotation"
					}
				},
				{
					"sampler":11,
					"target":{
						"node":0,
						"path":"scale"
					}
				},
				{
					"sampler":12,
					"target":{
						"node":3,
						"path":"translation"
					}
				},
				{
					"sampler":13,
					"target":{
						"node":3,
						"path":"rotation"
					}
				},
				{
					"sampler":14,
					"target":{
						"node":3,
						"path":"scale"
					}
				},
				{
					"sampler":15,
					"target":{
						"node":6,
						"path":"translation"
					}
				},
				{
					"sampler":16,
					"target":{
						"node":6,
						"path":"rotation"
					}
				},
				{
					"sampler":17,
					"target":{
						"node":6,
						"path":"scale"
					}
				},
				{
					"sampler":18,
					"target":{
						"node":5,
						"path":"translation"
					}
				},
				{
					"sampler":19,
					"target":{
						"node":5,
						"path":"rotation"
					}
				},
				{
					"sampler":20,
					"target":{
						"node":5,
						"path":"scale"
					}
				},
				{
					"sampler":21,
					"target":{
						"node":4,
						"path":"translation"
					}
				},
				{
					"sampler":22,
					"target":{
						"node":4,
						"path":"rotation"
					}
				},
				{
					"sampler":23,
					"target":{
						"node":4,
						"path":"scale"
					}
				},
				{
					"sampler":24,
					"target":{
						"node":7,
						"path":"translation"
					}
				},
				{
					"sampler":25,
					"target":{
						"node":7,
						"path":"rotation"
					}
				},
				{
					"sampler":26,
					"target":{
						"node":7,
						"path":"scale"
					}
				},
				{
					"sampler":27,
					"target":{
						"node":8,
						"path":"translation"
					}
				},
				{
					"sampler":28,
					"target":{
						"node":8,
						"path":"rotation"
					}
				},
				{
					"sampler":29,
					"target":{
						"node":8,
						"path":"scale"
					}
				},
				{
					"sampler":30,
					"target":{
						"node":9,
						"path":"translation"
					}
				},
				{
					"sampler":31,
					"target":{
						"node":9,
						"path":"rotation"
					}
				},
				{
					"sampler":32,
					"target":{
						"node":9,
						"path":"scale"
					}
				},
				{
					"sampler":33,
					"target":{
						"node":10,
						"path":"translation"
					}
				},
				{
					"sampler":34,
					"target":{
						"node":10,
						"path":"rotation"
					}
				},
				{
					"sampler":35,
					"target":{
						"node":10,
						"path":"scale"
					}
				}
			],
			"name":"Walk",
			"samplers":[
				{
					"input":199,
					"interpolation":"STEP",
					"output":200
				},
				{
					"input":201,
					"interpolation":"LINEAR",
					"output":202
				},
				{
					"input":199,
					"interpolation":"STEP",
					"output":203
				},
				{
					"input":199,
					"interpolation":"STEP",
					"output":204
				},
				{
					"input":201,
					"interpolation":"LINEAR",
					"output":205
				},
				{
					"input":199,
					"interpolation":"STEP",
					"output":206
				},
				{
					"input":199,
					"interpolation":"STEP",
					"output":207
				},
				{
					"input":199,
					"interpolation":"LINEAR",
					"output":208
				},
				{
					"input":199,
					"interpolation":"STEP",
					"output":209
				},
				{
					"input":199,
					"interpolation":"STEP",
					"output":210
				},
				{
					"input":199,
					"interpolation":"STEP",
					"output":211
				},
				{
					"input":199,
					"interpolation":"STEP",
					"output":212
				},
				{
					"input":199,
					"interpolation":"STEP",
					"output":143
				},
				{
					"input":199,
					"interpolation":"LINEAR",
					"output":213
				},
				{
					"input":199,
					"interpolation":"STEP",
					"output":80
				},
				{
					"input":199,
					"interpolation":"STEP",
					"output":214
				},
				{
					"input":201,
					"interpolation":"LINEAR",
					"output":215
				},
				{
					"input":199,
					"interpolation":"STEP",
					"output":216
				},
				{
					"input":199,
					"interpolation":"STEP",
					"output":217
				},
				{
					"input":199,
					"interpolation":"LINEAR",
					"output":218
				},
				{
					"input":199,
					"interpolation":"STEP",
					"output":164
				},
				{
					"input":199,
					"interpolation":"STEP",
					"output":219
				},
				{
					"input":199,
					"interpolation":"STEP",
					"output":220
				},
				{
					"input":199,
					"interpolation":"STEP",
					"output":221
				},
				{
					"input":199,
					"interpolation":"STEP",
					"output":222
				},
				{
					"input":199,
					"interpolation":"STEP",
					"output":90
				},
				{
					"input":199,
					"interpolation":"STEP",
					"output":69
				},
				{
					"input":199,
					"interpolation":"STEP",
					"output":223
				},
				{
					"input":199,
					"interpolation":"STEP",
					"output":92
				},
				{
					"input":199,
					"interpolation":"STEP",
					"output":69
				},
				{
					"input":199,
					"interpolation":"STEP",
					"output":224
				},
				{
					"input":201,
					"interpolation":"LINEAR",
					"output":225
				},
				{
					"input":199,
					"interpolation":"STEP",
					"output":226
				},
				{
					"input":199,
					"interpolation":"STEP",
					"output":227
				},
				{
					"input":201,
					"interpolation":"LINEAR",
					"output":228
				},
				{
					"input":199,
					"interpolation":"STEP",
					"output":58
				}
			]
		}
	],
	"materials":[
		{
			"doubleSided":true,
			"name":"\u30de\u30c6\u30ea\u30a2\u30eb",
			"pbrMetallicRoughness":{
				"baseColorTexture":{
					"index":0
				},
				"metallicFactor":0,
				"roughnessFactor":0.5
			}
		}
	],
	"meshes":[
		{
			"name":"\u7acb\u65b9\u4f53.002",
			"primitives":[
				{
					"attributes":{
						"POSITION":0,
						"NORMAL":1,
						"TEXCOORD_0":2,
						"JOINTS_0":3,
						"WEIGHTS_0":4
					},
					"indices":5
				}
			]
		},
		{
			"name":"\u7acb\u65b9\u4f53.001",
			"primitives":[
				{
					"attributes":{
						"POSITION":7,
						"NORMAL":8,
						"TEXCOORD_0":9,
						"JOINTS_0":10,
						"WEIGHTS_0":11
					},
					"indices":12
				}
			]
		},
		{
			"name":"\u7acb\u65b9\u4f53.003",
			"primitives":[
				{
					"attributes":{
						"POSITION":13,
						"NORMAL":14,
						"TEXCOORD_0":15,
						"JOINTS_0":16,
						"WEIGHTS_0":17
					},
					"indices":18
				}
			]
		},
		{
			"name":"\u7acb\u65b9\u4f53.005",
			"primitives":[
				{
					"attributes":{
						"POSITION":19,
						"NORMAL":20,
						"TEXCOORD_0":21,
						"JOINTS_0":22,
						"WEIGHTS_0":23
					},
					"indices":12
				}
			]
		},
		{
			"name":"\u7acb\u65b9\u4f53",
			"primitives":[
				{
					"attributes":{
						"POSITION":24,
						"NORMAL":25,
						"TEXCOORD_0":26,
						"JOINTS_0":27,
						"WEIGHTS_0":28
					},
					"indices":29,
					"material":0
				}
			]
		}
	],
	"textures":[
		{
			"sampler":0,
			"source":0
		}
	],
	"images":[
		{
			"mimeType":"image/png",
			"name":"Player",
			"uri":"Player.png"
		}
	],
	"skins":[
		{
			"inverseBindMatrices":6,
			"joints":[
				11,
				2,
				1,
				0,
				3,
				6,
				5,
				4,
				7,
				8,
				9,
				10
			],
			"name":"konnitiha"
		}
	],
	"accessors":[
		{
			"bufferView":0,
			"componentType":5126,
			"count":188,
			"max":[
				0.900888204574585,
				6.703224182128906,
				1.3932121992111206
			],
			"min":[
				-0.9253706932067871,
				1.6976039409637451,
				1.2637430429458618
			],
			"type":"VEC3"
		},
		{
			"bufferView":1,
			"componentType":5126,
			"count":188,
			"type":"VEC3"
		},
		{
			"bufferView":2,
			"componentType":5126,
			"count":188,
			"type":"VEC2"
		},
		{
			"bufferView":3,
			"componentType":5121,
			"count":188,
			"type":"VEC4"
		},
		{
			"bufferView":4,
			"componentType":5126,
			"count":188,
			"type":"VEC4"
		},
		{
			"bufferView":5,
			"componentType":5123,
			"count":336,
			"type":"SCALAR"
		},
		{
			"bufferView":6,
			"componentType":5126,
			"count":12,
			"type":"MAT4"
		},
		{
			"bufferView":7,
			"componentType":5126,
			"count":88,
			"max":[
				-2.7770352363586426,
				3.6455533504486084,
				-0.1715230941772461
			],
			"min":[
				-3.525470733642578,
				2.897117853164673,
				-6.735832691192627
			],
			"type":"VEC3"
		},
		{
			"bufferView":8,
			"componentType":5126,
			"count":88,
			"type":"VEC3"
		},
		{
			"bufferView":9,
			"componentType":5126,
			"count":88,
			"type":"VEC2"
		},
		{
			"bufferView":10,
			"componentType":5121,
			"count":88,
			"type":"VEC4"
		},
		{
			"bufferView":11,
			"componentType":5126,
			"count":88,
			"type":"VEC4"
		},
		{
			"bufferView":12,
			"componentType":5123,
			"count":132,
			"type":"SCALAR"
		},
		{
			"bufferView":13,
			"componentType":5126,
			"count":188,
			"max":[
				4.120163917541504,
				3.637901782989502,
				0.2268550992012024
			],
			"min":[
				2.3043086528778076,
				3.099949359893799,
				-4.758060932159424
			],
			"type":"VEC3"
		},
		{
			"bufferView":14,
			"componentType":5126,
			"count":188,
			"type":"VEC3"
		},
		{
			"bufferView":15,
			"componentType":5126,
			"count":188,
			"type":"VEC2"
		},
		{
			"bufferView":16,
			"componentType":5121,
			"count":188,
			"type":"VEC4"
		},
		{
			"bufferView":17,
			"componentType":5126,
			"count":188,
			"type":"VEC4"
		},
		{
			"bufferView":18,
			"componentType":5123,
			"count":336,
			"type":"SCALAR"
		},
		{
			"bufferView":19,
			"componentType":5126,
			"count":88,
			"max":[
				0.06206798553466797,
				6.4846577644348145,
				-0.1715230941772461
			],
			"min":[
				-6.364575386047363,
				0.0580143928527832,
				-6.735832691192627
			],
			"type":"VEC3"
		},
		{
			"bufferView":20,
			"componentType":5126,
			"count":88,
			"type":"VEC3"
		},
		{
			"bufferView":21,
			"componentType":5126,
			"count":88,
			"type":"VEC2"
		},
		{
			"bufferView":22,
			"componentType":5121,
			"count":88,
			"type":"VEC4"
		},
		{
			"bufferView":23,
			"componentType":5126,
			"count":88,
			"type":"VEC4"
		},
		{
			"bufferView":24,
			"componentType":5126,
			"count":662,
			"max":[
				3.4581809043884277,
				6.0894575119018555,
				1.286742091178894
			],
			"min":[
				-3.4581809043884277,
				0.005945086479187012,
				-1.286742091178894
			],
			"type":"VEC3"
		},
		{
			"bufferView":25,
			"componentType":5126,
			"count":662,
			"type":"VEC3"
		},
		{
			"bufferView":26,
			"componentType":5126,
			"count":662,
			"type":"VEC2"
		},
		{
			"bufferView":27,
			"componentType":5121,
			"count":662,
			"type":"VEC4"
		},
		{
			"bufferView":28,
			"componentType":5126,
			"count":662,
			"type":"VEC4"
		},
		{
			"bufferView":29,
			"componentType":5123,
			"count":2340,
			"type":"SCALAR"
		},
		{
			"bufferView":30,
			"componentType":5126,
			"count":2,
			"max":[
				0.5
			],
			"min":[
				0
			],
			"type":"SCALAR"
		},
		{
			"bufferView":31,
			"componentType":5126,
			"count":2,
			"type":"VEC3"
		},
		{
			"bufferView":32,
			"componentType":5126,
			"count":31,
			"max":[
				0.5
			],
			"min":[
				0
			],
			"type":"SCALAR"
		},
		{
			"bufferView":33,
			"componentType":5126,
			"count":31,
			"type":"VEC4"
		},
		{
			"bufferView":34,
			"componentType":5126,
			"count":2,
			"type":"VEC3"
		},
		{
			"bufferView":35,
			"componentType":5126,
			"count":2,
			"type":"VEC3"
		},
		{
			"bufferView":36,
			"componentType":5126,
			"count":31,
			"type":"VEC4"
		},
		{
			"bufferView":37,
			"componentType":5126,
			"count":2,
			"type":"VEC3"
		},
		{
			"bufferView":38,
			"componentType":5126,
			"count":2,
			"type":"VEC3"
		},
		{
			"bufferView":39,
			"componentType":5126,
			"count":31,
			"type":"VEC4"
		},
		{
			"bufferView":40,
			"componentType":5126,
			"count":2,
			"type":"VEC3"
		},
		{
			"bufferView":41,
			"componentType":5126,
			"count":2,
			"type":"VEC3"
		},
		{
			"bufferView":42,
			"componentType":5126,
			"count":2,
			"type":"VEC4"
		},
		{
			"bufferView":43,
			"componentType":5126,
			"count":2,
			"type":"VEC3"
		},
		{
			"bufferView":44,
			"componentType":5126,
			"count":2,
			"type":"VEC3"
		},
		{
			"bufferView":45,
			"componentType":5126,
			"count":2,
			"type":"VEC4"
		},
		{
			"bufferView":46,
			"componentType":5126,
			"count":2,
			"type":"VEC3"
		},
		{
			"bufferView":47,
			"componentType":5126,
			"count":2,
			"type":"VEC3"
		},
		{
			"bufferView":48,
			"componentType":5126,
			"count":31,
			"type":"VEC4"
		},
		{
			"bufferView":49,
			"componentType":5126,
			"count":2,
			"type":"VEC3"
		},
		{
			"bufferView":50,
			"componentType":5126,
			"count":2,
			"type":"VEC3"
		},
		{
			"bufferView":51,
			"componentType":5126,
			"count":31,
			"type":"VEC4"
		},
		{
			"bufferView":52,
			"componentType":5126,
			"count":2,
			"type":"VEC3"
		},
		{
			"bufferView":53,
			"componentType":5126,
			"count":2,
			"type":"VEC3"
		},
		{
			"bufferView":54,
			"componentType":5126,
			"count":31,
			"type":"VEC4"
		},
		{
			"bufferView":55,
			"componentType":5126,
			"count":2,
			"type":"VEC3"
		},
		{
			"bufferView":56,
			"componentType":5126,
			"count":2,
			"type":"VEC3"
		},
		{
			"bufferView":57,
			"componentType":5126,
			"count":2,
			"type":"VEC4"
		},
		{
			"bufferView":58,
			"componentType":5126,
			"count":2,
			"type":"VEC3"
		},
		{
			"bufferView":59,
			"componentType":5126,
			"count":2,
			"type":"VEC3"
		},
		{
			"bufferView":60,
			"componentType":5126,
			"count":2,
			"type":"VEC4"
		},
		{
			"bufferView":61,
			"componentType":5126,
			"count":2,
			"type":"VEC3"
		},
		{
			"bufferView":62,
			"componentType":5126,
			"count":2,
			"type":"VEC3"
		},
		{
			"bufferView":63,
			"componentType":5126,
			"count":2,
			"type":"VEC4"
		},
		{
			"bufferView":64,
			"componentType":5126,
			"count":2,
			"type":"VEC3"
		},
		{
			"bufferView":65,
			"componentType":5126,
			"count":2,
			"type":"VEC3"
		},
		{
			"bufferView":66,
			"componentType":5126,
			"count":2,
			"max":[
				2
			],
			"min":[
				0
			],
			"type":"SCALAR"
		},
		{
			"bufferView":67,
			"componentType":5126,
			"count":121,
			"max":[
				2
			],
			"min":[
				0
			],
			"type":"SCALAR"
		},
		{
			"bufferView":68,
			"componentType":5126,
			"count":121,
			"type":"VEC4"
		},
		{
			"bufferView":69,
			"componentType":5126,
			"count":2,
			"type":"VEC3"
		},
		{
			"bufferView":70,
			"componentType":5126,
			"count":2,
			"type":"VEC3"
		},
		{
			"bufferView":71,
			"componentType":5126,
			"count":121,
			"type":"VEC4"
		},
		{
			"bufferView":72,
			"componentType":5126,
			"count":2,
			"type":"VEC3"
		},
		{
			"bufferView":73,
			"componentType":5126,
			"count":2,
			"type":"VEC3"
		},
		{
			"bufferView":74,
			"componentType":5126,
			"count":2,
			"type":"VEC4"
		},
		{
			"bufferView":75,
			"componentType":5126,
			"count":2,
			"type":"VEC3"
		},
		{
			"bufferView":76,
			"componentType":5126,
			"count":121,
			"type":"VEC4"
		},
		{
			"bufferView":77,
			"componentType":5126,
			"count":2,
			"type":"VEC3"
		},
		{
			"bufferView":78,
			"componentType":5126,
			"count":2,
			"type":"VEC3"
		},
		{
			"bufferView":79,
			"componentType":5126,
			"count":121,
			"type":"VEC4"
		},
		{
			"bufferView":80,
			"componentType":5126,
			"count":2,
			"type":"VEC3"
		},
		{
			"bufferView":81,
			"componentType":5126,
			"count":2,
			"type":"VEC3"
		},
		{
			"bufferView":82,
			"componentType":5126,
			"count":121,
			"type":"VEC4"
		},
		{
			"bufferView":83,
			"componentType":5126,
			"count":2,
			"type":"VEC3"
		},
		{
			"bufferView":84,
			"componentType":5126,
			"count":2,
			"type":"VEC3"
		},
		{
			"bufferView":85,
			"componentType":5126,
			"count":2,
			"type":"VEC4"
		},
		{
			"bufferView":86,
			"componentType":5126,
			"count":2,
			"type":"VEC3"
		},
		{
			"bufferView":87,
			"componentType":5126,
			"count":2,
			"type":"VEC4"
		},
		{
			"bufferView":88,
			"componentType":5126,
			"count":2,
			"type":"VEC3"
		},
		{
			"bufferView":89,
			"componentType":5126,
			"count":2,
			"type":"VEC3"
		},
		{
			"bufferView":90,
			"componentType":5126,
			"count":2,
			"type":"VEC4"
		},
		{
			"bufferView":91,
			"componentType":5126,
			"count":2,
			"type":"VEC3"
		},
		{
			"bufferView":92,
			"componentType":5126,
			"count":2,
			"type":"VEC4"
		},
		{
			"bufferView":93,
			"componentType":5126,
			"count":2,
			"type":"VEC3"
		},
		{
			"bufferView":94,
			"componentType":5126,
			"count":121,
			"type":"VEC4"
		},
		{
			"bufferView":95,
			"componentType":5126,
			"count":2,
			"type":"VEC3"
		},
		{
			"bufferView":96,
			"componentType":5126,
			"count":121,
			"type":"VEC4"
		},
		{
			"bufferView":97,
			"componentType":5126,
			"count":136,
			"max":[
				2.25
			],
			"min":[
				0
			],
			"type":"SCALAR"
		},
		{
			"bufferView":98,
			"componentType":5126,
			"count":136,
			"type":"VEC3"
		},
		{
			"bufferView":99,
			"componentType":5126,
			"count":136,
			"type":"VEC4"
		},
		{
			"bufferView":100,
			"componentType":5126,
			"count":2,
			"max":[
				2.25
			],
			"min":[
				0
			],
			"type":"SCALAR"
		},
		{
			"bufferView":101,
			"componentType":5126,
			"count":2,
			"type":"VEC3"
		},
		{
			"bufferView":102,
			"componentType":5126,
			"count":136,
			"type":"VEC4"
		},
		{
			"bufferView":103,
			"componentType":5126,
			"count":2,
			"type":"VEC3"
		},
		{
			"bufferView":104,
			"componentType":5126,
			"count":2,
			"type":"VEC3"
		},
		{
			"bufferView":105,
			"componentType":5126,
			"count":2,
			"type":"VEC4"
		},
		{
			"bufferView":106,
			"componentType":5126,
			"count":2,
			"type":"VEC3"
		},
		{
			"bufferView":107,
			"componentType":5126,
			"count":2,
			"type":"VEC3"
		},
		{
			"bufferView":108,
			"componentType":5126,
			"count":2,
			"type":"VEC4"
		},
		{
			"bufferView":109,
			"componentType":5126,
			"count":2,
			"type":"VEC3"
		},
		{
			"bufferView":110,
			"componentType":5126,
			"count":2,
			"type":"VEC3"
		},
		{
			"bufferView":111,
			"componentType":5126,
			"count":136,
			"type":"VEC4"
		},
		{
			"bufferView":112,
			"componentType":5126,
			"count":2,
			"type":"VEC3"
		},
		{
			"bufferView":113,
			"componentType":5126,
			"count":2,
			"type":"VEC3"
		},
		{
			"bufferView":114,
			"componentType":5126,
			"count":136,
			"type":"VEC4"
		},
		{
			"bufferView":115,
			"componentType":5126,
			"count":2,
			"type":"VEC3"
		},
		{
			"bufferView":116,
			"componentType":5126,
			"count":2,
			"type":"VEC3"
		},
		{
			"bufferView":117,
			"componentType":5126,
			"count":2,
			"type":"VEC4"
		},
		{
			"bufferView":118,
			"componentType":5126,
			"count":2,
			"type":"VEC3"
		},
		{
			"bufferView":119,
			"componentType":5126,
			"count":2,
			"type":"VEC3"
		},
		{
			"bufferView":120,
			"componentType":5126,
			"count":2,
			"type":"VEC4"
		},
		{
			"bufferView":121,
			"componentType":5126,
			"count":2,
			"type":"VEC3"
		},
		{
			"bufferView":122,
			"componentType":5126,
			"count":136,
			"type":"VEC3"
		},
		{
			"bufferView":123,
			"componentType":5126,
			"count":2,
			"type":"VEC4"
		},
		{
			"bufferView":124,
			"componentType":5126,
			"count":2,
			"type":"VEC3"
		},
		{
			"bufferView":125,
			"componentType":5126,
			"count":2,
			"type":"VEC3"
		},
		{
			"bufferView":126,
			"componentType":5126,
			"count":2,
			"type":"VEC4"
		},
		{
			"bufferView":127,
			"componentType":5126,
			"count":2,
			"type":"VEC3"
		},
		{
			"bufferView":128,
			"componentType":5126,
			"count":2,
			"type":"VEC3"
		},
		{
			"bufferView":129,
			"componentType":5126,
			"count":136,
			"type":"VEC4"
		},
		{
			"bufferView":130,
			"componentType":5126,
			"count":2,
			"type":"VEC3"
		},
		{
			"bufferView":131,
			"componentType":5126,
			"count":136,
			"type":"VEC4"
		},
		{
			"bufferView":132,
			"componentType":5126,
			"count":2,
			"type":"VEC3"
		},
		{
			"bufferView":133,
			"componentType":5126,
			"count":251,
			"max":[
				4.166666666666667
			],
			"min":[
				0
			],
			"type":"SCALAR"
		},
		{
			"bufferView":134,
			"componentType":5126,
			"count":251,
			"type":"VEC3"
		},
		{
			"bufferView":135,
			"componentType":5126,
			"count":2,
			"max":[
				4.166666666666667
			],
			"min":[
				0
			],
			"type":"SCALAR"
		},
		{
			"bufferView":136,
			"componentType":5126,
			"count":251,
			"type":"VEC3"
		},
		{
			"bufferView":137,
			"componentType":5126,
			"count":2,
			"type":"VEC4"
		},
		{
			"bufferView":138,
			"componentType":5126,
			"count":2,
			"type":"VEC3"
		},
		{
			"bufferView":139,
			"componentType":5126,
			"count":2,
			"type":"VEC3"
		},
		{
			"bufferView":140,
			"componentType":5126,
			"count":2,
			"type":"VEC4"
		},
		{
			"bufferView":141,
			"componentType":5126,
			"count":2,
			"type":"VEC3"
		},
		{
			"bufferView":142,
			"componentType":5126,
			"count":2,
			"type":"VEC4"
		},
		{
			"bufferView":143,
			"componentType":5126,
			"count":2,
			"type":"VEC3"
		},
		{
			"bufferView":144,
			"componentType":5126,
			"count":2,
			"type":"VEC4"
		},
		{
			"bufferView":145,
			"componentType":5126,
			"count":251,
			"type":"VEC3"
		},
		{
			"bufferView":146,
			"componentType":5126,
			"count":2,
			"type":"VEC4"
		},
		{
			"bufferView":147,
			"componentType":5126,
			"count":2,
			"type":"VEC3"
		},
		{
			"bufferView":148,
			"componentType":5126,
			"count":2,
			"type":"VEC4"
		},
		{
			"bufferView":149,
			"componentType":5126,
			"count":2,
			"type":"VEC3"
		},
		{
			"bufferView":150,
			"componentType":5126,
			"count":2,
			"type":"VEC3"
		},
		{
			"bufferView":151,
			"componentType":5126,
			"count":2,
			"type":"VEC4"
		},
		{
			"bufferView":152,
			"componentType":5126,
			"count":2,
			"type":"VEC3"
		},
		{
			"bufferView":153,
			"componentType":5126,
			"count":2,
			"type":"VEC4"
		},
		{
			"bufferView":154,
			"componentType":5126,
			"count":2,
			"type":"VEC3"
		},
		{
			"bufferView":155,
			"componentType":5126,
			"count":251,
			"type":"VEC4"
		},
		{
			"bufferView":156,
			"componentType":5126,
			"count":2,
			"type":"VEC3"
		},
		{
			"bufferView":157,
			"componentType":5126,
			"count":251,
			"type":"VEC4"
		},
		{
			"bufferView":158,
			"componentType":5126,
			"count":2,
			"type":"VEC3"
		},
		{
			"bufferView":159,
			"componentType":5126,
			"count":2,
			"type":"VEC3"
		},
		{
			"bufferView":160,
			"componentType":5126,
			"count":2,
			"type":"VEC4"
		},
		{
			"bufferView":161,
			"componentType":5126,
			"count":2,
			"type":"VEC3"
		},
		{
			"bufferView":162,
			"componentType":5126,
			"count":2,
			"type":"VEC3"
		},
		{
			"bufferView":163,
			"componentType":5126,
			"count":2,
			"type":"VEC4"
		},
		{
			"bufferView":164,
			"componentType":5126,
			"count":2,
			"type":"VEC3"
		},
		{
			"bufferView":165,
			"componentType":5126,
			"count":2,
			"type":"VEC3"
		},
		{
			"bufferView":166,
			"componentType":5126,
			"count":251,
			"type":"VEC4"
		},
		{
			"bufferView":167,
			"componentType":5126,
			"count":2,
			"type":"VEC3"
		},
		{
			"bufferView":168,
			"componentType":5126,
			"count":2,
			"type":"VEC3"
		},
		{
			"bufferView":169,
			"componentType":5126,
			"count":251,
			"type":"VEC4"
		},
		{
			"bufferView":170,
			"componentType":5126,
			"count":2,
			"type":"VEC3"
		},
		{
			"bufferView":171,
			"componentType":5126,
			"count":2,
			"type":"VEC3"
		},
		{
			"bufferView":172,
			"componentType":5126,
			"count":2,
			"type":"VEC4"
		},
		{
			"bufferView":173,
			"componentType":5126,
			"count":2,
			"type":"VEC3"
		},
		{
			"bufferView":174,
			"componentType":5126,
			"count":2,
			"type":"VEC4"
		},
		{
			"bufferView":175,
			"componentType":5126,
			"count":2,
			"type":"VEC3"
		},
		{
			"bufferView":176,
			"componentType":5126,
			"count":2,
			"type":"VEC3"
		},
		{
			"bufferView":177,
			"componentType":5126,
			"count":2,
			"type":"VEC3"
		},
		{
			"bufferView":178,
			"componentType":5126,
			"count":251,
			"type":"VEC4"
		},
		{
			"bufferView":179,
			"componentType":5126,
			"count":2,
			"type":"VEC3"
		},
		{
			"bufferView":180,
			"componentType":5126,
			"count":251,
			"type":"VEC4"
		},
		{
			"bufferView":181,
			"componentType":5126,
			"count":2,
			"max":[
				2.0166666666666666
			],
			"min":[
				0
			],
			"type":"SCALAR"
		},
		{
			"bufferView":182,
			"componentType":5126,
			"count":122,
			"max":[
				2.0166666666666666
			],
			"min":[
				0
			],
			"type":"SCALAR"
		},
		{
			"bufferView":183,
			"componentType":5126,
			"count":122,
			"type":"VEC4"
		},
		{
			"bufferView":184,
			"componentType":5126,
			"count":2,
			"type":"VEC4"
		},
		{
			"bufferView":185,
			"componentType":5126,
			"count":2,
			"type":"VEC3"
		},
		{
			"bufferView":186,
			"componentType":5126,
			"count":2,
			"type":"VEC4"
		},
		{
			"bufferView":187,
			"componentType":5126,
			"count":2,
			"type":"VEC3"
		},
		{
			"bufferView":188,
			"componentType":5126,
			"count":122,
			"type":"VEC4"
		},
		{
			"bufferView":189,
			"componentType":5126,
			"count":2,
			"type":"VEC3"
		},
		{
			"bufferView":190,
			"componentType":5126,
			"count":122,
			"type":"VEC4"
		},
		{
			"bufferView":191,
			"componentType":5126,
			"count":2,
			"type":"VEC3"
		},
		{
			"bufferView":192,
			"componentType":5126,
			"count":2,
			"type":"VEC4"
		},
		{
			"bufferView":193,
			"componentType":5126,
			"count":2,
			"type":"VEC3"
		},
		{
			"bufferView":194,
			"componentType":5126,
			"count":2,
			"type":"VEC3"
		},
		{
			"bufferView":195,
			"componentType":5126,
			"count":2,
			"type":"VEC4"
		},
		{
			"bufferView":196,
			"componentType":5126,
			"count":2,
			"type":"VEC3"
		},
		{
			"bufferView":197,
			"componentType":5126,
			"count":122,
			"type":"VEC4"
		},
		{
			"bufferView":198,
			"componentType":5126,
			"count":122,
			"type":"VEC4"
		},
		{
			"bufferView":199,
			"componentType":5126,
			"count":2,
			"max":[
				1
			],
			"min":[
				0
			],
			"type":"SCALAR"
		},
		{
			"bufferView":200,
			"componentType":5126,
			"count":2,
			"type":"VEC3"
		},
		{
			"bufferView":201,
			"componentType":5126,
			"count":61,
			"max":[
				1
			],
			"min":[
				0
			],
			"type":"SCALAR"
		},
		{
			"bufferView":202,
			"componentType":5126,
			"count":61,
			"type":"VEC4"
		},
		{
			"bufferView":203,
			"componentType":5126,
			"count":2,
			"type":"VEC3"
		},
		{
			"bufferView":204,
			"componentType":5126,
			"count":2,
			"type":"VEC3"
		},
		{
			"bufferView":205,
			"componentType":5126,
			"count":61,
			"type":"VEC4"
		},
		{
			"bufferView":206,
			"componentType":5126,
			"count":2,
			"type":"VEC3"
		},
		{
			"bufferView":207,
			"componentType":5126,
			"count":2,
			"type":"VEC3"
		},
		{
			"bufferView":208,
			"componentType":5126,
			"count":2,
			"type":"VEC4"
		},
		{
			"bufferView":209,
			"componentType":5126,
			"count":2,
			"type":"VEC3"
		},
		{
			"bufferView":210,
			"componentType":5126,
			"count":2,
			"type":"VEC3"
		},
		{
			"bufferView":211,
			"componentType":5126,
			"count":2,
			"type":"VEC4"
		},
		{
			"bufferView":212,
			"componentType":5126,
			"count":2,
			"type":"VEC3"
		},
		{
			"bufferView":213,
			"componentType":5126,
			"count":2,
			"type":"VEC4"
		},
		{
			"bufferView":214,
			"componentType":5126,
			"count":2,
			"type":"VEC3"
		},
		{
			"bufferView":215,
			"componentType":5126,
			"count":61,
			"type":"VEC4"
		},
		{
			"bufferView":216,
			"componentType":5126,
			"count":2,
			"type":"VEC3"
		},
		{
			"bufferView":217,
			"componentType":5126,
			"count":2,
			"type":"VEC3"
		},
		{
			"bufferView":218,
			"componentType":5126,
			"count":2,
			"type":"VEC4"
		},
		{
			"bufferView":219,
			"componentType":5126,
			"count":2,
			"type":"VEC3"
		},
		{
			"bufferView":220,
			"componentType":5126,
			"count":2,
			"type":"VEC4"
		},
		{
			"bufferView":221,
			"componentType":5126,
			"count":2,
			"type":"VEC3"
		},
		{
			"bufferView":222,
			"componentType":5126,
			"count":2,
			"type":"VEC3"
		},
		{
			"bufferView":223,
			"componentType":5126,
			"count":2,
			"type":"VEC3"
		},
		{
			"bufferView":224,
			"componentType":5126,
			"count":2,
			"type":"VEC3"
		},
		{
			"bufferView":225,
			"componentType":5126,
			"count":61,
			"type":"VEC4"
		},
		{
			"bufferView":226,
			"componentType":5126,
			"count":2,
			"type":"VEC3"
		},
		{
			"bufferView":227,
			"componentType":5126,
			"count":2,
			"type":"VEC3"
		},
		{
			"bufferView":228,
			"componentType":5126,
			"count":61,
			"type":"VEC4"
		}
	],
	"bufferViews":[
		{
			"buffer":0,
			"byteLength":2256,
			"byteOffset":0,
			"target":34962
		},
		{
			"buffer":0,
			"byteLength":2256,
			"byteOffset":2256,
			"target":34962
		},
		{
			"buffer":0,
			"byteLength":1504,
			"byteOffset":4512,
			"target":34962
		},
		{
			"buffer":0,
			"byteLength":752,
			"byteOffset":6016,
			"target":34962
		},
		{
			"buffer":0,
			"byteLength":3008,
			"byteOffset":6768,
			"target":34962
		},
		{
			"buffer":0,
			"byteLength":672,
			"byteOffset":9776,
			"target":34963
		},
		{
			"buffer":0,
			"byteLength":768,
			"byteOffset":10448
		},
		{
			"buffer":0,
			"byteLength":1056,
			"byteOffset":11216,
			"target":34962
		},
		{
			"buffer":0,
			"byteLength":1056,
			"byteOffset":12272,
			"target":34962
		},
		{
			"buffer":0,
			"byteLength":704,
			"byteOffset":13328,
			"target":34962
		},
		{
			"buffer":0,
			"byteLength":352,
			"byteOffset":14032,
			"target":34962
		},
		{
			"buffer":0,
			"byteLength":1408,
			"byteOffset":14384,
			"target":34962
		},
		{
			"buffer":0,
			"byteLength":264,
			"byteOffset":15792,
			"target":34963
		},
		{
			"buffer":0,
			"byteLength":2256,
			"byteOffset":16056,
			"target":34962
		},
		{
			"buffer":0,
			"byteLength":2256,
			"byteOffset":18312,
			"target":34962
		},
		{
			"buffer":0,
			"byteLength":1504,
			"byteOffset":20568,
			"target":34962
		},
		{
			"buffer":0,
			"byteLength":752,
			"byteOffset":22072,
			"target":34962
		},
		{
			"buffer":0,
			"byteLength":3008,
			"byteOffset":22824,
			"target":34962
		},
		{
			"buffer":0,
			"byteLength":672,
			"byteOffset":25832,
			"target":34963
		},
		{
			"buffer":0,
			"byteLength":1056,
			"byteOffset":26504,
			"target":34962
		},
		{
			"buffer":0,
			"byteLength":1056,
			"byteOffset":27560,
			"target":34962
		},
		{
			"buffer":0,
			"byteLength":704,
			"byteOffset":28616,
			"target":34962
		},
		{
			"buffer":0,
			"byteLength":352,
			"byteOffset":29320,
			"target":34962
		},
		{
			"buffer":0,
			"byteLength":1408,
			"byteOffset":29672,
			"target":34962
		},
		{
			"buffer":0,
			"byteLength":7944,
			"byteOffset":31080,
			"target":34962
		},
		{
			"buffer":0,
			"byteLength":7944,
			"byteOffset":39024,
			"target":34962
		},
		{
			"buffer":0,
			"byteLength":5296,
			"byteOffset":46968,
			"target":34962
		},
		{
			"buffer":0,
			"byteLength":2648,
			"byteOffset":52264,
			"target":34962
		},
		{
			"buffer":0,
			"byteLength":10592,
			"byteOffset":54912,
			"target":34962
		},
		{
			"buffer":0,
			"byteLength":4680,
			"byteOffset":65504,
			"target":34963
		},
		{
			"buffer":0,
			"byteLength":8,
			"byteOffset":70184
		},
		{
			"buffer":0,
			"byteLength":24,
			"byteOffset":70192
		},
		{
			"buffer":0,
			"byteLength":124,
			"byteOffset":70216
		},
		{
			"buffer":0,
			"byteLength":496,
			"byteOffset":70340
		},
		{
			"buffer":0,
			"byteLength":24,
			"byteOffset":70836
		},
		{
			"buffer":0,
			"byteLength":24,
			"byteOffset":70860
		},
		{
			"buffer":0,
			"byteLength":496,
			"byteOffset":70884
		},
		{
			"buffer":0,
			"byteLength":24,
			"byteOffset":71380
		},
		{
			"buffer":0,
			"byteLength":24,
			"byteOffset":71404
		},
		{
			"buffer":0,
			"byteLength":496,
			"byteOffset":71428
		},
		{
			"buffer":0,
			"byteLength":24,
			"byteOffset":71924
		},
		{
			"buffer":0,
			"byteLength":24,
			"byteOffset":71948
		},
		{
			"buffer":0,
			"byteLength":32,
			"byteOffset":71972
		},
		{
			"buffer":0,
			"byteLength":24,
			"byteOffset":72004
		},
		{
			"buffer":0,
			"byteLength":24,
			"byteOffset":72028
		},
		{
			"buffer":0,
			"byteLength":32,
			"byteOffset":72052
		},
		{
			"buffer":0,
			"byteLength":24,
			"byteOffset":72084
		},
		{
			"buffer":0,
			"byteLength":24,
			"byteOffset":72108
		},
		{
			"buffer":0,
			"byteLength":496,
			"byteOffset":72132
		},
		{
			"buffer":0,
			"byteLength":24,
			"byteOffset":72628
		},
		{
			"buffer":0,
			"byteLength":24,
			"byteOffset":72652
		},
		{
			"buffer":0,
			"byteLength":496,
			"byteOffset":72676
		},
		{
			"buffer":0,
			"byteLength":24,
			"byteOffset":73172
		},
		{
			"buffer":0,
			"byteLength":24,
			"byteOffset":73196
		},
		{
			"buffer":0,
			"byteLength":496,
			"byteOffset":73220
		},
		{
			"buffer":0,
			"byteLength":24,
			"byteOffset":73716
		},
		{
			"buffer":0,
			"byteLength":24,
			"byteOffset":73740
		},
		{
			"buffer":0,
			"byteLength":32,
			"byteOffset":73764
		},
		{
			"buffer":0,
			"byteLength":24,
			"byteOffset":73796
		},
		{
			"buffer":0,
			"byteLength":24,
			"byteOffset":73820
		},
		{
			"buffer":0,
			"byteLength":32,
			"byteOffset":73844
		},
		{
			"buffer":0,
			"byteLength":24,
			"byteOffset":73876
		},
		{
			"buffer":0,
			"byteLength":24,
			"byteOffset":73900
		},
		{
			"buffer":0,
			"byteLength":32,
			"byteOffset":73924
		},
		{
			"buffer":0,
			"byteLength":24,
			"byteOffset":73956
		},
		{
			"buffer":0,
			"byteLength":24,
			"byteOffset":73980
		},
		{
			"buffer":0,
			"byteLength":8,
			"byteOffset":74004
		},
		{
			"buffer":0,
			"byteLength":484,
			"byteOffset":74012
		},
		{
			"buffer":0,
			"byteLength":1936,
			"byteOffset":74496
		},
		{
			"buffer":0,
			"byteLength":24,
			"byteOffset":76432
		},
		{
			"buffer":0,
			"byteLength":24,
			"byteOffset":76456
		},
		{
			"buffer":0,
			"byteLength":1936,
			"byteOffset":76480
		},
		{
			"buffer":0,
			"byteLength":24,
			"byteOffset":78416
		},
		{
			"buffer":0,
			"byteLength":24,
			"byteOffset":78440
		},
		{
			"buffer":0,
			"byteLength":32,
			"byteOffset":78464
		},
		{
			"buffer":0,
			"byteLength":24,
			"byteOffset":78496
		},
		{
			"buffer":0,
			"byteLength":1936,
			"byteOffset":78520
		},
		{
			"buffer":0,
			"byteLength":24,
			"byteOffset":80456
		},
		{
			"buffer":0,
			"byteLength":24,
			"byteOffset":80480
		},
		{
			"buffer":0,
			"byteLength":1936,
			"byteOffset":80504
		},
		{
			"buffer":0,
			"byteLength":24,
			"byteOffset":82440
		},
		{
			"buffer":0,
			"byteLength":24,
			"byteOffset":82464
		},
		{
			"buffer":0,
			"byteLength":1936,
			"byteOffset":82488
		},
		{
			"buffer":0,
			"byteLength":24,
			"byteOffset":84424
		},
		{
			"buffer":0,
			"byteLength":24,
			"byteOffset":84448
		},
		{
			"buffer":0,
			"byteLength":32,
			"byteOffset":84472
		},
		{
			"buffer":0,
			"byteLength":24,
			"byteOffset":84504
		},
		{
			"buffer":0,
			"byteLength":32,
			"byteOffset":84528
		},
		{
			"buffer":0,
			"byteLength":24,
			"byteOffset":84560
		},
		{
			"buffer":0,
			"byteLength":24,
			"byteOffset":84584
		},
		{
			"buffer":0,
			"byteLength":32,
			"byteOffset":84608
		},
		{
			"buffer":0,
			"byteLength":24,
			"byteOffset":84640
		},
		{
			"buffer":0,
			"byteLength":32,
			"byteOffset":84664
		},
		{
			"buffer":0,
			"byteLength":24,
			"byteOffset":84696
		},
		{
			"buffer":0,
			"byteLength":1936,
			"byteOffset":84720
		},
		{
			"buffer":0,
			"byteLength":24,
			"byteOffset":86656
		},
		{
			"buffer":0,
			"byteLength":1936,
			"byteOffset":86680
		},
		{
			"buffer":0,
			"byteLength":544,
			"byteOffset":88616
		},
		{
			"buffer":0,
			"byteLength":1632,
			"byteOffset":89160
		},
		{
			"buffer":0,
			"byteLength":2176,
			"byteOffset":90792
		},
		{
			"buffer":0,
			"byteLength":8,
			"byteOffset":92968
		},
		{
			"buffer":0,
			"byteLength":24,
			"byteOffset":92976
		},
		{
			"buffer":0,
			"byteLength":2176,
			"byteOffset":93000
		},
		{
			"buffer":0,
			"byteLength":24,
			"byteOffset":95176
		},
		{
			"buffer":0,
			"byteLength":24,
			"byteOffset":95200
		},
		{
			"buffer":0,
			"byteLength":32,
			"byteOffset":95224
		},
		{
			"buffer":0,
			"byteLength":24,
			"byteOffset":95256
		},
		{
			"buffer":0,
			"byteLength":24,
			"byteOffset":95280
		},
		{
			"buffer":0,
			"byteLength":32,
			"byteOffset":95304
		},
		{
			"buffer":0,
			"byteLength":24,
			"byteOffset":95336
		},
		{
			"buffer":0,
			"byteLength":24,
			"byteOffset":95360
		},
		{
			"buffer":0,
			"byteLength":2176,
			"byteOffset":95384
		},
		{
			"buffer":0,
			"byteLength":24,
			"byteOffset":97560
		},
		{
			"buffer":0,
			"byteLength":24,
			"byteOffset":97584
		},
		{
			"buffer":0,
			"byteLength":2176,
			"byteOffset":97608
		},
		{
			"buffer":0,
			"byteLength":24,
			"byteOffset":99784
		},
		{
			"buffer":0,
			"byteLength":24,
			"byteOffset":99808
		},
		{
			"buffer":0,
			"byteLength":32,
			"byteOffset":99832
		},
		{
			"buffer":0,
			"byteLength":24,
			"byteOffset":99864
		},
		{
			"buffer":0,
			"byteLength":24,
			"byteOffset":99888
		},
		{
			"buffer":0,
			"byteLength":32,
			"byteOffset":99912
		},
		{
			"buffer":0,
			"byteLength":24,
			"byteOffset":99944
		},
		{
			"buffer":0,
			"byteLength":1632,
			"byteOffset":99968
		},
		{
			"buffer":0,
			"byteLength":32,
			"byteOffset":101600
		},
		{
			"buffer":0,
			"byteLength":24,
			"byteOffset":101632
		},
		{
			"buffer":0,
			"byteLength":24,
			"byteOffset":101656
		},
		{
			"buffer":0,
			"byteLength":32,
			"byteOffset":101680
		},
		{
			"buffer":0,
			"byteLength":24,
			"byteOffset":101712
		},
		{
			"buffer":0,
			"byteLength":24,
			"byteOffset":101736
		},
		{
			"buffer":0,
			"byteLength":2176,
			"byteOffset":101760
		},
		{
			"buffer":0,
			"byteLength":24,
			"byteOffset":103936
		},
		{
			"buffer":0,
			"byteLength":2176,
			"byteOffset":103960
		},
		{
			"buffer":0,
			"byteLength":24,
			"byteOffset":106136
		},
		{
			"buffer":0,
			"byteLength":1004,
			"byteOffset":106160
		},
		{
			"buffer":0,
			"byteLength":3012,
			"byteOffset":107164
		},
		{
			"buffer":0,
			"byteLength":8,
			"byteOffset":110176
		},
		{
			"buffer":0,
			"byteLength":3012,
			"byteOffset":110184
		},
		{
			"buffer":0,
			"byteLength":32,
			"byteOffset":113196
		},
		{
			"buffer":0,
			"byteLength":24,
			"byteOffset":113228
		},
		{
			"buffer":0,
			"byteLength":24,
			"byteOffset":113252
		},
		{
			"buffer":0,
			"byteLength":32,
			"byteOffset":113276
		},
		{
			"buffer":0,
			"byteLength":24,
			"byteOffset":113308
		},
		{
			"buffer":0,
			"byteLength":32,
			"byteOffset":113332
		},
		{
			"buffer":0,
			"byteLength":24,
			"byteOffset":113364
		},
		{
			"buffer":0,
			"byteLength":32,
			"byteOffset":113388
		},
		{
			"buffer":0,
			"byteLength":3012,
			"byteOffset":113420
		},
		{
			"buffer":0,
			"byteLength":32,
			"byteOffset":116432
		},
		{
			"buffer":0,
			"byteLength":24,
			"byteOffset":116464
		},
		{
			"buffer":0,
			"byteLength":32,
			"byteOffset":116488
		},
		{
			"buffer":0,
			"byteLength":24,
			"byteOffset":116520
		},
		{
			"buffer":0,
			"byteLength":24,
			"byteOffset":116544
		},
		{
			"buffer":0,
			"byteLength":32,
			"byteOffset":116568
		},
		{
			"buffer":0,
			"byteLength":24,
			"byteOffset":116600
		},
		{
			"buffer":0,
			"byteLength":32,
			"byteOffset":116624
		},
		{
			"buffer":0,
			"byteLength":24,
			"byteOffset":116656
		},
		{
			"buffer":0,
			"byteLength":4016,
			"byteOffset":116680
		},
		{
			"buffer":0,
			"byteLength":24,
			"byteOffset":120696
		},
		{
			"buffer":0,
			"byteLength":4016,
			"byteOffset":120720
		},
		{
			"buffer":0,
			"byteLength":24,
			"byteOffset":124736
		},
		{
			"buffer":0,
			"byteLength":24,
			"byteOffset":124760
		},
		{
			"buffer":0,
			"byteLength":32,
			"byteOffset":124784
		},
		{
			"buffer":0,
			"byteLength":24,
			"byteOffset":124816
		},
		{
			"buffer":0,
			"byteLength":24,
			"byteOffset":124840
		},
		{
			"buffer":0,
			"byteLength":32,
			"byteOffset":124864
		},
		{
			"buffer":0,
			"byteLength":24,
			"byteOffset":124896
		},
		{
			"buffer":0,
			"byteLength":24,
			"byteOffset":124920
		},
		{
			"buffer":0,
			"byteLength":4016,
			"byteOffset":124944
		},
		{
			"buffer":0,
			"byteLength":24,
			"byteOffset":128960
		},
		{
			"buffer":0,
			"byteLength":24,
			"byteOffset":128984
		},
		{
			"buffer":0,
			"byteLength":4016,
			"byteOffset":129008
		},
		{
			"buffer":0,
			"byteLength":24,
			"byteOffset":133024
		},
		{
			"buffer":0,
			"byteLength":24,
			"byteOffset":133048
		},
		{
			"buffer":0,
			"byteLength":32,
			"byteOffset":133072
		},
		{
			"buffer":0,
			"byteLength":24,
			"byteOffset":133104
		},
		{
			"buffer":0,
			"byteLength":32,
			"byteOffset":133128
		},
		{
			"buffer":0,
			"byteLength":24,
			"byteOffset":133160
		},
		{
			"buffer":0,
			"byteLength":24,
			"byteOffset":133184
		},
		{
			"buffer":0,
			"byteLength":24,
			"byteOffset":133208
		},
		{
			"buffer":0,
			"byteLength":4016,
			"byteOffset":133232
		},
		{
			"buffer":0,
			"byteLength":24,
			"byteOffset":137248
		},
		{
			"buffer":0,
			"byteLength":4016,
			"byteOffset":137272
		},
		{
			"buffer":0,
			"byteLength":8,
			"byteOffset":141288
		},
		{
			"buffer":0,
			"byteLength":488,
			"byteOffset":141296
		},
		{
			"buffer":0,
			"byteLength":1952,
			"byteOffset":141784
		},
		{
			"buffer":0,
			"byteLength":32,
			"byteOffset":143736
		},
		{
			"buffer":0,
			"byteLength":24,
			"byteOffset":143768
		},
		{
			"buffer":0,
			"byteLength":32,
			"byteOffset":143792
		},
		{
			"buffer":0,
			"byteLength":24,
			"byteOffset":143824
		},
		{
			"buffer":0,
			"byteLength":1952,
			"byteOffset":143848
		},
		{
			"buffer":0,
			"byteLength":24,
			"byteOffset":145800
		},
		{
			"buffer":0,
			"byteLength":1952,
			"byteOffset":145824
		},
		{
			"buffer":0,
			"byteLength":24,
			"byteOffset":147776
		},
		{
			"buffer":0,
			"byteLength":32,
			"byteOffset":147800
		},
		{
			"buffer":0,
			"byteLength":24,
			"byteOffset":147832
		},
		{
			"buffer":0,
			"byteLength":24,
			"byteOffset":147856
		},
		{
			"buffer":0,
			"byteLength":32,
			"byteOffset":147880
		},
		{
			"buffer":0,
			"byteLength":24,
			"byteOffset":147912
		},
		{
			"buffer":0,
			"byteLength":1952,
			"byteOffset":147936
		},
		{
			"buffer":0,
			"byteLength":1952,
			"byteOffset":149888
		},
		{
			"buffer":0,
			"byteLength":8,
			"byteOffset":151840
		},
		{
			"buffer":0,
			"byteLength":24,
			"byteOffset":151848
		},
		{
			"buffer":0,
			"byteLength":244,
			"byteOffset":151872
		},
		{
			"buffer":0,
			"byteLength":976,
			"byteOffset":152116
		},
		{
			"buffer":0,
			"byteLength":24,
			"byteOffset":153092
		},
		{
			"buffer":0,
			"byteLength":24,
			"byteOffset":153116
		},
		{
			"buffer":0,
			"byteLength":976,
			"byteOffset":153140
		},
		{
			"buffer":0,
			"byteLength":24,
			"byteOffset":154116
		},
		{
			"buffer":0,
			"byteLength":24,
			"byteOffset":154140
		},
		{
			"buffer":0,
			"byteLength":32,
			"byteOffset":154164
		},
		{
			"buffer":0,
			"byteLength":24,
			"byteOffset":154196
		},
		{
			"buffer":0,
			"byteLength":24,
			"byteOffset":154220
		},
		{
			"buffer":0,
			"byteLength":32,
			"byteOffset":154244
		},
		{
			"buffer":0,
			"byteLength":24,
			"byteOffset":154276
		},
		{
			"buffer":0,
			"byteLength":32,
			"byteOffset":154300
		},
		{
			"buffer":0,
			"byteLength":24,
			"byteOffset":154332
		},
		{
			"buffer":0,
			"byteLength":976,
			"byteOffset":154356
		},
		{
			"buffer":0,
			"byteLength":24,
			"byteOffset":155332
		},
		{
			"buffer":0,
			"byteLength":24,
			"byteOffset":155356
		},
		{
			"buffer":0,
			"byteLength":32,
			"byteOffset":155380
		},
		{
			"buffer":0,
			"byteLength":24,
			"byteOffset":155412
		},
		{
			"buffer":0,
			"byteLength":32,
			"byteOffset":155436
		},
		{
			"buffer":0,
			"byteLength":24,
			"byteOffset":155468
		},
		{
			"buffer":0,
			"byteLength":24,
			"byteOffset":155492
		},
		{
			"buffer":0,
			"byteLength":24,
			"byteOffset":155516
		},
		{
			"buffer":0,
			"byteLength":24,
			"byteOffset":155540
		},
		{
			"buffer":0,
			"byteLength":976,
			"byteOffset":155564
		},
		{
			"buffer":0,
			"byteLength":24,
			"byteOffset":156540
		},
		{
			"buffer":0,
			"byteLength":24,
			"byteOffset":156564
		},
		{
			"buffer":0,
			"byteLength":976,
			"byteOffset":156588
		}
	],
	"samplers":[
		{
			"magFilter":9729,
			"minFilter":9987
		}
	],
	"buffers":[
		{
			"byteLength":157564,
			"uri":"Player.bin"
		}
	]
}
